999
Created by FidoCadJ ver. 0.24.9 gamma, DXF export filter
0
SECTION
2
HEADER
9
$ACADVER
1
AC1009
9
$INSBASE
10
0.0000
20
0.0000
30
0.0000
9
$EXTMIN
10
0.0000
20
0.0000
30
0.0000
9
$EXTMAX
10
88.1380
20
76.9620
30
0.0000
0
ENDSEC
0
SECTION
2
TABLES
0
TABLE
2
LTYPE
70
5
0
LTYPE
2
CONTINUOUS
70
0
3
Solid line
72
65
73
0
40
0.0
0
LTYPE
2
FCJDASH1
70
0
3
FidoCadJ dash style 1
72
65
73
2
40
2.5400
49
1.2700
49
-1.2700
0
LTYPE
2
FCJDASH2
70
0
3
FidoCadJ dash style 2
72
65
73
2
40
1.0160
49
0.5080
49
-0.5080
0
LTYPE
2
FCJDASH3
70
0
3
FidoCadJ dash style 3
72
65
73
2
40
1.7780
49
0.5080
49
-1.2700
0
LTYPE
2
FCJDASH4
70
0
3
FidoCadJ dash style 4
72
65
73
4
40
4.3180
49
0.5080
49
-1.2700
49
1.2700
49
-1.2700
0
ENDTAB
0
TABLE
2
LAYER
70
16
0
LAYER
2
L00_
70
0
62
7
6
CONTINUOUS
0
LAYER
2
L01_
70
0
62
250
6
CONTINUOUS
0
LAYER
2
L02_
70
0
62
1
6
CONTINUOUS
0
LAYER
2
L03_
70
0
62
251
6
CONTINUOUS
0
LAYER
2
L04_
70
0
62
40
6
CONTINUOUS
0
LAYER
2
L05_
70
0
62
60
6
CONTINUOUS
0
LAYER
2
L06_
70
0
62
4
6
CONTINUOUS
0
LAYER
2
L07_
70
0
62
250
6
CONTINUOUS
0
LAYER
2
L08_
70
0
62
60
6
CONTINUOUS
0
LAYER
2
L09_
70
0
62
200
6
CONTINUOUS
0
LAYER
2
L10_
70
0
62
30
6
CONTINUOUS
0
LAYER
2
L11_
70
0
62
150
6
CONTINUOUS
0
LAYER
2
L12_
70
0
62
255
6
CONTINUOUS
0
LAYER
2
L13_
70
0
62
253
6
CONTINUOUS
0
LAYER
2
L14_
70
0
62
251
6
CONTINUOUS
0
LAYER
2
L15_
70
0
62
7
6
CONTINUOUS
0
ENDTAB
0
TABLE
2
STYLE
70
2
0
STYLE
2
STANDARD
70
0
40
0.0000
41
1.0000
50
0.0000
71
0
42
2.5000
3
txt
4

0
STYLE
2
STANDARD_ITALIC
70
0
40
0.0000
41
1.0000
50
15.0000
71
0
42
2.5000
3
txt
4

0
ENDTAB
0
ENDSEC
0
SECTION
2
BLOCKS
0
ENDSEC
0
SECTION
2
ENTITIES
0
LINE
8
L00_
6
FCJDASH4
10
2.0320
20
64.5160
30
0.0000
11
23.6220
21
64.5160
31
0.0000
0
LINE
8
L00_
6
FCJDASH3
10
2.0320
20
65.7860
30
0.0000
11
23.6220
21
65.7860
31
0.0000
0
LINE
8
L00_
6
FCJDASH2
10
2.0320
20
67.0560
30
0.0000
11
23.6220
21
67.0560
31
0.0000
0
POLYLINE
8
L00_
66
1
70
0
40
2.5400
41
2.5400
0
VERTEX
8
L00_
10
3.3020
20
74.6760
30
0.0000
0
VERTEX
8
L00_
10
3.3020
20
74.6760
30
0.0000
0
SEQEND
0
CIRCLE
8
L00_
10
7.1120
20
74.6760
30
0.0000
40
1.2700
0
CIRCLE
8
L00_
6
FCJDASH2
10
14.7320
20
74.6760
30
0.0000
40
1.2700
0
CIRCLE
8
L00_
6
FCJDASH3
10
18.5420
20
74.6760
30
0.0000
40
1.2700
0
CIRCLE
8
L00_
6
FCJDASH4
10
22.3520
20
74.6760
30
0.0000
40
1.2700
0
SOLID
8
L00_
10
2.0320
20
72.1360
30
0.0000
11
4.5720
21
72.1360
31
0.0000
12
2.0320
22
69.5960
32
0.0000
13
4.5720
23
69.5960
33
0.0000
0
POLYLINE
8
L00_
66
1
70
1
0
VERTEX
8
L00_
10
5.8420
20
72.1360
30
0.0000
0
VERTEX
8
L00_
10
8.3820
20
72.1360
30
0.0000
0
VERTEX
8
L00_
10
8.3820
20
69.5960
30
0.0000
0
VERTEX
8
L00_
10
5.8420
20
69.5960
30
0.0000
0
SEQEND
0
POLYLINE
8
L00_
6
FCJDASH2
66
1
70
1
0
VERTEX
8
L00_
10
13.4620
20
72.1360
30
0.0000
0
VERTEX
8
L00_
10
16.0020
20
72.1360
30
0.0000
0
VERTEX
8
L00_
10
16.0020
20
69.5960
30
0.0000
0
VERTEX
8
L00_
10
13.4620
20
69.5960
30
0.0000
0
SEQEND
0
POLYLINE
8
L00_
6
FCJDASH3
66
1
70
1
0
VERTEX
8
L00_
10
17.2720
20
72.1360
30
0.0000
0
VERTEX
8
L00_
10
19.8120
20
72.1360
30
0.0000
0
VERTEX
8
L00_
10
19.8120
20
69.5960
30
0.0000
0
VERTEX
8
L00_
10
17.2720
20
69.5960
30
0.0000
0
SEQEND
0
POLYLINE
8
L00_
6
FCJDASH4
66
1
70
1
0
VERTEX
8
L00_
10
21.0820
20
72.1360
30
0.0000
0
VERTEX
8
L00_
10
23.6220
20
72.1360
30
0.0000
0
VERTEX
8
L00_
10
23.6220
20
69.5960
30
0.0000
0
VERTEX
8
L00_
10
21.0820
20
69.5960
30
0.0000
0
SEQEND
0
SOLID
8
L00_
10
26.1620
20
75.9460
30
0.0000
11
26.9240
21
76.2000
31
0.0000
12
26.9240
22
75.6920
32
0.0000
13
26.9240
23
75.6920
33
0.0000
0
SOLID
8
L00_
10
47.7520
20
75.9460
30
0.0000
11
46.9900
21
75.6920
31
0.0000
12
46.9900
22
76.2000
32
0.0000
13
46.9900
23
76.2000
33
0.0000
0
LINE
8
L00_
10
26.9240
20
75.9460
30
0.0000
11
46.9900
21
75.9460
31
0.0000
0
SOLID
8
L00_
10
26.1620
20
73.4060
30
0.0000
11
26.9240
21
73.6600
31
0.0000
12
26.9240
22
73.1520
32
0.0000
13
26.9240
23
73.1520
33
0.0000
0
SOLID
8
L00_
10
47.7520
20
73.4060
30
0.0000
11
46.9900
21
73.1520
31
0.0000
12
46.9900
22
73.6600
32
0.0000
13
46.9900
23
73.6600
33
0.0000
0
LINE
8
L00_
6
FCJDASH2
10
26.9240
20
73.4060
30
0.0000
11
46.9900
21
73.4060
31
0.0000
0
SOLID
8
L00_
10
26.1620
20
72.1360
30
0.0000
11
26.9240
21
72.3900
31
0.0000
12
26.9240
22
71.8820
32
0.0000
13
26.9240
23
71.8820
33
0.0000
0
SOLID
8
L00_
10
47.7520
20
72.1360
30
0.0000
11
46.9900
21
71.8820
31
0.0000
12
46.9900
22
72.3900
32
0.0000
13
46.9900
23
72.3900
33
0.0000
0
LINE
8
L00_
6
FCJDASH3
10
26.9240
20
72.1360
30
0.0000
11
46.9900
21
72.1360
31
0.0000
0
SOLID
8
L00_
10
26.1620
20
70.8660
30
0.0000
11
26.9240
21
71.1200
31
0.0000
12
26.9240
22
70.6120
32
0.0000
13
26.9240
23
70.6120
33
0.0000
0
POLYLINE
8
L00_
66
1
70
0
0
VERTEX
8
L00_
10
26.1620
20
71.1200
30
0.0000
0
VERTEX
8
L00_
10
26.1620
20
70.6120
30
0.0000
0
SEQEND
0
SOLID
8
L00_
10
47.7520
20
70.8660
30
0.0000
11
46.9900
21
70.6120
31
0.0000
12
46.9900
22
71.1200
32
0.0000
13
46.9900
23
71.1200
33
0.0000
0
POLYLINE
8
L00_
66
1
70
0
0
VERTEX
8
L00_
10
47.7520
20
70.6120
30
0.0000
0
VERTEX
8
L00_
10
47.7520
20
71.1200
30
0.0000
0
SEQEND
0
LINE
8
L00_
10
26.9240
20
70.8660
30
0.0000
11
46.9900
21
70.8660
31
0.0000
0
SOLID
8
L00_
10
26.1620
20
68.3260
30
0.0000
11
26.9240
21
68.5800
31
0.0000
12
26.9240
22
68.0720
32
0.0000
13
26.9240
23
68.0720
33
0.0000
0
POLYLINE
8
L00_
66
1
70
0
0
VERTEX
8
L00_
10
26.1620
20
68.5800
30
0.0000
0
VERTEX
8
L00_
10
26.1620
20
68.0720
30
0.0000
0
SEQEND
0
SOLID
8
L00_
10
47.7520
20
68.3260
30
0.0000
11
46.9900
21
68.0720
31
0.0000
12
46.9900
22
68.5800
32
0.0000
13
46.9900
23
68.5800
33
0.0000
0
POLYLINE
8
L00_
66
1
70
0
0
VERTEX
8
L00_
10
47.7520
20
68.0720
30
0.0000
0
VERTEX
8
L00_
10
47.7520
20
68.5800
30
0.0000
0
SEQEND
0
LINE
8
L00_
6
FCJDASH2
10
26.9240
20
68.3260
30
0.0000
11
46.9900
21
68.3260
31
0.0000
0
SOLID
8
L00_
10
26.1620
20
67.0560
30
0.0000
11
26.9240
21
67.3100
31
0.0000
12
26.9240
22
66.8020
32
0.0000
13
26.9240
23
66.8020
33
0.0000
0
POLYLINE
8
L00_
66
1
70
0
0
VERTEX
8
L00_
10
26.1620
20
67.3100
30
0.0000
0
VERTEX
8
L00_
10
26.1620
20
66.8020
30
0.0000
0
SEQEND
0
SOLID
8
L00_
10
47.7520
20
67.0560
30
0.0000
11
46.9900
21
66.8020
31
0.0000
12
46.9900
22
67.3100
32
0.0000
13
46.9900
23
67.3100
33
0.0000
0
POLYLINE
8
L00_
66
1
70
0
0
VERTEX
8
L00_
10
47.7520
20
66.8020
30
0.0000
0
VERTEX
8
L00_
10
47.7520
20
67.3100
30
0.0000
0
SEQEND
0
LINE
8
L00_
6
FCJDASH3
10
26.9240
20
67.0560
30
0.0000
11
46.9900
21
67.0560
31
0.0000
0
POLYLINE
8
L00_
66
1
70
0
0
VERTEX
8
L00_
10
26.1620
20
65.7860
30
0.0000
0
VERTEX
8
L00_
10
26.9240
20
66.0400
30
0.0000
0
SEQEND
0
POLYLINE
8
L00_
66
1
70
0
0
VERTEX
8
L00_
10
26.1620
20
65.7860
30
0.0000
0
VERTEX
8
L00_
10
26.9240
20
65.5320
30
0.0000
0
SEQEND
0
POLYLINE
8
L00_
66
1
70
0
0
VERTEX
8
L00_
10
47.7520
20
65.7860
30
0.0000
0
VERTEX
8
L00_
10
46.9900
20
65.5320
30
0.0000
0
SEQEND
0
POLYLINE
8
L00_
66
1
70
0
0
VERTEX
8
L00_
10
47.7520
20
65.7860
30
0.0000
0
VERTEX
8
L00_
10
46.9900
20
66.0400
30
0.0000
0
SEQEND
0
LINE
8
L00_
10
26.9240
20
65.7860
30
0.0000
11
46.9900
21
65.7860
31
0.0000
0
POLYLINE
8
L00_
66
1
70
0
0
VERTEX
8
L00_
10
26.1620
20
63.2460
30
0.0000
0
VERTEX
8
L00_
10
26.9240
20
63.5000
30
0.0000
0
SEQEND
0
POLYLINE
8
L00_
66
1
70
0
0
VERTEX
8
L00_
10
26.1620
20
63.2460
30
0.0000
0
VERTEX
8
L00_
10
26.9240
20
62.9920
30
0.0000
0
SEQEND
0
POLYLINE
8
L00_
66
1
70
0
0
VERTEX
8
L00_
10
47.7520
20
63.2460
30
0.0000
0
VERTEX
8
L00_
10
46.9900
20
62.9920
30
0.0000
0
SEQEND
0
POLYLINE
8
L00_
66
1
70
0
0
VERTEX
8
L00_
10
47.7520
20
63.2460
30
0.0000
0
VERTEX
8
L00_
10
46.9900
20
63.5000
30
0.0000
0
SEQEND
0
LINE
8
L00_
6
FCJDASH2
10
26.9240
20
63.2460
30
0.0000
11
46.9900
21
63.2460
31
0.0000
0
POLYLINE
8
L00_
66
1
70
0
0
VERTEX
8
L00_
10
26.1620
20
61.9760
30
0.0000
0
VERTEX
8
L00_
10
26.9240
20
62.2300
30
0.0000
0
SEQEND
0
POLYLINE
8
L00_
66
1
70
0
0
VERTEX
8
L00_
10
26.1620
20
61.9760
30
0.0000
0
VERTEX
8
L00_
10
26.9240
20
61.7220
30
0.0000
0
SEQEND
0
POLYLINE
8
L00_
66
1
70
0
0
VERTEX
8
L00_
10
47.7520
20
61.9760
30
0.0000
0
VERTEX
8
L00_
10
46.9900
20
61.7220
30
0.0000
0
SEQEND
0
POLYLINE
8
L00_
66
1
70
0
0
VERTEX
8
L00_
10
47.7520
20
61.9760
30
0.0000
0
VERTEX
8
L00_
10
46.9900
20
62.2300
30
0.0000
0
SEQEND
0
LINE
8
L00_
6
FCJDASH3
10
26.9240
20
61.9760
30
0.0000
11
46.9900
21
61.9760
31
0.0000
0
POLYLINE
8
L00_
66
1
70
0
0
VERTEX
8
L00_
10
26.1620
20
60.7060
30
0.0000
0
VERTEX
8
L00_
10
26.9240
20
60.9600
30
0.0000
0
SEQEND
0
POLYLINE
8
L00_
66
1
70
0
0
VERTEX
8
L00_
10
26.1620
20
60.7060
30
0.0000
0
VERTEX
8
L00_
10
26.9240
20
60.4520
30
0.0000
0
SEQEND
0
POLYLINE
8
L00_
66
1
70
0
0
VERTEX
8
L00_
10
26.1620
20
60.9600
30
0.0000
0
VERTEX
8
L00_
10
26.1620
20
60.4520
30
0.0000
0
SEQEND
0
POLYLINE
8
L00_
66
1
70
0
0
VERTEX
8
L00_
10
47.7520
20
60.7060
30
0.0000
0
VERTEX
8
L00_
10
46.9900
20
60.4520
30
0.0000
0
SEQEND
0
POLYLINE
8
L00_
66
1
70
0
0
VERTEX
8
L00_
10
47.7520
20
60.7060
30
0.0000
0
VERTEX
8
L00_
10
46.9900
20
60.9600
30
0.0000
0
SEQEND
0
POLYLINE
8
L00_
66
1
70
0
0
VERTEX
8
L00_
10
47.7520
20
60.4520
30
0.0000
0
VERTEX
8
L00_
10
47.7520
20
60.9600
30
0.0000
0
SEQEND
0
LINE
8
L00_
10
26.9240
20
60.7060
30
0.0000
11
46.9900
21
60.7060
31
0.0000
0
POLYLINE
8
L00_
66
1
70
0
0
VERTEX
8
L00_
10
26.1620
20
58.1660
30
0.0000
0
VERTEX
8
L00_
10
26.9240
20
58.4200
30
0.0000
0
SEQEND
0
POLYLINE
8
L00_
66
1
70
0
0
VERTEX
8
L00_
10
26.1620
20
58.1660
30
0.0000
0
VERTEX
8
L00_
10
26.9240
20
57.9120
30
0.0000
0
SEQEND
0
POLYLINE
8
L00_
66
1
70
0
0
VERTEX
8
L00_
10
26.1620
20
58.4200
30
0.0000
0
VERTEX
8
L00_
10
26.1620
20
57.9120
30
0.0000
0
SEQEND
0
POLYLINE
8
L00_
66
1
70
0
0
VERTEX
8
L00_
10
47.7520
20
58.1660
30
0.0000
0
VERTEX
8
L00_
10
46.9900
20
57.9120
30
0.0000
0
SEQEND
0
POLYLINE
8
L00_
66
1
70
0
0
VERTEX
8
L00_
10
47.7520
20
58.1660
30
0.0000
0
VERTEX
8
L00_
10
46.9900
20
58.4200
30
0.0000
0
SEQEND
0
POLYLINE
8
L00_
66
1
70
0
0
VERTEX
8
L00_
10
47.7520
20
57.9120
30
0.0000
0
VERTEX
8
L00_
10
47.7520
20
58.4200
30
0.0000
0
SEQEND
0
LINE
8
L00_
6
FCJDASH2
10
26.9240
20
58.1660
30
0.0000
11
46.9900
21
58.1660
31
0.0000
0
POLYLINE
8
L00_
66
1
70
0
0
VERTEX
8
L00_
10
26.1620
20
56.8960
30
0.0000
0
VERTEX
8
L00_
10
26.9240
20
57.1500
30
0.0000
0
SEQEND
0
POLYLINE
8
L00_
66
1
70
0
0
VERTEX
8
L00_
10
26.1620
20
56.8960
30
0.0000
0
VERTEX
8
L00_
10
26.9240
20
56.6420
30
0.0000
0
SEQEND
0
POLYLINE
8
L00_
66
1
70
0
0
VERTEX
8
L00_
10
26.1620
20
57.1500
30
0.0000
0
VERTEX
8
L00_
10
26.1620
20
56.6420
30
0.0000
0
SEQEND
0
POLYLINE
8
L00_
66
1
70
0
0
VERTEX
8
L00_
10
47.7520
20
56.8960
30
0.0000
0
VERTEX
8
L00_
10
46.9900
20
56.6420
30
0.0000
0
SEQEND
0
POLYLINE
8
L00_
66
1
70
0
0
VERTEX
8
L00_
10
47.7520
20
56.8960
30
0.0000
0
VERTEX
8
L00_
10
46.9900
20
57.1500
30
0.0000
0
SEQEND
0
POLYLINE
8
L00_
66
1
70
0
0
VERTEX
8
L00_
10
47.7520
20
56.6420
30
0.0000
0
VERTEX
8
L00_
10
47.7520
20
57.1500
30
0.0000
0
SEQEND
0
LINE
8
L00_
6
FCJDASH3
10
26.9240
20
56.8960
30
0.0000
11
46.9900
21
56.8960
31
0.0000
0
POLYLINE
8
L00_
66
1
70
0
0
VERTEX
8
L00_
10
4.5720
20
56.8960
30
0.0000
0
VERTEX
8
L00_
10
4.4641
20
57.8007
30
0.0000
0
VERTEX
8
L00_
10
4.5085
20
58.6092
30
0.0000
0
VERTEX
8
L00_
10
4.6863
20
59.3206
30
0.0000
0
VERTEX
8
L00_
10
4.9784
20
59.9338
30
0.0000
0
VERTEX
8
L00_
10
5.3658
20
60.4480
30
0.0000
0
VERTEX
8
L00_
10
5.8293
20
60.8622
30
0.0000
0
VERTEX
8
L00_
10
6.3500
20
61.1754
30
0.0000
0
VERTEX
8
L00_
10
6.9088
20
61.3867
30
0.0000
0
VERTEX
8
L00_
10
7.4867
20
61.4951
30
0.0000
0
VERTEX
8
L00_
10
8.0645
20
61.4998
30
0.0000
0
VERTEX
8
L00_
10
8.6233
20
61.3996
30
0.0000
0
VERTEX
8
L00_
10
9.1440
20
61.1937
30
0.0000
0
VERTEX
8
L00_
10
9.6076
20
60.8811
30
0.0000
0
VERTEX
8
L00_
10
9.9949
20
60.4609
30
0.0000
0
VERTEX
8
L00_
10
10.2870
20
59.9321
30
0.0000
0
VERTEX
8
L00_
10
10.4648
20
59.2938
30
0.0000
0
VERTEX
8
L00_
10
10.5093
20
58.5449
30
0.0000
0
VERTEX
8
L00_
10
10.4013
20
57.6847
30
0.0000
0
VERTEX
8
L00_
10
10.1219
20
56.7120
30
0.0000
0
VERTEX
8
L00_
10
9.6520
20
55.6260
30
0.0000
0
SEQEND
0
POLYLINE
8
L00_
6
FCJDASH2
66
1
70
0
0
VERTEX
8
L00_
10
7.1120
20
56.8960
30
0.0000
0
VERTEX
8
L00_
10
7.0040
20
57.8007
30
0.0000
0
VERTEX
8
L00_
10
7.0485
20
58.6092
30
0.0000
0
VERTEX
8
L00_
10
7.2263
20
59.3206
30
0.0000
0
VERTEX
8
L00_
10
7.5184
20
59.9338
30
0.0000
0
VERTEX
8
L00_
10
7.9058
20
60.4480
30
0.0000
0
VERTEX
8
L00_
10
8.3693
20
60.8622
30
0.0000
0
VERTEX
8
L00_
10
8.8900
20
61.1754
30
0.0000
0
VERTEX
8
L00_
10
9.4488
20
61.3867
30
0.0000
0
VERTEX
8
L00_
10
10.0267
20
61.4951
30
0.0000
0
VERTEX
8
L00_
10
10.6045
20
61.4998
30
0.0000
0
VERTEX
8
L00_
10
11.1633
20
61.3996
30
0.0000
0
VERTEX
8
L00_
10
11.6840
20
61.1937
30
0.0000
0
VERTEX
8
L00_
10
12.1475
20
60.8811
30
0.0000
0
VERTEX
8
L00_
10
12.5349
20
60.4609
30
0.0000
0
VERTEX
8
L00_
10
12.8270
20
59.9321
30
0.0000
0
VERTEX
8
L00_
10
13.0048
20
59.2938
30
0.0000
0
VERTEX
8
L00_
10
13.0493
20
58.5449
30
0.0000
0
VERTEX
8
L00_
10
12.9413
20
57.6847
30
0.0000
0
VERTEX
8
L00_
10
12.6619
20
56.7120
30
0.0000
0
VERTEX
8
L00_
10
12.1920
20
55.6260
30
0.0000
0
SEQEND
0
POLYLINE
8
L00_
6
FCJDASH3
66
1
70
0
0
VERTEX
8
L00_
10
8.3820
20
56.8960
30
0.0000
0
VERTEX
8
L00_
10
8.2740
20
57.8007
30
0.0000
0
VERTEX
8
L00_
10
8.3185
20
58.6092
30
0.0000
0
VERTEX
8
L00_
10
8.4963
20
59.3206
30
0.0000
0
VERTEX
8
L00_
10
8.7884
20
59.9338
30
0.0000
0
VERTEX
8
L00_
10
9.1758
20
60.4480
30
0.0000
0
VERTEX
8
L00_
10
9.6393
20
60.8622
30
0.0000
0
VERTEX
8
L00_
10
10.1600
20
61.1754
30
0.0000
0
VERTEX
8
L00_
10
10.7188
20
61.3867
30
0.0000
0
VERTEX
8
L00_
10
11.2967
20
61.4951
30
0.0000
0
VERTEX
8
L00_
10
11.8745
20
61.4998
30
0.0000
0
VERTEX
8
L00_
10
12.4333
20
61.3996
30
0.0000
0
VERTEX
8
L00_
10
12.9540
20
61.1937
30
0.0000
0
VERTEX
8
L00_
10
13.4176
20
60.8811
30
0.0000
0
VERTEX
8
L00_
10
13.8049
20
60.4609
30
0.0000
0
VERTEX
8
L00_
10
14.0970
20
59.9321
30
0.0000
0
VERTEX
8
L00_
10
14.2748
20
59.2938
30
0.0000
0
VERTEX
8
L00_
10
14.3193
20
58.5449
30
0.0000
0
VERTEX
8
L00_
10
14.2113
20
57.6847
30
0.0000
0
VERTEX
8
L00_
10
13.9319
20
56.7120
30
0.0000
0
VERTEX
8
L00_
10
13.4620
20
55.6260
30
0.0000
0
SEQEND
0
POLYLINE
8
L00_
6
FCJDASH4
66
1
70
0
0
VERTEX
8
L00_
10
9.6520
20
56.8960
30
0.0000
0
VERTEX
8
L00_
10
9.5440
20
57.8007
30
0.0000
0
VERTEX
8
L00_
10
9.5885
20
58.6092
30
0.0000
0
VERTEX
8
L00_
10
9.7663
20
59.3206
30
0.0000
0
VERTEX
8
L00_
10
10.0584
20
59.9338
30
0.0000
0
VERTEX
8
L00_
10
10.4458
20
60.4480
30
0.0000
0
VERTEX
8
L00_
10
10.9093
20
60.8622
30
0.0000
0
VERTEX
8
L00_
10
11.4300
20
61.1754
30
0.0000
0
VERTEX
8
L00_
10
11.9888
20
61.3867
30
0.0000
0
VERTEX
8
L00_
10
12.5667
20
61.4951
30
0.0000
0
VERTEX
8
L00_
10
13.1445
20
61.4998
30
0.0000
0
VERTEX
8
L00_
10
13.7033
20
61.3996
30
0.0000
0
VERTEX
8
L00_
10
14.2240
20
61.1937
30
0.0000
0
VERTEX
8
L00_
10
14.6876
20
60.8811
30
0.0000
0
VERTEX
8
L00_
10
15.0749
20
60.4609
30
0.0000
0
VERTEX
8
L00_
10
15.3670
20
59.9321
30
0.0000
0
VERTEX
8
L00_
10
15.5448
20
59.2938
30
0.0000
0
VERTEX
8
L00_
10
15.5893
20
58.5449
30
0.0000
0
VERTEX
8
L00_
10
15.4813
20
57.6847
30
0.0000
0
VERTEX
8
L00_
10
15.2019
20
56.7120
30
0.0000
0
VERTEX
8
L00_
10
14.7320
20
55.6260
30
0.0000
0
SEQEND
0
POLYLINE
8
L00_
66
1
70
0
40
0.5080
41
0.5080
0
VERTEX
8
L00_
10
18.5420
20
61.9760
30
0.0000
0
VERTEX
8
L00_
10
18.5420
20
61.9760
30
0.0000
0
SEQEND
0
POLYLINE
8
L00_
66
1
70
0
40
0.5080
41
0.5080
0
VERTEX
8
L00_
10
18.5420
20
60.7060
30
0.0000
0
VERTEX
8
L00_
10
18.5420
20
60.7060
30
0.0000
0
SEQEND
0
POLYLINE
8
L00_
66
1
70
0
40
0.5080
41
0.5080
0
VERTEX
8
L00_
10
21.0820
20
61.9760
30
0.0000
0
VERTEX
8
L00_
10
21.0820
20
61.9760
30
0.0000
0
SEQEND
0
POLYLINE
8
L00_
66
1
70
0
40
0.5080
41
0.5080
0
VERTEX
8
L00_
10
21.0820
20
60.7060
30
0.0000
0
VERTEX
8
L00_
10
21.0820
20
60.7060
30
0.0000
0
SEQEND
0
POLYLINE
8
L00_
66
1
70
0
40
0.5080
41
0.5080
0
VERTEX
8
L00_
10
21.0820
20
59.4360
30
0.0000
0
VERTEX
8
L00_
10
21.0820
20
59.4360
30
0.0000
0
SEQEND
0
POLYLINE
8
L00_
66
1
70
0
40
0.5080
41
0.5080
0
VERTEX
8
L00_
10
18.5420
20
59.4360
30
0.0000
0
VERTEX
8
L00_
10
18.5420
20
59.4360
30
0.0000
0
SEQEND
0
POLYLINE
8
L00_
66
1
70
0
40
1.2700
41
1.2700
0
VERTEX
8
L00_
10
3.3020
20
49.2760
30
0.0000
0
VERTEX
8
L00_
10
23.6220
20
49.2760
30
0.0000
0
SEQEND
0
POLYLINE
8
L00_
66
1
70
0
40
1.5240
41
1.5240
0
VERTEX
8
L00_
10
3.3020
20
46.7360
30
0.0000
0
VERTEX
8
L00_
10
23.6220
20
46.7360
30
0.0000
0
SEQEND
0
POLYLINE
8
L00_
66
1
70
0
40
0.7620
41
0.7620
0
VERTEX
8
L00_
10
3.3020
20
54.3560
30
0.0000
0
VERTEX
8
L00_
10
23.6220
20
54.3560
30
0.0000
0
SEQEND
0
POLYLINE
8
L00_
66
1
70
0
40
1.0160
41
1.0160
0
VERTEX
8
L00_
10
3.3020
20
51.8160
30
0.0000
0
VERTEX
8
L00_
10
23.6220
20
51.8160
30
0.0000
0
SEQEND
0
SOLID
8
L00_
10
26.1620
20
55.6260
30
0.0000
11
28.7020
21
55.6260
31
0.0000
12
26.1620
22
53.0860
32
0.0000
13
28.7020
23
53.0860
33
0.0000
0
POLYLINE
8
L00_
66
1
70
0
40
2.5400
41
2.5400
0
VERTEX
8
L00_
10
4.5720
20
42.9260
30
0.0000
0
VERTEX
8
L00_
10
4.5720
20
42.9260
30
0.0000
0
SEQEND
0
SOLID
8
L00_
10
7.1120
20
44.1960
30
0.0000
11
9.6520
21
44.1960
31
0.0000
12
7.1120
22
41.6560
32
0.0000
13
9.6520
23
41.6560
33
0.0000
0
SOLID
8
L00_
10
10.9220
20
44.1960
30
0.0000
11
13.4620
21
44.1960
31
0.0000
12
10.9220
22
41.6560
32
0.0000
13
13.4620
23
41.6560
33
0.0000
0
SOLID
8
L00_
10
33.7820
20
45.4660
30
0.0000
11
33.1304
21
44.9963
31
0.0000
12
32.9789
22
45.4812
32
0.0000
13
32.9789
23
45.4812
33
0.0000
0
POLYLINE
8
L00_
66
1
70
0
0
VERTEX
8
L00_
10
33.0547
20
45.2387
30
0.0000
0
VERTEX
8
L00_
10
30.4151
20
44.3210
30
0.0000
0
VERTEX
8
L00_
10
28.3356
20
43.4144
30
0.0000
0
VERTEX
8
L00_
10
26.7588
20
42.5332
30
0.0000
0
VERTEX
8
L00_
10
25.6271
20
41.6920
30
0.0000
0
VERTEX
8
L00_
10
24.8828
20
40.9053
30
0.0000
0
VERTEX
8
L00_
10
24.4685
20
40.1874
30
0.0000
0
VERTEX
8
L00_
10
24.3267
20
39.5529
30
0.0000
0
VERTEX
8
L00_
10
24.3996
20
39.0161
30
0.0000
0
VERTEX
8
L00_
10
24.6299
20
38.5916
30
0.0000
0
VERTEX
8
L00_
10
24.9598
20
38.2938
30
0.0000
0
VERTEX
8
L00_
10
25.3320
20
38.1372
30
0.0000
0
VERTEX
8
L00_
10
25.6887
20
38.1363
30
0.0000
0
VERTEX
8
L00_
10
25.9725
20
38.3054
30
0.0000
0
VERTEX
8
L00_
10
26.1259
20
38.6590
30
0.0000
0
VERTEX
8
L00_
10
26.0911
20
39.2117
30
0.0000
0
VERTEX
8
L00_
10
25.8107
20
39.9778
30
0.0000
0
VERTEX
8
L00_
10
25.2272
20
40.9718
30
0.0000
0
VERTEX
8
L00_
10
24.2829
20
42.2082
30
0.0000
0
VERTEX
8
L00_
10
22.9204
20
43.7015
30
0.0000
0
VERTEX
8
L00_
10
21.0820
20
45.4660
30
0.0000
0
SEQEND
0
SOLID
8
L00_
10
24.8920
20
45.4660
30
0.0000
11
25.6267
21
45.1414
31
0.0000
12
25.2850
22
44.7655
32
0.0000
13
25.2850
23
44.7655
33
0.0000
0
POLYLINE
8
L00_
66
1
70
0
0
VERTEX
8
L00_
10
37.5920
20
45.4660
30
0.0000
0
VERTEX
8
L00_
10
34.8487
20
44.5158
30
0.0000
0
VERTEX
8
L00_
10
32.6764
20
43.5795
30
0.0000
0
VERTEX
8
L00_
10
31.0174
20
42.6711
30
0.0000
0
VERTEX
8
L00_
10
29.8140
20
41.8043
30
0.0000
0
VERTEX
8
L00_
10
29.0085
20
40.9931
30
0.0000
0
VERTEX
8
L00_
10
28.5432
20
40.2515
30
0.0000
0
VERTEX
8
L00_
10
28.3606
20
39.5933
30
0.0000
0
VERTEX
8
L00_
10
28.4028
20
39.0324
30
0.0000
0
VERTEX
8
L00_
10
28.6123
20
38.5827
30
0.0000
0
VERTEX
8
L00_
10
28.9312
20
38.2582
30
0.0000
0
VERTEX
8
L00_
10
29.3021
20
38.0727
30
0.0000
0
VERTEX
8
L00_
10
29.6671
20
38.0401
30
0.0000
0
VERTEX
8
L00_
10
29.9686
20
38.1743
30
0.0000
0
VERTEX
8
L00_
10
30.1489
20
38.4893
30
0.0000
0
VERTEX
8
L00_
10
30.1503
20
38.9990
30
0.0000
0
VERTEX
8
L00_
10
29.9152
20
39.7172
30
0.0000
0
VERTEX
8
L00_
10
29.3859
20
40.6578
30
0.0000
0
VERTEX
8
L00_
10
28.5047
20
41.8348
30
0.0000
0
VERTEX
8
L00_
10
27.2139
20
43.2620
30
0.0000
0
VERTEX
8
L00_
10
25.4558
20
44.9534
30
0.0000
0
SEQEND
0
SOLID
8
L00_
10
0.7620
20
35.3060
30
0.0000
11
12.1920
21
39.1160
31
0.0000
12
13.4620
22
36.5760
32
0.0000
13
0.7620
23
30.2260
33
0.0000
0
POLYLINE
8
L00_
66
1
70
1
0
VERTEX
8
L00_
10
10.9220
20
35.3060
30
0.0000
0
VERTEX
8
L00_
10
22.3520
20
39.1160
30
0.0000
0
VERTEX
8
L00_
10
10.9220
20
30.2260
30
0.0000
0
VERTEX
8
L00_
10
23.6220
20
36.5760
30
0.0000
0
SEQEND
0
POLYLINE
8
L00_
6
FCJDASH2
66
1
70
1
0
VERTEX
8
L00_
10
31.2420
20
35.3060
30
0.0000
0
VERTEX
8
L00_
10
42.6720
20
39.1160
30
0.0000
0
VERTEX
8
L00_
10
31.2420
20
30.2260
30
0.0000
0
VERTEX
8
L00_
10
43.9420
20
36.5760
30
0.0000
0
SEQEND
0
POLYLINE
8
L00_
6
FCJDASH3
66
1
70
1
0
VERTEX
8
L00_
10
41.4020
20
35.3060
30
0.0000
0
VERTEX
8
L00_
10
52.8320
20
39.1160
30
0.0000
0
VERTEX
8
L00_
10
41.4020
20
30.2260
30
0.0000
0
VERTEX
8
L00_
10
54.1020
20
36.5760
30
0.0000
0
SEQEND
0
POLYLINE
8
L00_
6
FCJDASH4
66
1
70
1
0
VERTEX
8
L00_
10
51.5620
20
35.3060
30
0.0000
0
VERTEX
8
L00_
10
62.9920
20
39.1160
30
0.0000
0
VERTEX
8
L00_
10
51.5620
20
30.2260
30
0.0000
0
VERTEX
8
L00_
10
64.2620
20
36.5760
30
0.0000
0
SEQEND
0
TEXT
8
L00_
10
56.6420
20
73.8632
30
0.0000
40
1.0160
1
Text
7
STANDARD
41
1.2857
71
0
0
TEXT
8
L00_
10
56.6420
20
73.8632
30
0.0000
40
1.0160
1
Text
7
STANDARD
41
1.2857
71
2
0
TEXT
8
L00_
10
56.6420
20
71.3232
30
0.0000
40
1.0160
1
Text
7
STANDARD
41
3.4286
71
0
0
TEXT
8
L00_
10
56.6420
20
71.3232
30
0.0000
40
1.0160
1
Text
7
STANDARD
41
3.4286
71
2
0
TEXT
8
L00_
10
56.6420
20
69.2404
30
0.0000
40
2.0320
1
Text
7
STANDARD
41
0.6429
71
0
0
TEXT
8
L00_
10
56.6420
20
69.2404
30
0.0000
40
2.0320
1
Text
7
STANDARD
41
0.6429
71
2
0
TEXT
8
L00_
10
56.6420
20
66.7004
30
0.0000
40
2.0320
1
Text
7
STANDARD
41
0.6429
71
0
0
TEXT
8
L00_
10
57.9120
20
65.4304
30
0.0000
40
2.0320
1
Text
7
STANDARD
50
-20.0000
41
0.6429
71
0
0
TEXT
8
L00_
10
59.1820
20
64.1604
30
0.0000
40
2.0320
1
Text
7
STANDARD
50
-40.0000
41
0.6429
71
0
0
TEXT
8
L00_
10
60.4520
20
62.8904
30
0.0000
40
2.0320
1
Text
7
STANDARD
50
-60.0000
41
0.6429
71
0
0
TEXT
8
L00_
10
61.7220
20
61.6204
30
0.0000
40
2.0320
1
Text
7
STANDARD
50
-80.0000
41
0.6429
71
0
0
TEXT
8
L00_
10
62.9920
20
60.3504
30
0.0000
40
2.0320
1
Text
7
STANDARD
50
-90.0000
41
0.6429
71
0
0
TEXT
8
L00_
10
55.3720
20
65.4304
30
0.0000
40
2.0320
1
Text
7
STANDARD
50
20.0000
41
0.6429
71
2
0
TEXT
8
L00_
10
54.1020
20
64.1604
30
0.0000
40
2.0320
1
Text
7
STANDARD
50
40.0000
41
0.6429
71
2
0
TEXT
8
L00_
10
52.8320
20
62.8904
30
0.0000
40
2.0320
1
Text
7
STANDARD
50
60.0000
41
0.6429
71
2
0
TEXT
8
L00_
10
51.5620
20
61.6204
30
0.0000
40
2.0320
1
Text
7
STANDARD
50
80.0000
41
0.6429
71
2
0
TEXT
8
L00_
10
56.6420
20
66.7004
30
0.0000
40
2.0320
1
Text
7
STANDARD
41
0.6429
71
2
0
TEXT
8
L00_
10
50.2920
20
60.3504
30
0.0000
40
2.0320
1
Text
7
STANDARD
50
90.0000
41
0.6429
71
2
0
POLYLINE
8
L00_
66
1
70
1
0
VERTEX
8
L00_
10
55.3720
20
60.7060
30
0.0000
0
VERTEX
8
L00_
10
55.3431
20
60.4855
30
0.0000
0
VERTEX
8
L00_
10
55.2571
20
60.2716
30
0.0000
0
VERTEX
8
L00_
10
55.1168
20
60.0710
30
0.0000
0
VERTEX
8
L00_
10
54.9263
20
59.8897
30
0.0000
0
VERTEX
8
L00_
10
54.6915
20
59.7331
30
0.0000
0
VERTEX
8
L00_
10
54.4195
20
59.6061
30
0.0000
0
VERTEX
8
L00_
10
54.1185
20
59.5126
30
0.0000
0
VERTEX
8
L00_
10
53.7978
20
59.4553
30
0.0000
0
VERTEX
8
L00_
10
53.4670
20
59.4360
30
0.0000
0
VERTEX
8
L00_
10
53.1362
20
59.4553
30
0.0000
0
VERTEX
8
L00_
10
52.8155
20
59.5126
30
0.0000
0
VERTEX
8
L00_
10
52.5145
20
59.6061
30
0.0000
0
VERTEX
8
L00_
10
52.2425
20
59.7331
30
0.0000
0
VERTEX
8
L00_
10
52.0077
20
59.8897
30
0.0000
0
VERTEX
8
L00_
10
51.8172
20
60.0710
30
0.0000
0
VERTEX
8
L00_
10
51.6769
20
60.2716
30
0.0000
0
VERTEX
8
L00_
10
51.5909
20
60.4855
30
0.0000
0
VERTEX
8
L00_
10
51.5620
20
60.7060
30
0.0000
0
VERTEX
8
L00_
10
51.5909
20
60.9265
30
0.0000
0
VERTEX
8
L00_
10
51.6769
20
61.1404
30
0.0000
0
VERTEX
8
L00_
10
51.8172
20
61.3410
30
0.0000
0
VERTEX
8
L00_
10
52.0077
20
61.5223
30
0.0000
0
VERTEX
8
L00_
10
52.2425
20
61.6789
30
0.0000
0
VERTEX
8
L00_
10
52.5145
20
61.8059
30
0.0000
0
VERTEX
8
L00_
10
52.8155
20
61.8994
30
0.0000
0
VERTEX
8
L00_
10
53.1362
20
61.9567
30
0.0000
0
VERTEX
8
L00_
10
53.4670
20
61.9760
30
0.0000
0
VERTEX
8
L00_
10
53.7978
20
61.9567
30
0.0000
0
VERTEX
8
L00_
10
54.1185
20
61.8994
30
0.0000
0
VERTEX
8
L00_
10
54.4195
20
61.8059
30
0.0000
0
VERTEX
8
L00_
10
54.6915
20
61.6789
30
0.0000
0
VERTEX
8
L00_
10
54.9263
20
61.5223
30
0.0000
0
VERTEX
8
L00_
10
55.1168
20
61.3410
30
0.0000
0
VERTEX
8
L00_
10
55.2571
20
61.1404
30
0.0000
0
VERTEX
8
L00_
10
55.3431
20
60.9265
30
0.0000
0
SEQEND
0
POLYLINE
8
L00_
66
1
70
1
0
VERTEX
8
L00_
10
61.7220
20
60.7060
30
0.0000
0
VERTEX
8
L00_
10
61.6931
20
60.4855
30
0.0000
0
VERTEX
8
L00_
10
61.6071
20
60.2716
30
0.0000
0
VERTEX
8
L00_
10
61.4668
20
60.0710
30
0.0000
0
VERTEX
8
L00_
10
61.2763
20
59.8897
30
0.0000
0
VERTEX
8
L00_
10
61.0415
20
59.7331
30
0.0000
0
VERTEX
8
L00_
10
60.7695
20
59.6061
30
0.0000
0
VERTEX
8
L00_
10
60.4685
20
59.5126
30
0.0000
0
VERTEX
8
L00_
10
60.1478
20
59.4553
30
0.0000
0
VERTEX
8
L00_
10
59.8170
20
59.4360
30
0.0000
0
VERTEX
8
L00_
10
59.4862
20
59.4553
30
0.0000
0
VERTEX
8
L00_
10
59.1655
20
59.5126
30
0.0000
0
VERTEX
8
L00_
10
58.8645
20
59.6061
30
0.0000
0
VERTEX
8
L00_
10
58.5925
20
59.7331
30
0.0000
0
VERTEX
8
L00_
10
58.3577
20
59.8897
30
0.0000
0
VERTEX
8
L00_
10
58.1672
20
60.0710
30
0.0000
0
VERTEX
8
L00_
10
58.0269
20
60.2716
30
0.0000
0
VERTEX
8
L00_
10
57.9409
20
60.4855
30
0.0000
0
VERTEX
8
L00_
10
57.9120
20
60.7060
30
0.0000
0
VERTEX
8
L00_
10
57.9409
20
60.9265
30
0.0000
0
VERTEX
8
L00_
10
58.0269
20
61.1404
30
0.0000
0
VERTEX
8
L00_
10
58.1672
20
61.3410
30
0.0000
0
VERTEX
8
L00_
10
58.3577
20
61.5223
30
0.0000
0
VERTEX
8
L00_
10
58.5925
20
61.6789
30
0.0000
0
VERTEX
8
L00_
10
58.8645
20
61.8059
30
0.0000
0
VERTEX
8
L00_
10
59.1655
20
61.8994
30
0.0000
0
VERTEX
8
L00_
10
59.4862
20
61.9567
30
0.0000
0
VERTEX
8
L00_
10
59.8170
20
61.9760
30
0.0000
0
VERTEX
8
L00_
10
60.1478
20
61.9567
30
0.0000
0
VERTEX
8
L00_
10
60.4685
20
61.8994
30
0.0000
0
VERTEX
8
L00_
10
60.7695
20
61.8059
30
0.0000
0
VERTEX
8
L00_
10
61.0415
20
61.6789
30
0.0000
0
VERTEX
8
L00_
10
61.2763
20
61.5223
30
0.0000
0
VERTEX
8
L00_
10
61.4668
20
61.3410
30
0.0000
0
VERTEX
8
L00_
10
61.6071
20
61.1404
30
0.0000
0
VERTEX
8
L00_
10
61.6931
20
60.9265
30
0.0000
0
SEQEND
0
CIRCLE
8
L00_
10
56.6420
20
58.1660
30
0.0000
40
1.2700
0
POLYLINE
8
L00_
66
1
70
0
0
VERTEX
8
L00_
10
52.8320
20
56.8960
30
0.0000
0
VERTEX
8
L00_
10
53.2130
20
56.5341
30
0.0000
0
VERTEX
8
L00_
10
53.5940
20
56.2102
30
0.0000
0
VERTEX
8
L00_
10
53.9750
20
55.9245
30
0.0000
0
VERTEX
8
L00_
10
54.3560
20
55.6768
30
0.0000
0
VERTEX
8
L00_
10
54.7370
20
55.4673
30
0.0000
0
VERTEX
8
L00_
10
55.1180
20
55.2958
30
0.0000
0
VERTEX
8
L00_
10
55.4990
20
55.1625
30
0.0000
0
VERTEX
8
L00_
10
55.8800
20
55.0672
30
0.0000
0
VERTEX
8
L00_
10
56.2610
20
55.0101
30
0.0000
0
VERTEX
8
L00_
10
56.6420
20
54.9910
30
0.0000
0
VERTEX
8
L00_
10
57.0230
20
55.0101
30
0.0000
0
VERTEX
8
L00_
10
57.4040
20
55.0672
30
0.0000
0
VERTEX
8
L00_
10
57.7850
20
55.1625
30
0.0000
0
VERTEX
8
L00_
10
58.1660
20
55.2958
30
0.0000
0
VERTEX
8
L00_
10
58.5470
20
55.4673
30
0.0000
0
VERTEX
8
L00_
10
58.9280
20
55.6768
30
0.0000
0
VERTEX
8
L00_
10
59.3090
20
55.9245
30
0.0000
0
VERTEX
8
L00_
10
59.6900
20
56.2102
30
0.0000
0
VERTEX
8
L00_
10
60.0710
20
56.5341
30
0.0000
0
VERTEX
8
L00_
10
60.4520
20
56.8960
30
0.0000
0
SEQEND
0
POLYLINE
8
L00_
66
1
70
0
0
VERTEX
8
L00_
10
49.0220
20
61.9760
30
0.0000
0
VERTEX
8
L00_
10
49.2954
20
59.9943
30
0.0000
0
VERTEX
8
L00_
10
49.7230
20
58.2384
30
0.0000
0
VERTEX
8
L00_
10
50.2879
20
56.7053
30
0.0000
0
VERTEX
8
L00_
10
50.9727
20
55.3923
30
0.0000
0
VERTEX
8
L00_
10
51.7604
20
54.2965
30
0.0000
0
VERTEX
8
L00_
10
52.6339
20
53.4149
30
0.0000
0
VERTEX
8
L00_
10
53.5759
20
52.7448
30
0.0000
0
VERTEX
8
L00_
10
54.5694
20
52.2834
30
0.0000
0
VERTEX
8
L00_
10
55.5971
20
52.0276
30
0.0000
0
VERTEX
8
L00_
10
56.6420
20
51.9748
30
0.0000
0
VERTEX
8
L00_
10
57.6869
20
52.1219
30
0.0000
0
VERTEX
8
L00_
10
58.7146
20
52.4662
30
0.0000
0
VERTEX
8
L00_
10
59.7081
20
53.0049
30
0.0000
0
VERTEX
8
L00_
10
60.6501
20
53.7350
30
0.0000
0
VERTEX
8
L00_
10
61.5236
20
54.6537
30
0.0000
0
VERTEX
8
L00_
10
62.3113
20
55.7581
30
0.0000
0
VERTEX
8
L00_
10
62.9961
20
57.0454
30
0.0000
0
VERTEX
8
L00_
10
63.5610
20
58.5127
30
0.0000
0
VERTEX
8
L00_
10
63.9886
20
60.1572
30
0.0000
0
VERTEX
8
L00_
10
64.2620
20
61.9760
30
0.0000
0
SEQEND
0
POLYLINE
8
L00_
66
1
70
0
40
1.2700
41
1.2700
0
VERTEX
8
L00_
10
53.4670
20
60.0710
30
0.0000
0
VERTEX
8
L00_
10
53.4670
20
60.0710
30
0.0000
0
SEQEND
0
POLYLINE
8
L00_
66
1
70
0
40
1.2700
41
1.2700
0
VERTEX
8
L00_
10
59.8170
20
60.0710
30
0.0000
0
VERTEX
8
L00_
10
59.8170
20
60.0710
30
0.0000
0
SEQEND
0
TEXT
8
L00_
10
59.1820
20
43.3832
30
0.0000
40
1.0160
1
Text
7
STANDARD
41
1.2857
71
2
0
TEXT
8
L00_
10
59.1820
20
43.3832
30
0.0000
40
1.0160
1
Text
7
STANDARD
50
90.0000
41
1.2857
71
2
0
TEXT
8
L00_
10
59.1820
20
43.3832
30
0.0000
40
1.0160
1
Text
7
STANDARD
50
180.0000
41
1.2857
71
2
0
TEXT
8
L00_
10
59.1820
20
43.3832
30
0.0000
40
1.0160
1
Text
7
STANDARD
50
270.0000
41
1.2857
71
2
0
LINE
8
L00_
10
43.9420
20
44.1960
30
0.0000
11
44.2948
21
44.0399
31
0.0000
0
LINE
8
L00_
10
44.2948
20
44.0399
30
0.0000
11
44.6467
21
43.8848
31
0.0000
0
LINE
8
L00_
10
44.6467
20
43.8848
30
0.0000
11
44.9968
21
43.7319
31
0.0000
0
LINE
8
L00_
10
44.9968
20
43.7319
30
0.0000
11
45.3441
21
43.5823
31
0.0000
0
LINE
8
L00_
10
45.3441
20
43.5823
30
0.0000
11
45.6877
21
43.4369
31
0.0000
0
LINE
8
L00_
10
45.6877
20
43.4369
30
0.0000
11
46.0267
21
43.2969
31
0.0000
0
LINE
8
L00_
10
46.0267
20
43.2969
30
0.0000
11
46.3602
21
43.1634
31
0.0000
0
LINE
8
L00_
10
46.3602
20
43.1634
30
0.0000
11
46.6873
21
43.0374
31
0.0000
0
LINE
8
L00_
10
46.6873
20
43.0374
30
0.0000
11
47.0070
21
42.9201
31
0.0000
0
LINE
8
L00_
10
47.0070
20
42.9201
30
0.0000
11
47.3183
21
42.8124
31
0.0000
0
LINE
8
L00_
10
47.3183
20
42.8124
30
0.0000
11
47.6205
21
42.7155
31
0.0000
0
LINE
8
L00_
10
47.6205
20
42.7155
30
0.0000
11
47.9126
21
42.6305
31
0.0000
0
LINE
8
L00_
10
47.9126
20
42.6305
30
0.0000
11
48.1936
21
42.5584
31
0.0000
0
LINE
8
L00_
10
48.1936
20
42.5584
30
0.0000
11
48.4626
21
42.5002
31
0.0000
0
LINE
8
L00_
10
48.4626
20
42.5002
30
0.0000
11
48.7188
21
42.4572
31
0.0000
0
LINE
8
L00_
10
48.7188
20
42.4572
30
0.0000
11
48.9611
21
42.4303
31
0.0000
0
LINE
8
L00_
10
48.9611
20
42.4303
30
0.0000
11
49.1887
21
42.4206
31
0.0000
0
LINE
8
L00_
10
49.1887
20
42.4206
30
0.0000
11
49.4006
21
42.4293
31
0.0000
0
LINE
8
L00_
10
49.4006
20
42.4293
30
0.0000
11
49.5960
21
42.4573
31
0.0000
0
LINE
8
L00_
10
49.5960
20
42.4573
30
0.0000
11
49.7739
21
42.5058
31
0.0000
0
LINE
8
L00_
10
49.7739
20
42.5058
30
0.0000
11
49.9333
21
42.5759
31
0.0000
0
LINE
8
L00_
10
49.9333
20
42.5759
30
0.0000
11
50.0735
21
42.6685
31
0.0000
0
LINE
8
L00_
10
50.0735
20
42.6685
30
0.0000
11
50.1933
21
42.7849
31
0.0000
0
LINE
8
L00_
10
50.1933
20
42.7849
30
0.0000
11
50.2920
21
42.9260
31
0.0000
0
LINE
8
L00_
10
50.2920
20
42.9260
30
0.0000
11
50.3691
21
43.0924
31
0.0000
0
LINE
8
L00_
10
50.3691
20
43.0924
30
0.0000
11
50.4266
21
43.2827
31
0.0000
0
LINE
8
L00_
10
50.4266
20
43.2827
30
0.0000
11
50.4667
21
43.4946
31
0.0000
0
LINE
8
L00_
10
50.4667
20
43.4946
30
0.0000
11
50.4919
21
43.7261
31
0.0000
0
LINE
8
L00_
10
50.4919
20
43.7261
30
0.0000
11
50.5047
21
43.9751
31
0.0000
0
LINE
8
L00_
10
50.5047
20
43.9751
30
0.0000
11
50.5073
21
44.2397
31
0.0000
0
LINE
8
L00_
10
50.5073
20
44.2397
30
0.0000
11
50.5022
21
44.5176
31
0.0000
0
LINE
8
L00_
10
50.5022
20
44.5176
30
0.0000
11
50.4918
21
44.8068
31
0.0000
0
LINE
8
L00_
10
50.4918
20
44.8068
30
0.0000
11
50.4786
21
45.1052
31
0.0000
0
LINE
8
L00_
10
50.4786
20
45.1052
30
0.0000
11
50.4648
21
45.4108
31
0.0000
0
LINE
8
L00_
10
50.4648
20
45.4108
30
0.0000
11
50.4529
21
45.7214
31
0.0000
0
LINE
8
L00_
10
50.4529
20
45.7214
30
0.0000
11
50.4453
21
46.0351
31
0.0000
0
LINE
8
L00_
10
50.4453
20
46.0351
30
0.0000
11
50.4443
21
46.3496
31
0.0000
0
LINE
8
L00_
10
50.4443
20
46.3496
30
0.0000
11
50.4525
21
46.6630
31
0.0000
0
LINE
8
L00_
10
50.4525
20
46.6630
30
0.0000
11
50.4722
21
46.9732
31
0.0000
0
LINE
8
L00_
10
50.4722
20
46.9732
30
0.0000
11
50.5057
21
47.2780
31
0.0000
0
LINE
8
L00_
10
50.5057
20
47.2780
30
0.0000
11
50.5556
21
47.5755
31
0.0000
0
LINE
8
L00_
10
50.5556
20
47.5755
30
0.0000
11
50.6241
21
47.8634
31
0.0000
0
LINE
8
L00_
10
50.6241
20
47.8634
30
0.0000
11
50.7137
21
48.1399
31
0.0000
0
LINE
8
L00_
10
50.7137
20
48.1399
30
0.0000
11
50.8268
21
48.4026
31
0.0000
0
LINE
8
L00_
10
50.8268
20
48.4026
30
0.0000
11
50.9658
21
48.6497
31
0.0000
0
LINE
8
L00_
10
50.9658
20
48.6497
30
0.0000
11
51.1330
21
48.8790
31
0.0000
0
LINE
8
L00_
10
51.1330
20
48.8790
30
0.0000
11
51.3310
21
49.0885
31
0.0000
0
LINE
8
L00_
10
51.3310
20
49.0885
30
0.0000
11
51.5620
21
49.2760
31
0.0000
0
LINE
8
L00_
10
51.5620
20
49.2760
30
0.0000
11
51.8277
21
49.4399
31
0.0000
0
LINE
8
L00_
10
51.8277
20
49.4399
30
0.0000
11
52.1262
21
49.5805
31
0.0000
0
LINE
8
L00_
10
52.1262
20
49.5805
30
0.0000
11
52.4550
21
49.6983
31
0.0000
0
LINE
8
L00_
10
52.4550
20
49.6983
30
0.0000
11
52.8115
21
49.7939
31
0.0000
0
LINE
8
L00_
10
52.8115
20
49.7939
30
0.0000
11
53.1929
21
49.8679
31
0.0000
0
LINE
8
L00_
10
53.1929
20
49.8679
30
0.0000
11
53.5968
21
49.9211
31
0.0000
0
LINE
8
L00_
10
53.5968
20
49.9211
30
0.0000
11
54.0205
21
49.9539
31
0.0000
0
LINE
8
L00_
10
54.0205
20
49.9539
30
0.0000
11
54.4614
21
49.9671
31
0.0000
0
LINE
8
L00_
10
54.4614
20
49.9671
30
0.0000
11
54.9169
21
49.9612
31
0.0000
0
LINE
8
L00_
10
54.9169
20
49.9612
30
0.0000
11
55.3843
21
49.9368
31
0.0000
0
LINE
8
L00_
10
55.3843
20
49.9368
30
0.0000
11
55.8611
21
49.8947
31
0.0000
0
LINE
8
L00_
10
55.8611
20
49.8947
30
0.0000
11
56.3446
21
49.8353
31
0.0000
0
LINE
8
L00_
10
56.3446
20
49.8353
30
0.0000
11
56.8323
21
49.7593
31
0.0000
0
LINE
8
L00_
10
56.8323
20
49.7593
30
0.0000
11
57.3215
21
49.6674
31
0.0000
0
LINE
8
L00_
10
57.3215
20
49.6674
30
0.0000
11
57.8096
21
49.5601
31
0.0000
0
LINE
8
L00_
10
57.8096
20
49.5601
30
0.0000
11
58.2940
21
49.4381
31
0.0000
0
LINE
8
L00_
10
58.2940
20
49.4381
30
0.0000
11
58.7720
21
49.3020
31
0.0000
0
LINE
8
L00_
10
58.7720
20
49.3020
30
0.0000
11
59.2411
21
49.1524
31
0.0000
0
LINE
8
L00_
10
59.2411
20
49.1524
30
0.0000
11
59.6987
21
48.9899
31
0.0000
0
LINE
8
L00_
10
59.6987
20
48.9899
30
0.0000
11
60.1422
21
48.8151
31
0.0000
0
LINE
8
L00_
10
60.1422
20
48.8151
30
0.0000
11
60.5688
21
48.6288
31
0.0000
0
LINE
8
L00_
10
60.5688
20
48.6288
30
0.0000
11
60.9761
21
48.4314
31
0.0000
0
LINE
8
L00_
10
60.9761
20
48.4314
30
0.0000
11
61.3613
21
48.2236
31
0.0000
0
LINE
8
L00_
10
61.3613
20
48.2236
30
0.0000
11
61.7220
21
48.0060
31
0.0000
0
LINE
8
L00_
10
61.7220
20
48.0060
30
0.0000
11
62.0559
21
47.7793
31
0.0000
0
LINE
8
L00_
10
62.0559
20
47.7793
30
0.0000
11
62.3630
21
47.5441
31
0.0000
0
LINE
8
L00_
10
62.3630
20
47.5441
30
0.0000
11
62.6435
21
47.3012
31
0.0000
0
LINE
8
L00_
10
62.6435
20
47.3012
30
0.0000
11
62.8977
21
47.0512
31
0.0000
0
LINE
8
L00_
10
62.8977
20
47.0512
30
0.0000
11
63.1261
21
46.7949
31
0.0000
0
LINE
8
L00_
10
63.1261
20
46.7949
30
0.0000
11
63.3290
21
46.5330
31
0.0000
0
LINE
8
L00_
10
63.3290
20
46.5330
30
0.0000
11
63.5066
21
46.2661
31
0.0000
0
LINE
8
L00_
10
63.5066
20
46.2661
30
0.0000
11
63.6593
21
45.9950
31
0.0000
0
LINE
8
L00_
10
63.6593
20
45.9950
30
0.0000
11
63.7875
21
45.7203
31
0.0000
0
LINE
8
L00_
10
63.7875
20
45.7203
30
0.0000
11
63.8915
21
45.4429
31
0.0000
0
LINE
8
L00_
10
63.8915
20
45.4429
30
0.0000
11
63.9716
21
45.1633
31
0.0000
0
LINE
8
L00_
10
63.9716
20
45.1633
30
0.0000
11
64.0281
21
44.8823
31
0.0000
0
LINE
8
L00_
10
64.0281
20
44.8823
30
0.0000
11
64.0615
21
44.6006
31
0.0000
0
LINE
8
L00_
10
64.0615
20
44.6006
30
0.0000
11
64.0720
21
44.3189
31
0.0000
0
LINE
8
L00_
10
64.0720
20
44.3189
30
0.0000
11
64.0599
21
44.0378
31
0.0000
0
LINE
8
L00_
10
64.0599
20
44.0378
30
0.0000
11
64.0256
21
43.7582
31
0.0000
0
LINE
8
L00_
10
64.0256
20
43.7582
30
0.0000
11
63.9695
21
43.4807
31
0.0000
0
LINE
8
L00_
10
63.9695
20
43.4807
30
0.0000
11
63.8918
21
43.2059
31
0.0000
0
LINE
8
L00_
10
63.8918
20
43.2059
30
0.0000
11
63.7929
21
42.9347
31
0.0000
0
LINE
8
L00_
10
63.7929
20
42.9347
30
0.0000
11
63.6731
21
42.6677
31
0.0000
0
LINE
8
L00_
10
63.6731
20
42.6677
30
0.0000
11
63.5328
21
42.4057
31
0.0000
0
LINE
8
L00_
10
63.5328
20
42.4057
30
0.0000
11
63.3723
21
42.1492
31
0.0000
0
LINE
8
L00_
10
63.3723
20
42.1492
30
0.0000
11
63.1919
21
41.8991
31
0.0000
0
LINE
8
L00_
10
63.1919
20
41.8991
30
0.0000
11
62.9920
21
41.6560
31
0.0000
0
LINE
8
L00_
10
62.9920
20
41.6560
30
0.0000
11
62.7730
21
41.4207
31
0.0000
0
LINE
8
L00_
10
62.7730
20
41.4207
30
0.0000
11
62.5362
21
41.1941
31
0.0000
0
LINE
8
L00_
10
62.5362
20
41.1941
30
0.0000
11
62.2827
21
40.9772
31
0.0000
0
LINE
8
L00_
10
62.2827
20
40.9772
30
0.0000
11
62.0138
21
40.7709
31
0.0000
0
LINE
8
L00_
10
62.0138
20
40.7709
30
0.0000
11
61.7308
21
40.5763
31
0.0000
0
LINE
8
L00_
10
61.7308
20
40.5763
30
0.0000
11
61.4350
21
40.3942
31
0.0000
0
LINE
8
L00_
10
61.4350
20
40.3942
30
0.0000
11
61.1276
21
40.2258
31
0.0000
0
LINE
8
L00_
10
61.1276
20
40.2258
30
0.0000
11
60.8100
21
40.0719
31
0.0000
0
LINE
8
L00_
10
60.8100
20
40.0719
30
0.0000
11
60.4833
21
39.9336
31
0.0000
0
LINE
8
L00_
10
60.4833
20
39.9336
30
0.0000
11
60.1490
21
39.8118
31
0.0000
0
LINE
8
L00_
10
60.1490
20
39.8118
30
0.0000
11
59.8082
21
39.7074
31
0.0000
0
LINE
8
L00_
10
59.8082
20
39.7074
30
0.0000
11
59.4623
21
39.6216
31
0.0000
0
LINE
8
L00_
10
59.4623
20
39.6216
30
0.0000
11
59.1124
21
39.5551
31
0.0000
0
LINE
8
L00_
10
59.1124
20
39.5551
30
0.0000
11
58.7599
21
39.5091
31
0.0000
0
LINE
8
L00_
10
58.7599
20
39.5091
30
0.0000
11
58.4061
21
39.4844
31
0.0000
0
LINE
8
L00_
10
58.4061
20
39.4844
30
0.0000
11
58.0523
21
39.4822
31
0.0000
0
LINE
8
L00_
10
58.0523
20
39.4822
30
0.0000
11
57.6996
21
39.5032
31
0.0000
0
LINE
8
L00_
10
57.6996
20
39.5032
30
0.0000
11
57.3494
21
39.5486
31
0.0000
0
LINE
8
L00_
10
57.3494
20
39.5486
30
0.0000
11
57.0030
21
39.6193
31
0.0000
0
LINE
8
L00_
10
57.0030
20
39.6193
30
0.0000
11
56.6616
21
39.7162
31
0.0000
0
LINE
8
L00_
10
56.6616
20
39.7162
30
0.0000
11
56.3266
21
39.8403
31
0.0000
0
LINE
8
L00_
10
56.3266
20
39.8403
30
0.0000
11
55.9991
21
39.9927
31
0.0000
0
LINE
8
L00_
10
55.9991
20
39.9927
30
0.0000
11
55.6805
21
40.1743
31
0.0000
0
LINE
8
L00_
10
55.6805
20
40.1743
30
0.0000
11
55.3720
21
40.3860
31
0.0000
0
LINE
8
L00_
10
55.3720
20
40.3860
30
0.0000
11
55.0746
21
40.6285
31
0.0000
0
LINE
8
L00_
10
55.0746
20
40.6285
30
0.0000
11
54.7882
21
40.9008
31
0.0000
0
LINE
8
L00_
10
54.7882
20
40.9008
30
0.0000
11
54.5123
21
41.2017
31
0.0000
0
LINE
8
L00_
10
54.5123
20
41.2017
30
0.0000
11
54.2463
21
41.5298
31
0.0000
0
LINE
8
L00_
10
54.2463
20
41.5298
30
0.0000
11
53.9899
21
41.8839
31
0.0000
0
LINE
8
L00_
10
53.9899
20
41.8839
30
0.0000
11
53.7424
21
42.2626
31
0.0000
0
LINE
8
L00_
10
53.7424
20
42.2626
30
0.0000
11
53.5036
21
42.6647
31
0.0000
0
LINE
8
L00_
10
53.5036
20
42.6647
30
0.0000
11
53.2728
21
43.0888
31
0.0000
0
LINE
8
L00_
10
53.2728
20
43.0888
30
0.0000
11
53.0497
21
43.5337
31
0.0000
0
LINE
8
L00_
10
53.0497
20
43.5337
30
0.0000
11
52.8336
21
43.9981
31
0.0000
0
LINE
8
L00_
10
52.8336
20
43.9981
30
0.0000
11
52.6243
21
44.4806
31
0.0000
0
LINE
8
L00_
10
52.6243
20
44.4806
30
0.0000
11
52.4211
21
44.9800
31
0.0000
0
LINE
8
L00_
10
52.4211
20
44.9800
30
0.0000
11
52.2236
21
45.4949
31
0.0000
0
LINE
8
L00_
10
52.2236
20
45.4949
30
0.0000
11
52.0314
21
46.0242
31
0.0000
0
LINE
8
L00_
10
52.0314
20
46.0242
30
0.0000
11
51.8439
21
46.5664
31
0.0000
0
LINE
8
L00_
10
51.8439
20
46.5664
30
0.0000
11
51.6607
21
47.1203
31
0.0000
0
LINE
8
L00_
10
51.6607
20
47.1203
30
0.0000
11
51.4813
21
47.6845
31
0.0000
0
LINE
8
L00_
10
51.4813
20
47.6845
30
0.0000
11
51.3052
21
48.2579
31
0.0000
0
LINE
8
L00_
10
51.3052
20
48.2579
30
0.0000
11
51.1320
21
48.8390
31
0.0000
0
LINE
8
L00_
10
51.1320
20
48.8390
30
0.0000
11
50.9611
21
49.4266
31
0.0000
0
LINE
8
L00_
10
50.9611
20
49.4266
30
0.0000
11
50.7922
21
50.0194
31
0.0000
0
LINE
8
L00_
10
50.7922
20
50.0194
30
0.0000
11
50.6247
21
50.6161
31
0.0000
0
LINE
8
L00_
10
50.6247
20
50.6161
30
0.0000
11
50.4581
21
51.2154
31
0.0000
0
LINE
8
L00_
10
50.4581
20
51.2154
30
0.0000
11
50.2920
21
51.8160
31
0.0000
0
POLYLINE
8
L00_
66
1
70
1
0
VERTEX
8
L00_
10
32.5120
20
39.1160
30
0.0000
0
VERTEX
8
L00_
10
32.4292
20
39.2949
30
0.0000
0
VERTEX
8
L00_
10
32.3547
20
39.4842
30
0.0000
0
VERTEX
8
L00_
10
32.2897
20
39.6822
30
0.0000
0
VERTEX
8
L00_
10
32.2351
20
39.8873
30
0.0000
0
VERTEX
8
L00_
10
32.1922
20
40.0978
30
0.0000
0
VERTEX
8
L00_
10
32.1620
20
40.3120
30
0.0000
0
VERTEX
8
L00_
10
32.1457
20
40.5284
30
0.0000
0
VERTEX
8
L00_
10
32.1443
20
40.7452
30
0.0000
0
VERTEX
8
L00_
10
32.1589
20
40.9608
30
0.0000
0
VERTEX
8
L00_
10
32.1906
20
41.1735
30
0.0000
0
VERTEX
8
L00_
10
32.2406
20
41.3818
30
0.0000
0
VERTEX
8
L00_
10
32.3100
20
41.5838
30
0.0000
0
VERTEX
8
L00_
10
32.3997
20
41.7781
30
0.0000
0
VERTEX
8
L00_
10
32.5111
20
41.9629
30
0.0000
0
VERTEX
8
L00_
10
32.6450
20
42.1365
30
0.0000
0
VERTEX
8
L00_
10
32.8028
20
42.2974
30
0.0000
0
VERTEX
8
L00_
10
32.9854
20
42.4439
30
0.0000
0
VERTEX
8
L00_
10
33.1939
20
42.5742
30
0.0000
0
VERTEX
8
L00_
10
33.4295
20
42.6868
30
0.0000
0
VERTEX
8
L00_
10
33.6933
20
42.7801
30
0.0000
0
VERTEX
8
L00_
10
33.9863
20
42.8523
30
0.0000
0
VERTEX
8
L00_
10
34.3097
20
42.9017
30
0.0000
0
VERTEX
8
L00_
10
34.6646
20
42.9269
30
0.0000
0
VERTEX
8
L00_
10
35.0520
20
42.9260
30
0.0000
0
VERTEX
8
L00_
10
35.4723
20
42.8982
30
0.0000
0
VERTEX
8
L00_
10
35.9222
20
42.8452
30
0.0000
0
VERTEX
8
L00_
10
36.3978
20
42.7695
30
0.0000
0
VERTEX
8
L00_
10
36.8950
20
42.6737
30
0.0000
0
VERTEX
8
L00_
10
37.4099
20
42.5603
30
0.0000
0
VERTEX
8
L00_
10
37.9384
20
42.4317
30
0.0000
0
VERTEX
8
L00_
10
38.4765
20
42.2905
30
0.0000
0
VERTEX
8
L00_
10
39.0202
20
42.1392
30
0.0000
0
VERTEX
8
L00_
10
39.5656
20
41.9803
30
0.0000
0
VERTEX
8
L00_
10
40.1085
20
41.8162
30
0.0000
0
VERTEX
8
L00_
10
40.6450
20
41.6496
30
0.0000
0
VERTEX
8
L00_
10
41.1711
20
41.4828
30
0.0000
0
VERTEX
8
L00_
10
41.6828
20
41.3185
30
0.0000
0
VERTEX
8
L00_
10
42.1760
20
41.1590
30
0.0000
0
VERTEX
8
L00_
10
42.6467
20
41.0070
30
0.0000
0
VERTEX
8
L00_
10
43.0911
20
40.8649
30
0.0000
0
VERTEX
8
L00_
10
43.5049
20
40.7353
30
0.0000
0
VERTEX
8
L00_
10
43.8843
20
40.6205
30
0.0000
0
VERTEX
8
L00_
10
44.2252
20
40.5232
30
0.0000
0
VERTEX
8
L00_
10
44.5235
20
40.4459
30
0.0000
0
VERTEX
8
L00_
10
44.7754
20
40.3910
30
0.0000
0
VERTEX
8
L00_
10
44.9768
20
40.3610
30
0.0000
0
VERTEX
8
L00_
10
45.1237
20
40.3585
30
0.0000
0
VERTEX
8
L00_
10
45.2120
20
40.3860
30
0.0000
0
VERTEX
8
L00_
10
45.2391
20
40.4451
30
0.0000
0
VERTEX
8
L00_
10
45.2076
20
40.5337
30
0.0000
0
VERTEX
8
L00_
10
45.1214
20
40.6492
30
0.0000
0
VERTEX
8
L00_
10
44.9843
20
40.7885
30
0.0000
0
VERTEX
8
L00_
10
44.8003
20
40.9489
30
0.0000
0
VERTEX
8
L00_
10
44.5734
20
41.1274
30
0.0000
0
VERTEX
8
L00_
10
44.3074
20
41.3213
30
0.0000
0
VERTEX
8
L00_
10
44.0061
20
41.5277
30
0.0000
0
VERTEX
8
L00_
10
43.6737
20
41.7437
30
0.0000
0
VERTEX
8
L00_
10
43.3138
20
41.9665
30
0.0000
0
VERTEX
8
L00_
10
42.9305
20
42.1932
30
0.0000
0
VERTEX
8
L00_
10
42.5277
20
42.4209
30
0.0000
0
VERTEX
8
L00_
10
42.1092
20
42.6468
30
0.0000
0
VERTEX
8
L00_
10
41.6790
20
42.8681
30
0.0000
0
VERTEX
8
L00_
10
41.2410
20
43.0818
30
0.0000
0
VERTEX
8
L00_
10
40.7991
20
43.2852
30
0.0000
0
VERTEX
8
L00_
10
40.3571
20
43.4753
30
0.0000
0
VERTEX
8
L00_
10
39.9191
20
43.6494
30
0.0000
0
VERTEX
8
L00_
10
39.4889
20
43.8045
30
0.0000
0
VERTEX
8
L00_
10
39.0705
20
43.9378
30
0.0000
0
VERTEX
8
L00_
10
38.6676
20
44.0465
30
0.0000
0
VERTEX
8
L00_
10
38.2843
20
44.1276
30
0.0000
0
VERTEX
8
L00_
10
37.9245
20
44.1784
30
0.0000
0
VERTEX
8
L00_
10
37.5920
20
44.1960
30
0.0000
0
VERTEX
8
L00_
10
37.2899
20
44.1783
30
0.0000
0
VERTEX
8
L00_
10
37.0173
20
44.1269
30
0.0000
0
VERTEX
8
L00_
10
36.7725
20
44.0440
30
0.0000
0
VERTEX
8
L00_
10
36.5540
20
43.9320
30
0.0000
0
VERTEX
8
L00_
10
36.3599
20
43.7930
30
0.0000
0
VERTEX
8
L00_
10
36.1885
20
43.6296
30
0.0000
0
VERTEX
8
L00_
10
36.0382
20
43.4438
30
0.0000
0
VERTEX
8
L00_
10
35.9072
20
43.2382
30
0.0000
0
VERTEX
8
L00_
10
35.7939
20
43.0148
30
0.0000
0
VERTEX
8
L00_
10
35.6965
20
42.7762
30
0.0000
0
VERTEX
8
L00_
10
35.6133
20
42.5245
30
0.0000
0
VERTEX
8
L00_
10
35.5427
20
42.2621
30
0.0000
0
VERTEX
8
L00_
10
35.4829
20
41.9913
30
0.0000
0
VERTEX
8
L00_
10
35.4322
20
41.7144
30
0.0000
0
VERTEX
8
L00_
10
35.3889
20
41.4337
30
0.0000
0
VERTEX
8
L00_
10
35.3513
20
41.1514
30
0.0000
0
VERTEX
8
L00_
10
35.3178
20
40.8700
30
0.0000
0
VERTEX
8
L00_
10
35.2865
20
40.5917
30
0.0000
0
VERTEX
8
L00_
10
35.2559
20
40.3187
30
0.0000
0
VERTEX
8
L00_
10
35.2241
20
40.0535
30
0.0000
0
VERTEX
8
L00_
10
35.1896
20
39.7984
30
0.0000
0
VERTEX
8
L00_
10
35.1505
20
39.5555
30
0.0000
0
VERTEX
8
L00_
10
35.1052
20
39.3273
30
0.0000
0
VERTEX
8
L00_
10
35.0520
20
39.1160
30
0.0000
0
VERTEX
8
L00_
10
34.9896
20
38.9235
30
0.0000
0
VERTEX
8
L00_
10
34.9182
20
38.7500
30
0.0000
0
VERTEX
8
L00_
10
34.8387
20
38.5951
30
0.0000
0
VERTEX
8
L00_
10
34.7516
20
38.4586
30
0.0000
0
VERTEX
8
L00_
10
34.6577
20
38.3400
30
0.0000
0
VERTEX
8
L00_
10
34.5577
20
38.2393
30
0.0000
0
VERTEX
8
L00_
10
34.4523
20
38.1559
30
0.0000
0
VERTEX
8
L00_
10
34.3422
20
38.0897
30
0.0000
0
VERTEX
8
L00_
10
34.2280
20
38.0404
30
0.0000
0
VERTEX
8
L00_
10
34.1106
20
38.0076
30
0.0000
0
VERTEX
8
L00_
10
33.9905
20
37.9910
30
0.0000
0
VERTEX
8
L00_
10
33.8686
20
37.9903
30
0.0000
0
VERTEX
8
L00_
10
33.7454
20
38.0053
30
0.0000
0
VERTEX
8
L00_
10
33.6218
20
38.0356
30
0.0000
0
VERTEX
8
L00_
10
33.4983
20
38.0810
30
0.0000
0
VERTEX
8
L00_
10
33.3758
20
38.1411
30
0.0000
0
VERTEX
8
L00_
10
33.2548
20
38.2156
30
0.0000
0
VERTEX
8
L00_
10
33.1362
20
38.3042
30
0.0000
0
VERTEX
8
L00_
10
33.0205
20
38.4067
30
0.0000
0
VERTEX
8
L00_
10
32.9086
20
38.5227
30
0.0000
0
VERTEX
8
L00_
10
32.8011
20
38.6519
30
0.0000
0
VERTEX
8
L00_
10
32.6987
20
38.7941
30
0.0000
0
VERTEX
8
L00_
10
32.6021
20
38.9489
30
0.0000
0
VERTEX
8
L00_
10
32.5120
20
39.1160
30
0.0000
0
SEQEND
0
LINE
8
L00_
10
19.1770
20
57.2770
30
0.0000
11
19.3916
21
57.3243
31
0.0000
0
LINE
8
L00_
10
19.3916
20
57.3243
30
0.0000
11
19.6060
21
57.3710
31
0.0000
0
LINE
8
L00_
10
19.6060
20
57.3710
30
0.0000
11
19.8197
21
57.4163
31
0.0000
0
LINE
8
L00_
10
19.8197
20
57.4163
30
0.0000
11
20.0325
21
57.4597
31
0.0000
0
LINE
8
L00_
10
20.0325
20
57.4597
30
0.0000
11
20.2441
21
57.5004
31
0.0000
0
LINE
8
L00_
10
20.2441
20
57.5004
30
0.0000
11
20.4541
21
57.5379
31
0.0000
0
LINE
8
L00_
10
20.4541
20
57.5379
30
0.0000
11
20.6623
21
57.5714
31
0.0000
0
LINE
8
L00_
10
20.6623
20
57.5714
30
0.0000
11
20.8683
21
57.6002
31
0.0000
0
LINE
8
L00_
10
20.8683
20
57.6002
30
0.0000
11
21.0719
21
57.6238
31
0.0000
0
LINE
8
L00_
10
21.0719
20
57.6238
30
0.0000
11
21.2727
21
57.6414
31
0.0000
0
LINE
8
L00_
10
21.2727
20
57.6414
30
0.0000
11
21.4705
21
57.6525
31
0.0000
0
LINE
8
L00_
10
21.4705
20
57.6525
30
0.0000
11
21.6648
21
57.6563
31
0.0000
0
LINE
8
L00_
10
21.6648
20
57.6563
30
0.0000
11
21.8555
21
57.6522
31
0.0000
0
LINE
8
L00_
10
21.8555
20
57.6522
30
0.0000
11
22.0422
21
57.6395
31
0.0000
0
LINE
8
L00_
10
22.0422
20
57.6395
30
0.0000
11
22.2246
21
57.6176
31
0.0000
0
LINE
8
L00_
10
22.2246
20
57.6176
30
0.0000
11
22.4024
21
57.5858
31
0.0000
0
LINE
8
L00_
10
22.4024
20
57.5858
30
0.0000
11
22.5753
21
57.5434
31
0.0000
0
LINE
8
L00_
10
22.5753
20
57.5434
30
0.0000
11
22.7429
21
57.4898
31
0.0000
0
LINE
8
L00_
10
22.7429
20
57.4898
30
0.0000
11
22.9050
21
57.4244
31
0.0000
0
LINE
8
L00_
10
22.9050
20
57.4244
30
0.0000
11
23.0613
21
57.3464
31
0.0000
0
LINE
8
L00_
10
23.0613
20
57.3464
30
0.0000
11
23.2115
21
57.2552
31
0.0000
0
LINE
8
L00_
10
23.2115
20
57.2552
30
0.0000
11
23.3552
21
57.1502
31
0.0000
0
LINE
8
L00_
10
23.3552
20
57.1502
30
0.0000
11
23.4921
21
57.0307
31
0.0000
0
LINE
8
L00_
10
23.4921
20
57.0307
30
0.0000
11
23.6220
21
56.8960
31
0.0000
0
LINE
8
L00_
10
23.6220
20
56.8960
30
0.0000
11
23.7447
21
56.7457
31
0.0000
0
LINE
8
L00_
10
23.7447
20
56.7457
30
0.0000
11
23.8607
21
56.5803
31
0.0000
0
LINE
8
L00_
10
23.8607
20
56.5803
30
0.0000
11
23.9708
21
56.4005
31
0.0000
0
LINE
8
L00_
10
23.9708
20
56.4005
30
0.0000
11
24.0756
21
56.2069
31
0.0000
0
LINE
8
L00_
10
24.0756
20
56.2069
30
0.0000
11
24.1759
21
56.0004
31
0.0000
0
LINE
8
L00_
10
24.1759
20
56.0004
30
0.0000
11
24.2723
21
55.7816
31
0.0000
0
LINE
8
L00_
10
24.2723
20
55.7816
30
0.0000
11
24.3656
21
55.5511
31
0.0000
0
LINE
8
L00_
10
24.3656
20
55.5511
30
0.0000
11
24.4566
21
55.3098
31
0.0000
0
LINE
8
L00_
10
24.4566
20
55.3098
30
0.0000
11
24.5458
21
55.0584
31
0.0000
0
LINE
8
L00_
10
24.5458
20
55.0584
30
0.0000
11
24.6340
21
54.7974
31
0.0000
0
LINE
8
L00_
10
24.6340
20
54.7974
30
0.0000
11
24.7220
21
54.5277
31
0.0000
0
LINE
8
L00_
10
24.7220
20
54.5277
30
0.0000
11
24.8104
21
54.2500
31
0.0000
0
LINE
8
L00_
10
24.8104
20
54.2500
30
0.0000
11
24.8999
21
53.9649
31
0.0000
0
LINE
8
L00_
10
24.8999
20
53.9649
30
0.0000
11
24.9912
21
53.6731
31
0.0000
0
LINE
8
L00_
10
24.9912
20
53.6731
30
0.0000
11
25.0851
21
53.3755
31
0.0000
0
LINE
8
L00_
10
25.0851
20
53.3755
30
0.0000
11
25.1823
21
53.0726
31
0.0000
0
LINE
8
L00_
10
25.1823
20
53.0726
30
0.0000
11
25.2834
21
52.7651
31
0.0000
0
LINE
8
L00_
10
25.2834
20
52.7651
30
0.0000
11
25.3892
21
52.4539
31
0.0000
0
LINE
8
L00_
10
25.3892
20
52.4539
30
0.0000
11
25.5004
21
52.1396
31
0.0000
0
LINE
8
L00_
10
25.5004
20
52.1396
30
0.0000
11
25.6177
21
51.8228
31
0.0000
0
LINE
8
L00_
10
25.6177
20
51.8228
30
0.0000
11
25.7418
21
51.5044
31
0.0000
0
LINE
8
L00_
10
25.7418
20
51.5044
30
0.0000
11
25.8734
21
51.1850
31
0.0000
0
LINE
8
L00_
10
25.8734
20
51.1850
30
0.0000
11
26.0132
21
50.8653
31
0.0000
0
LINE
8
L00_
10
26.0132
20
50.8653
30
0.0000
11
26.1620
21
50.5460
31
0.0000
0
LINE
8
L00_
10
26.1620
20
50.5460
30
0.0000
11
26.3201
21
50.2279
31
0.0000
0
LINE
8
L00_
10
26.3201
20
50.2279
30
0.0000
11
26.4867
21
49.9119
31
0.0000
0
LINE
8
L00_
10
26.4867
20
49.9119
30
0.0000
11
26.6606
21
49.5990
31
0.0000
0
LINE
8
L00_
10
26.6606
20
49.5990
30
0.0000
11
26.8407
21
49.2902
31
0.0000
0
LINE
8
L00_
10
26.8407
20
49.2902
30
0.0000
11
27.0258
21
48.9864
31
0.0000
0
LINE
8
L00_
10
27.0258
20
48.9864
30
0.0000
11
27.2149
21
48.6886
31
0.0000
0
LINE
8
L00_
10
27.2149
20
48.6886
30
0.0000
11
27.4066
21
48.3977
31
0.0000
0
LINE
8
L00_
10
27.4066
20
48.3977
30
0.0000
11
27.6000
21
48.1149
31
0.0000
0
LINE
8
L00_
10
27.6000
20
48.1149
30
0.0000
11
27.7938
21
47.8409
31
0.0000
0
LINE
8
L00_
10
27.7938
20
47.8409
30
0.0000
11
27.9869
21
47.5769
31
0.0000
0
LINE
8
L00_
10
27.9869
20
47.5769
30
0.0000
11
28.1781
21
47.3237
31
0.0000
0
LINE
8
L00_
10
28.1781
20
47.3237
30
0.0000
11
28.3664
21
47.0824
31
0.0000
0
LINE
8
L00_
10
28.3664
20
47.0824
30
0.0000
11
28.5504
21
46.8539
31
0.0000
0
LINE
8
L00_
10
28.5504
20
46.8539
30
0.0000
11
28.7292
21
46.6393
31
0.0000
0
LINE
8
L00_
10
28.7292
20
46.6393
30
0.0000
11
28.9015
21
46.4394
31
0.0000
0
LINE
8
L00_
10
28.9015
20
46.4394
30
0.0000
11
29.0662
21
46.2552
31
0.0000
0
LINE
8
L00_
10
29.0662
20
46.2552
30
0.0000
11
29.2221
21
46.0878
31
0.0000
0
LINE
8
L00_
10
29.2221
20
46.0878
30
0.0000
11
29.3682
21
45.9381
31
0.0000
0
LINE
8
L00_
10
29.3682
20
45.9381
30
0.0000
11
29.5032
21
45.8070
31
0.0000
0
LINE
8
L00_
10
29.5032
20
45.8070
30
0.0000
11
29.6259
21
45.6956
31
0.0000
0
LINE
8
L00_
10
29.6259
20
45.6956
30
0.0000
11
29.7354
21
45.6048
31
0.0000
0
LINE
8
L00_
10
29.7354
20
45.6048
30
0.0000
11
29.8303
21
45.5357
31
0.0000
0
LINE
8
L00_
10
29.8303
20
45.5357
30
0.0000
11
29.9095
21
45.4891
31
0.0000
0
LINE
8
L00_
10
29.9095
20
45.4891
30
0.0000
11
29.9720
21
45.4660
31
0.0000
0
LINE
8
L00_
10
29.9720
20
45.4660
30
0.0000
11
30.0168
21
45.4671
31
0.0000
0
LINE
8
L00_
10
30.0168
20
45.4671
30
0.0000
11
30.0444
21
45.4918
31
0.0000
0
LINE
8
L00_
10
30.0444
20
45.4918
30
0.0000
11
30.0556
21
45.5389
31
0.0000
0
LINE
8
L00_
10
30.0556
20
45.5389
30
0.0000
11
30.0510
21
45.6074
31
0.0000
0
LINE
8
L00_
10
30.0510
20
45.6074
30
0.0000
11
30.0315
21
45.6964
31
0.0000
0
LINE
8
L00_
10
30.0315
20
45.6964
30
0.0000
11
29.9978
21
45.8048
31
0.0000
0
LINE
8
L00_
10
29.9978
20
45.8048
30
0.0000
11
29.9506
21
45.9316
31
0.0000
0
LINE
8
L00_
10
29.9506
20
45.9316
30
0.0000
11
29.8907
21
46.0758
31
0.0000
0
LINE
8
L00_
10
29.8907
20
46.0758
30
0.0000
11
29.8188
21
46.2363
31
0.0000
0
LINE
8
L00_
10
29.8188
20
46.2363
30
0.0000
11
29.7357
21
46.4122
31
0.0000
0
LINE
8
L00_
10
29.7357
20
46.4122
30
0.0000
11
29.6421
21
46.6023
31
0.0000
0
LINE
8
L00_
10
29.6421
20
46.6023
30
0.0000
11
29.5388
21
46.8057
31
0.0000
0
LINE
8
L00_
10
29.5388
20
46.8057
30
0.0000
11
29.4266
21
47.0214
31
0.0000
0
LINE
8
L00_
10
29.4266
20
47.0214
30
0.0000
11
29.3061
21
47.2484
31
0.0000
0
LINE
8
L00_
10
29.3061
20
47.2484
30
0.0000
11
29.1781
21
47.4855
31
0.0000
0
LINE
8
L00_
10
29.1781
20
47.4855
30
0.0000
11
29.0434
21
47.7318
31
0.0000
0
LINE
8
L00_
10
29.0434
20
47.7318
30
0.0000
11
28.9027
21
47.9864
31
0.0000
0
LINE
8
L00_
10
28.9027
20
47.9864
30
0.0000
11
28.7567
21
48.2480
31
0.0000
0
LINE
8
L00_
10
28.7567
20
48.2480
30
0.0000
11
28.6063
21
48.5158
31
0.0000
0
LINE
8
L00_
10
28.6063
20
48.5158
30
0.0000
11
28.4521
21
48.7887
31
0.0000
0
LINE
8
L00_
10
28.4521
20
48.7887
30
0.0000
11
28.2950
21
49.0657
31
0.0000
0
LINE
8
L00_
10
28.2950
20
49.0657
30
0.0000
11
28.1356
21
49.3458
31
0.0000
0
LINE
8
L00_
10
28.1356
20
49.3458
30
0.0000
11
27.9746
21
49.6279
31
0.0000
0
LINE
8
L00_
10
27.9746
20
49.6279
30
0.0000
11
27.8130
21
49.9110
31
0.0000
0
SOLID
8
L00_
10
18.5420
20
56.8960
30
0.0000
11
18.9937
21
57.6926
31
0.0000
12
19.4511
22
56.7854
32
0.0000
13
19.4511
23
56.7854
33
0.0000
0
SOLID
8
L00_
10
27.4320
20
50.5460
30
0.0000
11
28.2570
21
50.1485
31
0.0000
12
27.3824
22
49.6315
32
0.0000
13
27.3824
23
49.6315
33
0.0000
0
LINE
8
L00_
10
61.7220
20
75.9460
30
0.0000
11
62.0314
21
75.6947
31
0.0000
0
LINE
8
L00_
10
62.0314
20
75.6947
30
0.0000
11
62.3398
21
75.4438
31
0.0000
0
LINE
8
L00_
10
62.3398
20
75.4438
30
0.0000
11
62.6461
21
75.1938
31
0.0000
0
LINE
8
L00_
10
62.6461
20
75.1938
30
0.0000
11
62.9494
21
74.9450
31
0.0000
0
LINE
8
L00_
10
62.9494
20
74.9450
30
0.0000
11
63.2486
21
74.6978
31
0.0000
0
LINE
8
L00_
10
63.2486
20
74.6978
30
0.0000
11
63.5427
21
74.4528
31
0.0000
0
LINE
8
L00_
10
63.5427
20
74.4528
30
0.0000
11
63.8306
21
74.2102
31
0.0000
0
LINE
8
L00_
10
63.8306
20
74.2102
30
0.0000
11
64.1115
21
73.9704
31
0.0000
0
LINE
8
L00_
10
64.1115
20
73.9704
30
0.0000
11
64.3842
21
73.7340
31
0.0000
0
LINE
8
L00_
10
64.3842
20
73.7340
30
0.0000
11
64.6477
21
73.5014
31
0.0000
0
LINE
8
L00_
10
64.6477
20
73.5014
30
0.0000
11
64.9010
21
73.2728
31
0.0000
0
LINE
8
L00_
10
64.9010
20
73.2728
30
0.0000
11
65.1431
21
73.0488
31
0.0000
0
LINE
8
L00_
10
65.1431
20
73.0488
30
0.0000
11
65.3729
21
72.8298
31
0.0000
0
LINE
8
L00_
10
65.3729
20
72.8298
30
0.0000
11
65.5895
21
72.6161
31
0.0000
0
LINE
8
L00_
10
65.5895
20
72.6161
30
0.0000
11
65.7918
21
72.4082
31
0.0000
0
LINE
8
L00_
10
65.7918
20
72.4082
30
0.0000
11
65.9789
21
72.2066
31
0.0000
0
LINE
8
L00_
10
65.9789
20
72.2066
30
0.0000
11
66.1496
21
72.0115
31
0.0000
0
LINE
8
L00_
10
66.1496
20
72.0115
30
0.0000
11
66.3029
21
71.8235
31
0.0000
0
LINE
8
L00_
10
66.3029
20
71.8235
30
0.0000
11
66.4379
21
71.6429
31
0.0000
0
LINE
8
L00_
10
66.4379
20
71.6429
30
0.0000
11
66.5536
21
71.4701
31
0.0000
0
LINE
8
L00_
10
66.5536
20
71.4701
30
0.0000
11
66.6488
21
71.3057
31
0.0000
0
LINE
8
L00_
10
66.6488
20
71.3057
30
0.0000
11
66.7227
21
71.1499
31
0.0000
0
LINE
8
L00_
10
66.7227
20
71.1499
30
0.0000
11
66.7741
21
71.0032
31
0.0000
0
LINE
8
L00_
10
66.7741
20
71.0032
30
0.0000
11
66.8020
21
70.8660
31
0.0000
0
LINE
8
L00_
10
66.8020
20
70.8660
30
0.0000
11
66.8058
21
70.7386
31
0.0000
0
LINE
8
L00_
10
66.8058
20
70.7386
30
0.0000
11
66.7862
21
70.6207
31
0.0000
0
LINE
8
L00_
10
66.7862
20
70.6207
30
0.0000
11
66.7441
21
70.5119
31
0.0000
0
LINE
8
L00_
10
66.7441
20
70.5119
30
0.0000
11
66.6806
21
70.4118
31
0.0000
0
LINE
8
L00_
10
66.6806
20
70.4118
30
0.0000
11
66.5967
21
70.3200
31
0.0000
0
LINE
8
L00_
10
66.5967
20
70.3200
30
0.0000
11
66.4934
21
70.2360
31
0.0000
0
LINE
8
L00_
10
66.4934
20
70.2360
30
0.0000
11
66.3718
21
70.1594
31
0.0000
0
LINE
8
L00_
10
66.3718
20
70.1594
30
0.0000
11
66.2329
21
70.0899
31
0.0000
0
LINE
8
L00_
10
66.2329
20
70.0899
30
0.0000
11
66.0776
21
70.0270
31
0.0000
0
LINE
8
L00_
10
66.0776
20
70.0270
30
0.0000
11
65.9070
21
69.9703
31
0.0000
0
LINE
8
L00_
10
65.9070
20
69.9703
30
0.0000
11
65.7222
21
69.9194
31
0.0000
0
LINE
8
L00_
10
65.7222
20
69.9194
30
0.0000
11
65.5241
21
69.8738
31
0.0000
0
LINE
8
L00_
10
65.5241
20
69.8738
30
0.0000
11
65.3137
21
69.8332
31
0.0000
0
LINE
8
L00_
10
65.3137
20
69.8332
30
0.0000
11
65.0922
21
69.7972
31
0.0000
0
LINE
8
L00_
10
65.0922
20
69.7972
30
0.0000
11
64.8604
21
69.7653
31
0.0000
0
LINE
8
L00_
10
64.8604
20
69.7653
30
0.0000
11
64.6195
21
69.7371
31
0.0000
0
LINE
8
L00_
10
64.6195
20
69.7371
30
0.0000
11
64.3704
21
69.7122
31
0.0000
0
LINE
8
L00_
10
64.3704
20
69.7122
30
0.0000
11
64.1142
21
69.6903
31
0.0000
0
LINE
8
L00_
10
64.1142
20
69.6903
30
0.0000
11
63.8518
21
69.6708
31
0.0000
0
LINE
8
L00_
10
63.8518
20
69.6708
30
0.0000
11
63.5844
21
69.6533
31
0.0000
0
LINE
8
L00_
10
63.5844
20
69.6533
30
0.0000
11
63.3128
21
69.6375
31
0.0000
0
LINE
8
L00_
10
63.3128
20
69.6375
30
0.0000
11
63.0383
21
69.6230
31
0.0000
0
LINE
8
L00_
10
63.0383
20
69.6230
30
0.0000
11
62.7616
21
69.6093
31
0.0000
0
LINE
8
L00_
10
62.7616
20
69.6093
30
0.0000
11
62.4840
21
69.5960
31
0.0000
0
POLYLINE
8
L00_
66
1
70
0
0
VERTEX
8
L00_
10
61.7220
20
69.5960
30
0.0000
0
VERTEX
8
L00_
10
62.4807
20
69.8597
30
0.0000
0
SEQEND
0
POLYLINE
8
L00_
66
1
70
0
0
VERTEX
8
L00_
10
61.7220
20
69.5960
30
0.0000
0
VERTEX
8
L00_
10
62.4872
20
69.3518
30
0.0000
0
SEQEND
0
SOLID
8
L00_
10
4.5720
20
28.9560
30
0.0000
11
3.8100
21
29.4640
31
0.0000
12
3.8100
22
28.4480
32
0.0000
13
3.8100
23
28.4480
33
0.0000
0
SOLID
8
L00_
10
59.1820
20
28.9560
30
0.0000
11
59.9440
21
28.4480
31
0.0000
12
59.9440
22
29.4640
32
0.0000
13
59.9440
23
29.4640
33
0.0000
0
LINE
8
L00_
10
4.5720
20
28.9560
30
0.0000
11
59.1820
21
28.9560
31
0.0000
0
SOLID
8
L00_
10
4.5720
20
27.6860
30
0.0000
11
3.8100
21
28.1940
31
0.0000
12
3.8100
22
27.1780
32
0.0000
13
3.8100
23
27.1780
33
0.0000
0
POLYLINE
8
L00_
66
1
70
0
0
VERTEX
8
L00_
10
4.5720
20
28.1940
30
0.0000
0
VERTEX
8
L00_
10
4.5720
20
27.1780
30
0.0000
0
SEQEND
0
SOLID
8
L00_
10
59.1820
20
27.6860
30
0.0000
11
59.9440
21
27.1780
31
0.0000
12
59.9440
22
28.1940
32
0.0000
13
59.9440
23
28.1940
33
0.0000
0
POLYLINE
8
L00_
66
1
70
0
0
VERTEX
8
L00_
10
59.1820
20
27.1780
30
0.0000
0
VERTEX
8
L00_
10
59.1820
20
28.1940
30
0.0000
0
SEQEND
0
LINE
8
L00_
10
4.5720
20
27.6860
30
0.0000
11
59.1820
21
27.6860
31
0.0000
0
POLYLINE
8
L00_
66
1
70
0
0
VERTEX
8
L00_
10
4.5720
20
26.4160
30
0.0000
0
VERTEX
8
L00_
10
3.8100
20
26.9240
30
0.0000
0
SEQEND
0
POLYLINE
8
L00_
66
1
70
0
0
VERTEX
8
L00_
10
4.5720
20
26.4160
30
0.0000
0
VERTEX
8
L00_
10
3.8100
20
25.9080
30
0.0000
0
SEQEND
0
POLYLINE
8
L00_
66
1
70
0
0
VERTEX
8
L00_
10
59.1820
20
26.4160
30
0.0000
0
VERTEX
8
L00_
10
59.9440
20
25.9080
30
0.0000
0
SEQEND
0
POLYLINE
8
L00_
66
1
70
0
0
VERTEX
8
L00_
10
59.1820
20
26.4160
30
0.0000
0
VERTEX
8
L00_
10
59.9440
20
26.9240
30
0.0000
0
SEQEND
0
LINE
8
L00_
10
4.5720
20
26.4160
30
0.0000
11
59.1820
21
26.4160
31
0.0000
0
POLYLINE
8
L00_
66
1
70
0
0
VERTEX
8
L00_
10
4.5720
20
25.1460
30
0.0000
0
VERTEX
8
L00_
10
3.8100
20
25.6540
30
0.0000
0
SEQEND
0
POLYLINE
8
L00_
66
1
70
0
0
VERTEX
8
L00_
10
4.5720
20
25.1460
30
0.0000
0
VERTEX
8
L00_
10
3.8100
20
24.6380
30
0.0000
0
SEQEND
0
POLYLINE
8
L00_
66
1
70
0
0
VERTEX
8
L00_
10
4.5720
20
25.6540
30
0.0000
0
VERTEX
8
L00_
10
4.5720
20
24.6380
30
0.0000
0
SEQEND
0
POLYLINE
8
L00_
66
1
70
0
0
VERTEX
8
L00_
10
59.1820
20
25.1460
30
0.0000
0
VERTEX
8
L00_
10
59.9440
20
24.6380
30
0.0000
0
SEQEND
0
POLYLINE
8
L00_
66
1
70
0
0
VERTEX
8
L00_
10
59.1820
20
25.1460
30
0.0000
0
VERTEX
8
L00_
10
59.9440
20
25.6540
30
0.0000
0
SEQEND
0
POLYLINE
8
L00_
66
1
70
0
0
VERTEX
8
L00_
10
59.1820
20
24.6380
30
0.0000
0
VERTEX
8
L00_
10
59.1820
20
25.6540
30
0.0000
0
SEQEND
0
LINE
8
L00_
10
4.5720
20
25.1460
30
0.0000
11
59.1820
21
25.1460
31
0.0000
0
LINE
8
L00_
10
4.5720
20
20.0660
30
0.0000
11
5.5665
21
20.2880
31
0.0000
0
LINE
8
L00_
10
5.5665
20
20.2880
30
0.0000
11
6.5589
21
20.5089
31
0.0000
0
LINE
8
L00_
10
6.5589
20
20.5089
30
0.0000
11
7.5471
21
20.7273
31
0.0000
0
LINE
8
L00_
10
7.5471
20
20.7273
30
0.0000
11
8.5290
21
20.9421
31
0.0000
0
LINE
8
L00_
10
8.5290
20
20.9421
30
0.0000
11
9.5025
21
21.1520
31
0.0000
0
LINE
8
L00_
10
9.5025
20
21.1520
30
0.0000
11
10.4656
21
21.3558
31
0.0000
0
LINE
8
L00_
10
10.4656
20
21.3558
30
0.0000
11
11.4161
21
21.5524
31
0.0000
0
LINE
8
L00_
10
11.4161
20
21.5524
30
0.0000
11
12.3519
21
21.7405
31
0.0000
0
LINE
8
L00_
10
12.3519
20
21.7405
30
0.0000
11
13.2710
21
21.9189
31
0.0000
0
LINE
8
L00_
10
13.2710
20
21.9189
30
0.0000
11
14.1712
21
22.0864
31
0.0000
0
LINE
8
L00_
10
14.1712
20
22.0864
30
0.0000
11
15.0505
21
22.2417
31
0.0000
0
LINE
8
L00_
10
15.0505
20
22.2417
30
0.0000
11
15.9068
21
22.3838
31
0.0000
0
LINE
8
L00_
10
15.9068
20
22.3838
30
0.0000
11
16.7379
21
22.5112
31
0.0000
0
LINE
8
L00_
10
16.7379
20
22.5112
30
0.0000
11
17.5417
21
22.6229
31
0.0000
0
LINE
8
L00_
10
17.5417
20
22.6229
30
0.0000
11
18.3163
21
22.7176
31
0.0000
0
LINE
8
L00_
10
18.3163
20
22.7176
30
0.0000
11
19.0594
21
22.7941
31
0.0000
0
LINE
8
L00_
10
19.0594
20
22.7941
30
0.0000
11
19.7690
21
22.8513
31
0.0000
0
LINE
8
L00_
10
19.7690
20
22.8513
30
0.0000
11
20.4430
21
22.8878
31
0.0000
0
LINE
8
L00_
10
20.4430
20
22.8878
30
0.0000
11
21.0793
21
22.9025
31
0.0000
0
LINE
8
L00_
10
21.0793
20
22.9025
30
0.0000
11
21.6758
21
22.8941
31
0.0000
0
LINE
8
L00_
10
21.6758
20
22.8941
30
0.0000
11
22.2305
21
22.8615
31
0.0000
0
LINE
8
L00_
10
22.2305
20
22.8615
30
0.0000
11
22.7411
21
22.8034
31
0.0000
0
LINE
8
L00_
10
22.7411
20
22.8034
30
0.0000
11
23.2056
21
22.7187
31
0.0000
0
LINE
8
L00_
10
23.2056
20
22.7187
30
0.0000
11
23.6220
21
22.6060
31
0.0000
0
LINE
8
L00_
10
23.6220
20
22.6060
30
0.0000
11
23.9890
21
22.4649
31
0.0000
0
LINE
8
L00_
10
23.9890
20
22.4649
30
0.0000
11
24.3090
21
22.2975
31
0.0000
0
LINE
8
L00_
10
24.3090
20
22.2975
30
0.0000
11
24.5854
21
22.1064
31
0.0000
0
LINE
8
L00_
10
24.5854
20
22.1064
30
0.0000
11
24.8214
21
21.8946
31
0.0000
0
LINE
8
L00_
10
24.8214
20
21.8946
30
0.0000
11
25.0204
21
21.6646
31
0.0000
0
LINE
8
L00_
10
25.0204
20
21.6646
30
0.0000
11
25.1857
21
21.4193
31
0.0000
0
LINE
8
L00_
10
25.1857
20
21.4193
30
0.0000
11
25.3205
21
21.1615
31
0.0000
0
LINE
8
L00_
10
25.3205
20
21.1615
30
0.0000
11
25.4282
21
20.8939
31
0.0000
0
LINE
8
L00_
10
25.4282
20
20.8939
30
0.0000
11
25.5121
21
20.6191
31
0.0000
0
LINE
8
L00_
10
25.5121
20
20.6191
30
0.0000
11
25.5755
21
20.3401
31
0.0000
0
LINE
8
L00_
10
25.5755
20
20.3401
30
0.0000
11
25.6217
21
20.0596
31
0.0000
0
LINE
8
L00_
10
25.6217
20
20.0596
30
0.0000
11
25.6540
21
19.7803
31
0.0000
0
LINE
8
L00_
10
25.6540
20
19.7803
30
0.0000
11
25.6757
21
19.5049
31
0.0000
0
LINE
8
L00_
10
25.6757
20
19.5049
30
0.0000
11
25.6902
21
19.2362
31
0.0000
0
LINE
8
L00_
10
25.6902
20
19.2362
30
0.0000
11
25.7006
21
18.9771
31
0.0000
0
LINE
8
L00_
10
25.7006
20
18.9771
30
0.0000
11
25.7104
21
18.7301
31
0.0000
0
LINE
8
L00_
10
25.7104
20
18.7301
30
0.0000
11
25.7229
21
18.4982
31
0.0000
0
LINE
8
L00_
10
25.7229
20
18.4982
30
0.0000
11
25.7413
21
18.2840
31
0.0000
0
LINE
8
L00_
10
25.7413
20
18.2840
30
0.0000
11
25.7690
21
18.0904
31
0.0000
0
LINE
8
L00_
10
25.7690
20
18.0904
30
0.0000
11
25.8092
21
17.9199
31
0.0000
0
LINE
8
L00_
10
25.8092
20
17.9199
30
0.0000
11
25.8653
21
17.7755
31
0.0000
0
LINE
8
L00_
10
25.8653
20
17.7755
30
0.0000
11
25.9406
21
17.6599
31
0.0000
0
LINE
8
L00_
10
25.9406
20
17.6599
30
0.0000
11
26.0384
21
17.5758
31
0.0000
0
LINE
8
L00_
10
26.0384
20
17.5758
30
0.0000
11
26.1620
21
17.5260
31
0.0000
0
LINE
8
L00_
10
26.1620
20
17.5260
30
0.0000
11
26.3139
21
17.5125
31
0.0000
0
LINE
8
L00_
10
26.3139
20
17.5125
30
0.0000
11
26.4938
21
17.5345
31
0.0000
0
LINE
8
L00_
10
26.4938
20
17.5345
30
0.0000
11
26.7003
21
17.5905
31
0.0000
0
LINE
8
L00_
10
26.7003
20
17.5905
30
0.0000
11
26.9322
21
17.6789
31
0.0000
0
LINE
8
L00_
10
26.9322
20
17.6789
30
0.0000
11
27.1885
21
17.7981
31
0.0000
0
LINE
8
L00_
10
27.1885
20
17.7981
30
0.0000
11
27.4677
21
17.9467
31
0.0000
0
LINE
8
L00_
10
27.4677
20
17.9467
30
0.0000
11
27.7688
21
18.1230
31
0.0000
0
LINE
8
L00_
10
27.7688
20
18.1230
30
0.0000
11
28.0905
21
18.3256
31
0.0000
0
LINE
8
L00_
10
28.0905
20
18.3256
30
0.0000
11
28.4316
21
18.5529
31
0.0000
0
LINE
8
L00_
10
28.4316
20
18.5529
30
0.0000
11
28.7909
21
18.8033
31
0.0000
0
LINE
8
L00_
10
28.7909
20
18.8033
30
0.0000
11
29.1672
21
19.0754
31
0.0000
0
LINE
8
L00_
10
29.1672
20
19.0754
30
0.0000
11
29.5593
21
19.3675
31
0.0000
0
LINE
8
L00_
10
29.5593
20
19.3675
30
0.0000
11
29.9658
21
19.6781
31
0.0000
0
LINE
8
L00_
10
29.9658
20
19.6781
30
0.0000
11
30.3858
21
20.0057
31
0.0000
0
LINE
8
L00_
10
30.3858
20
20.0057
30
0.0000
11
30.8178
21
20.3488
31
0.0000
0
LINE
8
L00_
10
30.8178
20
20.3488
30
0.0000
11
31.2608
21
20.7057
31
0.0000
0
LINE
8
L00_
10
31.2608
20
20.7057
30
0.0000
11
31.7135
21
21.0750
31
0.0000
0
LINE
8
L00_
10
31.7135
20
21.0750
30
0.0000
11
32.1747
21
21.4551
31
0.0000
0
LINE
8
L00_
10
32.1747
20
21.4551
30
0.0000
11
32.6431
21
21.8444
31
0.0000
0
LINE
8
L00_
10
32.6431
20
21.8444
30
0.0000
11
33.1176
21
22.2415
31
0.0000
0
LINE
8
L00_
10
33.1176
20
22.2415
30
0.0000
11
33.5970
21
22.6447
31
0.0000
0
LINE
8
L00_
10
33.5970
20
22.6447
30
0.0000
11
34.0800
21
23.0526
31
0.0000
0
LINE
8
L00_
10
34.0800
20
23.0526
30
0.0000
11
34.5654
21
23.4635
31
0.0000
0
LINE
8
L00_
10
34.5654
20
23.4635
30
0.0000
11
35.0520
21
23.8760
31
0.0000
0
SOLID
8
L00_
10
4.5720
20
20.0660
30
0.0000
11
3.7176
21
20.3957
31
0.0000
12
3.9390
22
19.4042
32
0.0000
13
3.9390
23
19.4042
33
0.0000
0
SOLID
8
L00_
10
35.0520
20
23.8760
30
0.0000
11
35.9617
21
23.9812
31
0.0000
12
35.3048
22
24.7562
32
0.0000
13
35.3048
23
24.7562
33
0.0000
0
LINE
8
L00_
10
5.8420
20
18.7960
30
0.0000
11
6.8365
21
19.0180
31
0.0000
0
LINE
8
L00_
10
6.8365
20
19.0180
30
0.0000
11
7.8289
21
19.2389
31
0.0000
0
LINE
8
L00_
10
7.8289
20
19.2389
30
0.0000
11
8.8171
21
19.4573
31
0.0000
0
LINE
8
L00_
10
8.8171
20
19.4573
30
0.0000
11
9.7990
21
19.6721
31
0.0000
0
LINE
8
L00_
10
9.7990
20
19.6721
30
0.0000
11
10.7725
21
19.8820
31
0.0000
0
LINE
8
L00_
10
10.7725
20
19.8820
30
0.0000
11
11.7356
21
20.0858
31
0.0000
0
LINE
8
L00_
10
11.7356
20
20.0858
30
0.0000
11
12.6861
21
20.2824
31
0.0000
0
LINE
8
L00_
10
12.6861
20
20.2824
30
0.0000
11
13.6219
21
20.4705
31
0.0000
0
LINE
8
L00_
10
13.6219
20
20.4705
30
0.0000
11
14.5410
21
20.6489
31
0.0000
0
LINE
8
L00_
10
14.5410
20
20.6489
30
0.0000
11
15.4412
21
20.8164
31
0.0000
0
LINE
8
L00_
10
15.4412
20
20.8164
30
0.0000
11
16.3205
21
20.9717
31
0.0000
0
LINE
8
L00_
10
16.3205
20
20.9717
30
0.0000
11
17.1768
21
21.1138
31
0.0000
0
LINE
8
L00_
10
17.1768
20
21.1138
30
0.0000
11
18.0079
21
21.2412
31
0.0000
0
LINE
8
L00_
10
18.0079
20
21.2412
30
0.0000
11
18.8117
21
21.3529
31
0.0000
0
LINE
8
L00_
10
18.8117
20
21.3529
30
0.0000
11
19.5863
21
21.4476
31
0.0000
0
LINE
8
L00_
10
19.5863
20
21.4476
30
0.0000
11
20.3294
21
21.5241
31
0.0000
0
LINE
8
L00_
10
20.3294
20
21.5241
30
0.0000
11
21.0390
21
21.5813
31
0.0000
0
LINE
8
L00_
10
21.0390
20
21.5813
30
0.0000
11
21.7130
21
21.6178
31
0.0000
0
LINE
8
L00_
10
21.7130
20
21.6178
30
0.0000
11
22.3493
21
21.6325
31
0.0000
0
LINE
8
L00_
10
22.3493
20
21.6325
30
0.0000
11
22.9458
21
21.6241
31
0.0000
0
LINE
8
L00_
10
22.9458
20
21.6241
30
0.0000
11
23.5005
21
21.5915
31
0.0000
0
LINE
8
L00_
10
23.5005
20
21.5915
30
0.0000
11
24.0111
21
21.5334
31
0.0000
0
LINE
8
L00_
10
24.0111
20
21.5334
30
0.0000
11
24.4756
21
21.4487
31
0.0000
0
LINE
8
L00_
10
24.4756
20
21.4487
30
0.0000
11
24.8920
21
21.3360
31
0.0000
0
LINE
8
L00_
10
24.8920
20
21.3360
30
0.0000
11
25.2590
21
21.1949
31
0.0000
0
LINE
8
L00_
10
25.2590
20
21.1949
30
0.0000
11
25.5790
21
21.0275
31
0.0000
0
LINE
8
L00_
10
25.5790
20
21.0275
30
0.0000
11
25.8554
21
20.8364
31
0.0000
0
LINE
8
L00_
10
25.8554
20
20.8364
30
0.0000
11
26.0914
21
20.6246
31
0.0000
0
LINE
8
L00_
10
26.0914
20
20.6246
30
0.0000
11
26.2904
21
20.3946
31
0.0000
0
LINE
8
L00_
10
26.2904
20
20.3946
30
0.0000
11
26.4557
21
20.1493
31
0.0000
0
LINE
8
L00_
10
26.4557
20
20.1493
30
0.0000
11
26.5905
21
19.8915
31
0.0000
0
LINE
8
L00_
10
26.5905
20
19.8915
30
0.0000
11
26.6982
21
19.6239
31
0.0000
0
LINE
8
L00_
10
26.6982
20
19.6239
30
0.0000
11
26.7821
21
19.3491
31
0.0000
0
LINE
8
L00_
10
26.7821
20
19.3491
30
0.0000
11
26.8455
21
19.0701
31
0.0000
0
LINE
8
L00_
10
26.8455
20
19.0701
30
0.0000
11
26.8917
21
18.7896
31
0.0000
0
LINE
8
L00_
10
26.8917
20
18.7896
30
0.0000
11
26.9240
21
18.5103
31
0.0000
0
LINE
8
L00_
10
26.9240
20
18.5103
30
0.0000
11
26.9457
21
18.2349
31
0.0000
0
LINE
8
L00_
10
26.9457
20
18.2349
30
0.0000
11
26.9602
21
17.9662
31
0.0000
0
LINE
8
L00_
10
26.9602
20
17.9662
30
0.0000
11
26.9706
21
17.7071
31
0.0000
0
LINE
8
L00_
10
26.9706
20
17.7071
30
0.0000
11
26.9804
21
17.4601
31
0.0000
0
LINE
8
L00_
10
26.9804
20
17.4601
30
0.0000
11
26.9929
21
17.2282
31
0.0000
0
LINE
8
L00_
10
26.9929
20
17.2282
30
0.0000
11
27.0113
21
17.0140
31
0.0000
0
LINE
8
L00_
10
27.0113
20
17.0140
30
0.0000
11
27.0390
21
16.8204
31
0.0000
0
LINE
8
L00_
10
27.0390
20
16.8204
30
0.0000
11
27.0792
21
16.6499
31
0.0000
0
LINE
8
L00_
10
27.0792
20
16.6499
30
0.0000
11
27.1353
21
16.5055
31
0.0000
0
LINE
8
L00_
10
27.1353
20
16.5055
30
0.0000
11
27.2106
21
16.3899
31
0.0000
0
LINE
8
L00_
10
27.2106
20
16.3899
30
0.0000
11
27.3084
21
16.3058
31
0.0000
0
LINE
8
L00_
10
27.3084
20
16.3058
30
0.0000
11
27.4320
21
16.2560
31
0.0000
0
LINE
8
L00_
10
27.4320
20
16.2560
30
0.0000
11
27.5839
21
16.2425
31
0.0000
0
LINE
8
L00_
10
27.5839
20
16.2425
30
0.0000
11
27.7638
21
16.2645
31
0.0000
0
LINE
8
L00_
10
27.7638
20
16.2645
30
0.0000
11
27.9703
21
16.3205
31
0.0000
0
LINE
8
L00_
10
27.9703
20
16.3205
30
0.0000
11
28.2022
21
16.4089
31
0.0000
0
LINE
8
L00_
10
28.2022
20
16.4089
30
0.0000
11
28.4585
21
16.5281
31
0.0000
0
LINE
8
L00_
10
28.4585
20
16.5281
30
0.0000
11
28.7377
21
16.6767
31
0.0000
0
LINE
8
L00_
10
28.7377
20
16.6767
30
0.0000
11
29.0388
21
16.8530
31
0.0000
0
LINE
8
L00_
10
29.0388
20
16.8530
30
0.0000
11
29.3605
21
17.0556
31
0.0000
0
LINE
8
L00_
10
29.3605
20
17.0556
30
0.0000
11
29.7016
21
17.2829
31
0.0000
0
LINE
8
L00_
10
29.7016
20
17.2829
30
0.0000
11
30.0609
21
17.5333
31
0.0000
0
LINE
8
L00_
10
30.0609
20
17.5333
30
0.0000
11
30.4372
21
17.8054
31
0.0000
0
LINE
8
L00_
10
30.4372
20
17.8054
30
0.0000
11
30.8293
21
18.0975
31
0.0000
0
LINE
8
L00_
10
30.8293
20
18.0975
30
0.0000
11
31.2358
21
18.4081
31
0.0000
0
LINE
8
L00_
10
31.2358
20
18.4081
30
0.0000
11
31.6558
21
18.7357
31
0.0000
0
LINE
8
L00_
10
31.6558
20
18.7357
30
0.0000
11
32.0878
21
19.0788
31
0.0000
0
LINE
8
L00_
10
32.0878
20
19.0788
30
0.0000
11
32.5308
21
19.4357
31
0.0000
0
LINE
8
L00_
10
32.5308
20
19.4357
30
0.0000
11
32.9835
21
19.8050
31
0.0000
0
LINE
8
L00_
10
32.9835
20
19.8050
30
0.0000
11
33.4447
21
20.1851
31
0.0000
0
LINE
8
L00_
10
33.4447
20
20.1851
30
0.0000
11
33.9131
21
20.5744
31
0.0000
0
LINE
8
L00_
10
33.9131
20
20.5744
30
0.0000
11
34.3876
21
20.9715
31
0.0000
0
LINE
8
L00_
10
34.3876
20
20.9715
30
0.0000
11
34.8670
21
21.3747
31
0.0000
0
LINE
8
L00_
10
34.8670
20
21.3747
30
0.0000
11
35.3500
21
21.7826
31
0.0000
0
LINE
8
L00_
10
35.3500
20
21.7826
30
0.0000
11
35.8354
21
22.1935
31
0.0000
0
LINE
8
L00_
10
35.8354
20
22.1935
30
0.0000
11
36.3220
21
22.6060
31
0.0000
0
SOLID
8
L00_
10
5.8420
20
18.7960
30
0.0000
11
4.9876
21
19.1257
31
0.0000
12
5.2090
22
18.1342
32
0.0000
13
5.2090
23
18.1342
33
0.0000
0
POLYLINE
8
L00_
66
1
70
0
0
VERTEX
8
L00_
10
5.7313
20
19.2918
30
0.0000
0
VERTEX
8
L00_
10
5.9527
20
18.3002
30
0.0000
0
SEQEND
0
SOLID
8
L00_
10
36.3220
20
22.6060
30
0.0000
11
37.2317
21
22.7112
31
0.0000
12
36.5748
22
23.4862
32
0.0000
13
36.5748
23
23.4862
33
0.0000
0
POLYLINE
8
L00_
66
1
70
0
0
VERTEX
8
L00_
10
36.6505
20
22.2185
30
0.0000
0
VERTEX
8
L00_
10
35.9935
20
22.9935
30
0.0000
0
SEQEND
0
LINE
8
L00_
10
7.1120
20
17.5260
30
0.0000
11
8.1065
21
17.7480
31
0.0000
0
LINE
8
L00_
10
8.1065
20
17.7480
30
0.0000
11
9.0989
21
17.9689
31
0.0000
0
LINE
8
L00_
10
9.0989
20
17.9689
30
0.0000
11
10.0871
21
18.1873
31
0.0000
0
LINE
8
L00_
10
10.0871
20
18.1873
30
0.0000
11
11.0690
21
18.4021
31
0.0000
0
LINE
8
L00_
10
11.0690
20
18.4021
30
0.0000
11
12.0425
21
18.6120
31
0.0000
0
LINE
8
L00_
10
12.0425
20
18.6120
30
0.0000
11
13.0056
21
18.8158
31
0.0000
0
LINE
8
L00_
10
13.0056
20
18.8158
30
0.0000
11
13.9561
21
19.0124
31
0.0000
0
LINE
8
L00_
10
13.9561
20
19.0124
30
0.0000
11
14.8919
21
19.2005
31
0.0000
0
LINE
8
L00_
10
14.8919
20
19.2005
30
0.0000
11
15.8110
21
19.3789
31
0.0000
0
LINE
8
L00_
10
15.8110
20
19.3789
30
0.0000
11
16.7112
21
19.5464
31
0.0000
0
LINE
8
L00_
10
16.7112
20
19.5464
30
0.0000
11
17.5905
21
19.7017
31
0.0000
0
LINE
8
L00_
10
17.5905
20
19.7017
30
0.0000
11
18.4468
21
19.8438
31
0.0000
0
LINE
8
L00_
10
18.4468
20
19.8438
30
0.0000
11
19.2779
21
19.9712
31
0.0000
0
LINE
8
L00_
10
19.2779
20
19.9712
30
0.0000
11
20.0817
21
20.0829
31
0.0000
0
LINE
8
L00_
10
20.0817
20
20.0829
30
0.0000
11
20.8563
21
20.1776
31
0.0000
0
LINE
8
L00_
10
20.8563
20
20.1776
30
0.0000
11
21.5994
21
20.2541
31
0.0000
0
LINE
8
L00_
10
21.5994
20
20.2541
30
0.0000
11
22.3090
21
20.3113
31
0.0000
0
LINE
8
L00_
10
22.3090
20
20.3113
30
0.0000
11
22.9830
21
20.3478
31
0.0000
0
LINE
8
L00_
10
22.9830
20
20.3478
30
0.0000
11
23.6193
21
20.3625
31
0.0000
0
LINE
8
L00_
10
23.6193
20
20.3625
30
0.0000
11
24.2158
21
20.3541
31
0.0000
0
LINE
8
L00_
10
24.2158
20
20.3541
30
0.0000
11
24.7705
21
20.3215
31
0.0000
0
LINE
8
L00_
10
24.7705
20
20.3215
30
0.0000
11
25.2811
21
20.2634
31
0.0000
0
LINE
8
L00_
10
25.2811
20
20.2634
30
0.0000
11
25.7456
21
20.1787
31
0.0000
0
LINE
8
L00_
10
25.7456
20
20.1787
30
0.0000
11
26.1620
21
20.0660
31
0.0000
0
LINE
8
L00_
10
26.1620
20
20.0660
30
0.0000
11
26.5290
21
19.9249
31
0.0000
0
LINE
8
L00_
10
26.5290
20
19.9249
30
0.0000
11
26.8490
21
19.7575
31
0.0000
0
LINE
8
L00_
10
26.8490
20
19.7575
30
0.0000
11
27.1254
21
19.5664
31
0.0000
0
LINE
8
L00_
10
27.1254
20
19.5664
30
0.0000
11
27.3614
21
19.3546
31
0.0000
0
LINE
8
L00_
10
27.3614
20
19.3546
30
0.0000
11
27.5604
21
19.1246
31
0.0000
0
LINE
8
L00_
10
27.5604
20
19.1246
30
0.0000
11
27.7257
21
18.8793
31
0.0000
0
LINE
8
L00_
10
27.7257
20
18.8793
30
0.0000
11
27.8605
21
18.6215
31
0.0000
0
LINE
8
L00_
10
27.8605
20
18.6215
30
0.0000
11
27.9682
21
18.3539
31
0.0000
0
LINE
8
L00_
10
27.9682
20
18.3539
30
0.0000
11
28.0521
21
18.0791
31
0.0000
0
LINE
8
L00_
10
28.0521
20
18.0791
30
0.0000
11
28.1155
21
17.8001
31
0.0000
0
LINE
8
L00_
10
28.1155
20
17.8001
30
0.0000
11
28.1617
21
17.5196
31
0.0000
0
LINE
8
L00_
10
28.1617
20
17.5196
30
0.0000
11
28.1940
21
17.2403
31
0.0000
0
LINE
8
L00_
10
28.1940
20
17.2403
30
0.0000
11
28.2157
21
16.9649
31
0.0000
0
LINE
8
L00_
10
28.2157
20
16.9649
30
0.0000
11
28.2302
21
16.6962
31
0.0000
0
LINE
8
L00_
10
28.2302
20
16.6962
30
0.0000
11
28.2406
21
16.4371
31
0.0000
0
LINE
8
L00_
10
28.2406
20
16.4371
30
0.0000
11
28.2504
21
16.1901
31
0.0000
0
LINE
8
L00_
10
28.2504
20
16.1901
30
0.0000
11
28.2629
21
15.9582
31
0.0000
0
LINE
8
L00_
10
28.2629
20
15.9582
30
0.0000
11
28.2813
21
15.7440
31
0.0000
0
LINE
8
L00_
10
28.2813
20
15.7440
30
0.0000
11
28.3090
21
15.5504
31
0.0000
0
LINE
8
L00_
10
28.3090
20
15.5504
30
0.0000
11
28.3492
21
15.3799
31
0.0000
0
LINE
8
L00_
10
28.3492
20
15.3799
30
0.0000
11
28.4053
21
15.2355
31
0.0000
0
LINE
8
L00_
10
28.4053
20
15.2355
30
0.0000
11
28.4806
21
15.1199
31
0.0000
0
LINE
8
L00_
10
28.4806
20
15.1199
30
0.0000
11
28.5784
21
15.0358
31
0.0000
0
LINE
8
L00_
10
28.5784
20
15.0358
30
0.0000
11
28.7020
21
14.9860
31
0.0000
0
LINE
8
L00_
10
28.7020
20
14.9860
30
0.0000
11
28.8539
21
14.9725
31
0.0000
0
LINE
8
L00_
10
28.8539
20
14.9725
30
0.0000
11
29.0338
21
14.9945
31
0.0000
0
LINE
8
L00_
10
29.0338
20
14.9945
30
0.0000
11
29.2403
21
15.0505
31
0.0000
0
LINE
8
L00_
10
29.2403
20
15.0505
30
0.0000
11
29.4722
21
15.1389
31
0.0000
0
LINE
8
L00_
10
29.4722
20
15.1389
30
0.0000
11
29.7285
21
15.2581
31
0.0000
0
LINE
8
L00_
10
29.7285
20
15.2581
30
0.0000
11
30.0077
21
15.4067
31
0.0000
0
LINE
8
L00_
10
30.0077
20
15.4067
30
0.0000
11
30.3088
21
15.5830
31
0.0000
0
LINE
8
L00_
10
30.3088
20
15.5830
30
0.0000
11
30.6305
21
15.7856
31
0.0000
0
LINE
8
L00_
10
30.6305
20
15.7856
30
0.0000
11
30.9716
21
16.0129
31
0.0000
0
LINE
8
L00_
10
30.9716
20
16.0129
30
0.0000
11
31.3309
21
16.2633
31
0.0000
0
LINE
8
L00_
10
31.3309
20
16.2633
30
0.0000
11
31.7072
21
16.5354
31
0.0000
0
LINE
8
L00_
10
31.7072
20
16.5354
30
0.0000
11
32.0993
21
16.8275
31
0.0000
0
LINE
8
L00_
10
32.0993
20
16.8275
30
0.0000
11
32.5058
21
17.1381
31
0.0000
0
LINE
8
L00_
10
32.5058
20
17.1381
30
0.0000
11
32.9258
21
17.4657
31
0.0000
0
LINE
8
L00_
10
32.9258
20
17.4657
30
0.0000
11
33.3578
21
17.8088
31
0.0000
0
LINE
8
L00_
10
33.3578
20
17.8088
30
0.0000
11
33.8008
21
18.1657
31
0.0000
0
LINE
8
L00_
10
33.8008
20
18.1657
30
0.0000
11
34.2535
21
18.5350
31
0.0000
0
LINE
8
L00_
10
34.2535
20
18.5350
30
0.0000
11
34.7147
21
18.9151
31
0.0000
0
LINE
8
L00_
10
34.7147
20
18.9151
30
0.0000
11
35.1831
21
19.3044
31
0.0000
0
LINE
8
L00_
10
35.1831
20
19.3044
30
0.0000
11
35.6576
21
19.7015
31
0.0000
0
LINE
8
L00_
10
35.6576
20
19.7015
30
0.0000
11
36.1370
21
20.1047
31
0.0000
0
LINE
8
L00_
10
36.1370
20
20.1047
30
0.0000
11
36.6200
21
20.5126
31
0.0000
0
LINE
8
L00_
10
36.6200
20
20.5126
30
0.0000
11
37.1054
21
20.9235
31
0.0000
0
LINE
8
L00_
10
37.1054
20
20.9235
30
0.0000
11
37.5920
21
21.3360
31
0.0000
0
POLYLINE
8
L00_
66
1
70
0
0
VERTEX
8
L00_
10
7.1120
20
17.5260
30
0.0000
0
VERTEX
8
L00_
10
6.2576
20
17.8557
30
0.0000
0
SEQEND
0
POLYLINE
8
L00_
66
1
70
0
0
VERTEX
8
L00_
10
7.1120
20
17.5260
30
0.0000
0
VERTEX
8
L00_
10
6.4790
20
16.8642
30
0.0000
0
SEQEND
0
POLYLINE
8
L00_
66
1
70
0
0
VERTEX
8
L00_
10
37.5920
20
21.3360
30
0.0000
0
VERTEX
8
L00_
10
38.5017
20
21.4412
30
0.0000
0
SEQEND
0
POLYLINE
8
L00_
66
1
70
0
0
VERTEX
8
L00_
10
37.5920
20
21.3360
30
0.0000
0
VERTEX
8
L00_
10
37.8448
20
22.2162
30
0.0000
0
SEQEND
0
LINE
8
L00_
10
8.3820
20
16.2560
30
0.0000
11
9.3765
21
16.4780
31
0.0000
0
LINE
8
L00_
10
9.3765
20
16.4780
30
0.0000
11
10.3689
21
16.6989
31
0.0000
0
LINE
8
L00_
10
10.3689
20
16.6989
30
0.0000
11
11.3571
21
16.9173
31
0.0000
0
LINE
8
L00_
10
11.3571
20
16.9173
30
0.0000
11
12.3390
21
17.1321
31
0.0000
0
LINE
8
L00_
10
12.3390
20
17.1321
30
0.0000
11
13.3125
21
17.3420
31
0.0000
0
LINE
8
L00_
10
13.3125
20
17.3420
30
0.0000
11
14.2756
21
17.5458
31
0.0000
0
LINE
8
L00_
10
14.2756
20
17.5458
30
0.0000
11
15.2261
21
17.7424
31
0.0000
0
LINE
8
L00_
10
15.2261
20
17.7424
30
0.0000
11
16.1619
21
17.9305
31
0.0000
0
LINE
8
L00_
10
16.1619
20
17.9305
30
0.0000
11
17.0810
21
18.1089
31
0.0000
0
LINE
8
L00_
10
17.0810
20
18.1089
30
0.0000
11
17.9812
21
18.2764
31
0.0000
0
LINE
8
L00_
10
17.9812
20
18.2764
30
0.0000
11
18.8605
21
18.4317
31
0.0000
0
LINE
8
L00_
10
18.8605
20
18.4317
30
0.0000
11
19.7168
21
18.5738
31
0.0000
0
LINE
8
L00_
10
19.7168
20
18.5738
30
0.0000
11
20.5479
21
18.7012
31
0.0000
0
LINE
8
L00_
10
20.5479
20
18.7012
30
0.0000
11
21.3517
21
18.8129
31
0.0000
0
LINE
8
L00_
10
21.3517
20
18.8129
30
0.0000
11
22.1263
21
18.9076
31
0.0000
0
LINE
8
L00_
10
22.1263
20
18.9076
30
0.0000
11
22.8694
21
18.9841
31
0.0000
0
LINE
8
L00_
10
22.8694
20
18.9841
30
0.0000
11
23.5790
21
19.0413
31
0.0000
0
LINE
8
L00_
10
23.5790
20
19.0413
30
0.0000
11
24.2530
21
19.0778
31
0.0000
0
LINE
8
L00_
10
24.2530
20
19.0778
30
0.0000
11
24.8893
21
19.0925
31
0.0000
0
LINE
8
L00_
10
24.8893
20
19.0925
30
0.0000
11
25.4858
21
19.0841
31
0.0000
0
LINE
8
L00_
10
25.4858
20
19.0841
30
0.0000
11
26.0405
21
19.0515
31
0.0000
0
LINE
8
L00_
10
26.0405
20
19.0515
30
0.0000
11
26.5511
21
18.9934
31
0.0000
0
LINE
8
L00_
10
26.5511
20
18.9934
30
0.0000
11
27.0156
21
18.9087
31
0.0000
0
LINE
8
L00_
10
27.0156
20
18.9087
30
0.0000
11
27.4320
21
18.7960
31
0.0000
0
LINE
8
L00_
10
27.4320
20
18.7960
30
0.0000
11
27.7990
21
18.6549
31
0.0000
0
LINE
8
L00_
10
27.7990
20
18.6549
30
0.0000
11
28.1190
21
18.4875
31
0.0000
0
LINE
8
L00_
10
28.1190
20
18.4875
30
0.0000
11
28.3954
21
18.2964
31
0.0000
0
LINE
8
L00_
10
28.3954
20
18.2964
30
0.0000
11
28.6314
21
18.0846
31
0.0000
0
LINE
8
L00_
10
28.6314
20
18.0846
30
0.0000
11
28.8304
21
17.8546
31
0.0000
0
LINE
8
L00_
10
28.8304
20
17.8546
30
0.0000
11
28.9957
21
17.6093
31
0.0000
0
LINE
8
L00_
10
28.9957
20
17.6093
30
0.0000
11
29.1305
21
17.3515
31
0.0000
0
LINE
8
L00_
10
29.1305
20
17.3515
30
0.0000
11
29.2382
21
17.0839
31
0.0000
0
LINE
8
L00_
10
29.2382
20
17.0839
30
0.0000
11
29.3221
21
16.8091
31
0.0000
0
LINE
8
L00_
10
29.3221
20
16.8091
30
0.0000
11
29.3855
21
16.5301
31
0.0000
0
LINE
8
L00_
10
29.3855
20
16.5301
30
0.0000
11
29.4317
21
16.2496
31
0.0000
0
LINE
8
L00_
10
29.4317
20
16.2496
30
0.0000
11
29.4640
21
15.9703
31
0.0000
0
LINE
8
L00_
10
29.4640
20
15.9703
30
0.0000
11
29.4857
21
15.6949
31
0.0000
0
LINE
8
L00_
10
29.4857
20
15.6949
30
0.0000
11
29.5002
21
15.4262
31
0.0000
0
LINE
8
L00_
10
29.5002
20
15.4262
30
0.0000
11
29.5106
21
15.1671
31
0.0000
0
LINE
8
L00_
10
29.5106
20
15.1671
30
0.0000
11
29.5204
21
14.9201
31
0.0000
0
LINE
8
L00_
10
29.5204
20
14.9201
30
0.0000
11
29.5329
21
14.6882
31
0.0000
0
LINE
8
L00_
10
29.5329
20
14.6882
30
0.0000
11
29.5513
21
14.4740
31
0.0000
0
LINE
8
L00_
10
29.5513
20
14.4740
30
0.0000
11
29.5790
21
14.2804
31
0.0000
0
LINE
8
L00_
10
29.5790
20
14.2804
30
0.0000
11
29.6192
21
14.1099
31
0.0000
0
LINE
8
L00_
10
29.6192
20
14.1099
30
0.0000
11
29.6753
21
13.9655
31
0.0000
0
LINE
8
L00_
10
29.6753
20
13.9655
30
0.0000
11
29.7506
21
13.8499
31
0.0000
0
LINE
8
L00_
10
29.7506
20
13.8499
30
0.0000
11
29.8484
21
13.7658
31
0.0000
0
LINE
8
L00_
10
29.8484
20
13.7658
30
0.0000
11
29.9720
21
13.7160
31
0.0000
0
LINE
8
L00_
10
29.9720
20
13.7160
30
0.0000
11
30.1239
21
13.7025
31
0.0000
0
LINE
8
L00_
10
30.1239
20
13.7025
30
0.0000
11
30.3038
21
13.7245
31
0.0000
0
LINE
8
L00_
10
30.3038
20
13.7245
30
0.0000
11
30.5103
21
13.7805
31
0.0000
0
LINE
8
L00_
10
30.5103
20
13.7805
30
0.0000
11
30.7422
21
13.8689
31
0.0000
0
LINE
8
L00_
10
30.7422
20
13.8689
30
0.0000
11
30.9985
21
13.9881
31
0.0000
0
LINE
8
L00_
10
30.9985
20
13.9881
30
0.0000
11
31.2777
21
14.1367
31
0.0000
0
LINE
8
L00_
10
31.2777
20
14.1367
30
0.0000
11
31.5788
21
14.3130
31
0.0000
0
LINE
8
L00_
10
31.5788
20
14.3130
30
0.0000
11
31.9005
21
14.5156
31
0.0000
0
LINE
8
L00_
10
31.9005
20
14.5156
30
0.0000
11
32.2416
21
14.7429
31
0.0000
0
LINE
8
L00_
10
32.2416
20
14.7429
30
0.0000
11
32.6009
21
14.9933
31
0.0000
0
LINE
8
L00_
10
32.6009
20
14.9933
30
0.0000
11
32.9772
21
15.2654
31
0.0000
0
LINE
8
L00_
10
32.9772
20
15.2654
30
0.0000
11
33.3693
21
15.5575
31
0.0000
0
LINE
8
L00_
10
33.3693
20
15.5575
30
0.0000
11
33.7758
21
15.8681
31
0.0000
0
LINE
8
L00_
10
33.7758
20
15.8681
30
0.0000
11
34.1958
21
16.1957
31
0.0000
0
LINE
8
L00_
10
34.1958
20
16.1957
30
0.0000
11
34.6278
21
16.5388
31
0.0000
0
LINE
8
L00_
10
34.6278
20
16.5388
30
0.0000
11
35.0708
21
16.8957
31
0.0000
0
LINE
8
L00_
10
35.0708
20
16.8957
30
0.0000
11
35.5235
21
17.2650
31
0.0000
0
LINE
8
L00_
10
35.5235
20
17.2650
30
0.0000
11
35.9847
21
17.6451
31
0.0000
0
LINE
8
L00_
10
35.9847
20
17.6451
30
0.0000
11
36.4531
21
18.0344
31
0.0000
0
LINE
8
L00_
10
36.4531
20
18.0344
30
0.0000
11
36.9276
21
18.4315
31
0.0000
0
LINE
8
L00_
10
36.9276
20
18.4315
30
0.0000
11
37.4070
21
18.8347
31
0.0000
0
LINE
8
L00_
10
37.4070
20
18.8347
30
0.0000
11
37.8900
21
19.2426
31
0.0000
0
LINE
8
L00_
10
37.8900
20
19.2426
30
0.0000
11
38.3754
21
19.6535
31
0.0000
0
LINE
8
L00_
10
38.3754
20
19.6535
30
0.0000
11
38.8620
21
20.0660
31
0.0000
0
POLYLINE
8
L00_
66
1
70
0
0
VERTEX
8
L00_
10
8.3820
20
16.2560
30
0.0000
0
VERTEX
8
L00_
10
7.5276
20
16.5857
30
0.0000
0
SEQEND
0
POLYLINE
8
L00_
66
1
70
0
0
VERTEX
8
L00_
10
8.3820
20
16.2560
30
0.0000
0
VERTEX
8
L00_
10
7.7490
20
15.5942
30
0.0000
0
SEQEND
0
POLYLINE
8
L00_
66
1
70
0
0
VERTEX
8
L00_
10
8.2713
20
16.7518
30
0.0000
0
VERTEX
8
L00_
10
8.4927
20
15.7602
30
0.0000
0
SEQEND
0
POLYLINE
8
L00_
66
1
70
0
0
VERTEX
8
L00_
10
38.8620
20
20.0660
30
0.0000
0
VERTEX
8
L00_
10
39.7717
20
20.1712
30
0.0000
0
SEQEND
0
POLYLINE
8
L00_
66
1
70
0
0
VERTEX
8
L00_
10
38.8620
20
20.0660
30
0.0000
0
VERTEX
8
L00_
10
39.1148
20
20.9462
30
0.0000
0
SEQEND
0
POLYLINE
8
L00_
66
1
70
0
0
VERTEX
8
L00_
10
39.1905
20
19.6785
30
0.0000
0
VERTEX
8
L00_
10
38.5335
20
20.4535
30
0.0000
0
SEQEND
0
SOLID
8
L00_
10
43.9420
20
21.3360
30
0.0000
11
44.8056
21
21.6408
31
0.0000
12
43.9928
22
22.2504
32
0.0000
13
43.9928
23
22.2504
33
0.0000
0
SOLID
8
L00_
10
51.5620
20
21.3360
30
0.0000
11
51.6756
21
22.2447
31
0.0000
12
50.7669
22
21.7904
32
0.0000
13
50.7669
23
21.7904
33
0.0000
0
POLYLINE
8
L00_
66
1
70
0
0
VERTEX
8
L00_
10
43.9420
20
21.3360
30
0.0000
0
VERTEX
8
L00_
10
43.4996
20
20.6121
30
0.0000
0
VERTEX
8
L00_
10
43.2981
20
19.9644
30
0.0000
0
VERTEX
8
L00_
10
43.3119
20
19.3929
30
0.0000
0
VERTEX
8
L00_
10
43.5153
20
18.8976
30
0.0000
0
VERTEX
8
L00_
10
43.8825
20
18.4785
30
0.0000
0
VERTEX
8
L00_
10
44.3878
20
18.1356
30
0.0000
0
VERTEX
8
L00_
10
45.0055
20
17.8689
30
0.0000
0
VERTEX
8
L00_
10
45.7098
20
17.6784
30
0.0000
0
VERTEX
8
L00_
10
46.4752
20
17.5641
30
0.0000
0
VERTEX
8
L00_
10
47.2758
20
17.5260
30
0.0000
0
VERTEX
8
L00_
10
48.0859
20
17.5641
30
0.0000
0
VERTEX
8
L00_
10
48.8798
20
17.6784
30
0.0000
0
VERTEX
8
L00_
10
49.6318
20
17.8689
30
0.0000
0
VERTEX
8
L00_
10
50.3161
20
18.1356
30
0.0000
0
VERTEX
8
L00_
10
50.9072
20
18.4785
30
0.0000
0
VERTEX
8
L00_
10
51.3791
20
18.8976
30
0.0000
0
VERTEX
8
L00_
10
51.7063
20
19.3929
30
0.0000
0
VERTEX
8
L00_
10
51.8630
20
19.9644
30
0.0000
0
VERTEX
8
L00_
10
51.8235
20
20.6121
30
0.0000
0
VERTEX
8
L00_
10
51.5620
20
21.3360
30
0.0000
0
SEQEND
0
POLYLINE
8
L00_
66
1
70
0
0
VERTEX
8
L00_
10
51.5620
20
21.3360
30
0.0000
0
VERTEX
8
L00_
10
51.5620
20
21.3360
30
0.0000
0
VERTEX
8
L00_
10
51.5620
20
21.3360
30
0.0000
0
VERTEX
8
L00_
10
51.5620
20
21.3360
30
0.0000
0
VERTEX
8
L00_
10
51.5620
20
21.3360
30
0.0000
0
VERTEX
8
L00_
10
51.5620
20
21.3360
30
0.0000
0
VERTEX
8
L00_
10
51.5620
20
21.3360
30
0.0000
0
VERTEX
8
L00_
10
51.5620
20
21.3360
30
0.0000
0
VERTEX
8
L00_
10
51.5620
20
21.3360
30
0.0000
0
VERTEX
8
L00_
10
51.5620
20
21.3360
30
0.0000
0
VERTEX
8
L00_
10
51.5620
20
21.3360
30
0.0000
0
VERTEX
8
L00_
10
51.5620
20
21.3360
30
0.0000
0
VERTEX
8
L00_
10
51.5620
20
21.3360
30
0.0000
0
VERTEX
8
L00_
10
51.5620
20
21.3360
30
0.0000
0
VERTEX
8
L00_
10
51.5620
20
21.3360
30
0.0000
0
VERTEX
8
L00_
10
51.5620
20
21.3360
30
0.0000
0
VERTEX
8
L00_
10
51.5620
20
21.3360
30
0.0000
0
VERTEX
8
L00_
10
51.5620
20
21.3360
30
0.0000
0
VERTEX
8
L00_
10
51.5620
20
21.3360
30
0.0000
0
VERTEX
8
L00_
10
51.5620
20
21.3360
30
0.0000
0
VERTEX
8
L00_
10
51.5620
20
21.3360
30
0.0000
0
SEQEND
0
POLYLINE
8
L00_
66
1
70
0
0
VERTEX
8
L00_
10
50.2920
20
18.7960
30
0.0000
0
VERTEX
8
L00_
10
50.2920
20
18.7960
30
0.0000
0
VERTEX
8
L00_
10
50.2920
20
18.7960
30
0.0000
0
VERTEX
8
L00_
10
50.2920
20
18.7960
30
0.0000
0
VERTEX
8
L00_
10
50.2920
20
18.7960
30
0.0000
0
VERTEX
8
L00_
10
50.2920
20
18.7960
30
0.0000
0
VERTEX
8
L00_
10
50.2920
20
18.7960
30
0.0000
0
VERTEX
8
L00_
10
50.2920
20
18.7960
30
0.0000
0
VERTEX
8
L00_
10
50.2920
20
18.7960
30
0.0000
0
VERTEX
8
L00_
10
50.2920
20
18.7960
30
0.0000
0
VERTEX
8
L00_
10
50.2920
20
18.7960
30
0.0000
0
VERTEX
8
L00_
10
50.2920
20
18.7960
30
0.0000
0
VERTEX
8
L00_
10
50.2920
20
18.7960
30
0.0000
0
VERTEX
8
L00_
10
50.2920
20
18.7960
30
0.0000
0
VERTEX
8
L00_
10
50.2920
20
18.7960
30
0.0000
0
VERTEX
8
L00_
10
50.2920
20
18.7960
30
0.0000
0
VERTEX
8
L00_
10
50.2920
20
18.7960
30
0.0000
0
VERTEX
8
L00_
10
50.2920
20
18.7960
30
0.0000
0
VERTEX
8
L00_
10
50.2920
20
18.7960
30
0.0000
0
VERTEX
8
L00_
10
50.2920
20
18.7960
30
0.0000
0
VERTEX
8
L00_
10
50.2920
20
18.7960
30
0.0000
0
SEQEND
0
SOLID
8
L00_
10
45.2120
20
20.0660
30
0.0000
11
46.0756
21
20.3708
31
0.0000
12
45.2628
22
20.9804
32
0.0000
13
45.2628
23
20.9804
33
0.0000
0
POLYLINE
8
L00_
66
1
70
0
0
VERTEX
8
L00_
10
45.6184
20
19.7612
30
0.0000
0
VERTEX
8
L00_
10
44.8056
20
20.3708
30
0.0000
0
SEQEND
0
SOLID
8
L00_
10
52.8320
20
20.0660
30
0.0000
11
52.9456
21
20.9747
31
0.0000
12
52.0369
22
20.5204
32
0.0000
13
52.0369
23
20.5204
33
0.0000
0
POLYLINE
8
L00_
66
1
70
0
0
VERTEX
8
L00_
10
53.2864
20
20.2932
30
0.0000
0
VERTEX
8
L00_
10
52.3776
20
19.8388
30
0.0000
0
SEQEND
0
POLYLINE
8
L00_
66
1
70
0
0
VERTEX
8
L00_
10
45.2120
20
20.0660
30
0.0000
0
VERTEX
8
L00_
10
44.7696
20
19.3421
30
0.0000
0
VERTEX
8
L00_
10
44.5681
20
18.6944
30
0.0000
0
VERTEX
8
L00_
10
44.5819
20
18.1229
30
0.0000
0
VERTEX
8
L00_
10
44.7853
20
17.6276
30
0.0000
0
VERTEX
8
L00_
10
45.1525
20
17.2085
30
0.0000
0
VERTEX
8
L00_
10
45.6578
20
16.8656
30
0.0000
0
VERTEX
8
L00_
10
46.2755
20
16.5989
30
0.0000
0
VERTEX
8
L00_
10
46.9798
20
16.4084
30
0.0000
0
VERTEX
8
L00_
10
47.7452
20
16.2941
30
0.0000
0
VERTEX
8
L00_
10
48.5458
20
16.2560
30
0.0000
0
VERTEX
8
L00_
10
49.3559
20
16.2941
30
0.0000
0
VERTEX
8
L00_
10
50.1498
20
16.4084
30
0.0000
0
VERTEX
8
L00_
10
50.9018
20
16.5989
30
0.0000
0
VERTEX
8
L00_
10
51.5861
20
16.8656
30
0.0000
0
VERTEX
8
L00_
10
52.1772
20
17.2085
30
0.0000
0
VERTEX
8
L00_
10
52.6491
20
17.6276
30
0.0000
0
VERTEX
8
L00_
10
52.9763
20
18.1229
30
0.0000
0
VERTEX
8
L00_
10
53.1330
20
18.6944
30
0.0000
0
VERTEX
8
L00_
10
53.0935
20
19.3421
30
0.0000
0
VERTEX
8
L00_
10
52.8320
20
20.0660
30
0.0000
0
SEQEND
0
POLYLINE
8
L00_
66
1
70
0
0
VERTEX
8
L00_
10
46.4820
20
18.7960
30
0.0000
0
VERTEX
8
L00_
10
47.3456
20
19.1008
30
0.0000
0
SEQEND
0
POLYLINE
8
L00_
66
1
70
0
0
VERTEX
8
L00_
10
46.4820
20
18.7960
30
0.0000
0
VERTEX
8
L00_
10
46.5328
20
19.7104
30
0.0000
0
SEQEND
0
POLYLINE
8
L00_
66
1
70
0
0
VERTEX
8
L00_
10
54.1020
20
18.7960
30
0.0000
0
VERTEX
8
L00_
10
54.2156
20
19.7047
30
0.0000
0
SEQEND
0
POLYLINE
8
L00_
66
1
70
0
0
VERTEX
8
L00_
10
54.1020
20
18.7960
30
0.0000
0
VERTEX
8
L00_
10
53.3069
20
19.2504
30
0.0000
0
SEQEND
0
POLYLINE
8
L00_
66
1
70
0
0
VERTEX
8
L00_
10
46.4820
20
18.7960
30
0.0000
0
VERTEX
8
L00_
10
46.0396
20
18.0721
30
0.0000
0
VERTEX
8
L00_
10
45.8381
20
17.4244
30
0.0000
0
VERTEX
8
L00_
10
45.8519
20
16.8529
30
0.0000
0
VERTEX
8
L00_
10
46.0553
20
16.3576
30
0.0000
0
VERTEX
8
L00_
10
46.4225
20
15.9385
30
0.0000
0
VERTEX
8
L00_
10
46.9278
20
15.5956
30
0.0000
0
VERTEX
8
L00_
10
47.5455
20
15.3289
30
0.0000
0
VERTEX
8
L00_
10
48.2498
20
15.1384
30
0.0000
0
VERTEX
8
L00_
10
49.0152
20
15.0241
30
0.0000
0
VERTEX
8
L00_
10
49.8158
20
14.9860
30
0.0000
0
VERTEX
8
L00_
10
50.6259
20
15.0241
30
0.0000
0
VERTEX
8
L00_
10
51.4198
20
15.1384
30
0.0000
0
VERTEX
8
L00_
10
52.1718
20
15.3289
30
0.0000
0
VERTEX
8
L00_
10
52.8561
20
15.5956
30
0.0000
0
VERTEX
8
L00_
10
53.4472
20
15.9385
30
0.0000
0
VERTEX
8
L00_
10
53.9191
20
16.3576
30
0.0000
0
VERTEX
8
L00_
10
54.2463
20
16.8529
30
0.0000
0
VERTEX
8
L00_
10
54.4030
20
17.4244
30
0.0000
0
VERTEX
8
L00_
10
54.3635
20
18.0721
30
0.0000
0
VERTEX
8
L00_
10
54.1020
20
18.7960
30
0.0000
0
SEQEND
0
POLYLINE
8
L00_
66
1
70
0
0
VERTEX
8
L00_
10
47.7520
20
17.5260
30
0.0000
0
VERTEX
8
L00_
10
48.6156
20
17.8308
30
0.0000
0
SEQEND
0
POLYLINE
8
L00_
66
1
70
0
0
VERTEX
8
L00_
10
47.7520
20
17.5260
30
0.0000
0
VERTEX
8
L00_
10
47.8028
20
18.4404
30
0.0000
0
SEQEND
0
POLYLINE
8
L00_
66
1
70
0
0
VERTEX
8
L00_
10
48.1584
20
17.2212
30
0.0000
0
VERTEX
8
L00_
10
47.3456
20
17.8308
30
0.0000
0
SEQEND
0
POLYLINE
8
L00_
66
1
70
0
0
VERTEX
8
L00_
10
55.3720
20
17.5260
30
0.0000
0
VERTEX
8
L00_
10
55.4856
20
18.4347
30
0.0000
0
SEQEND
0
POLYLINE
8
L00_
66
1
70
0
0
VERTEX
8
L00_
10
55.3720
20
17.5260
30
0.0000
0
VERTEX
8
L00_
10
54.5769
20
17.9804
30
0.0000
0
SEQEND
0
POLYLINE
8
L00_
66
1
70
0
0
VERTEX
8
L00_
10
55.8264
20
17.7532
30
0.0000
0
VERTEX
8
L00_
10
54.9176
20
17.2988
30
0.0000
0
SEQEND
0
POLYLINE
8
L00_
66
1
70
0
0
VERTEX
8
L00_
10
47.7520
20
17.5260
30
0.0000
0
VERTEX
8
L00_
10
47.3096
20
16.8021
30
0.0000
0
VERTEX
8
L00_
10
47.1081
20
16.1544
30
0.0000
0
VERTEX
8
L00_
10
47.1219
20
15.5829
30
0.0000
0
VERTEX
8
L00_
10
47.3253
20
15.0876
30
0.0000
0
VERTEX
8
L00_
10
47.6925
20
14.6685
30
0.0000
0
VERTEX
8
L00_
10
48.1978
20
14.3256
30
0.0000
0
VERTEX
8
L00_
10
48.8155
20
14.0589
30
0.0000
0
VERTEX
8
L00_
10
49.5198
20
13.8684
30
0.0000
0
VERTEX
8
L00_
10
50.2852
20
13.7541
30
0.0000
0
VERTEX
8
L00_
10
51.0858
20
13.7160
30
0.0000
0
VERTEX
8
L00_
10
51.8959
20
13.7541
30
0.0000
0
VERTEX
8
L00_
10
52.6898
20
13.8684
30
0.0000
0
VERTEX
8
L00_
10
53.4418
20
14.0589
30
0.0000
0
VERTEX
8
L00_
10
54.1261
20
14.3256
30
0.0000
0
VERTEX
8
L00_
10
54.7172
20
14.6685
30
0.0000
0
VERTEX
8
L00_
10
55.1891
20
15.0876
30
0.0000
0
VERTEX
8
L00_
10
55.5163
20
15.5829
30
0.0000
0
VERTEX
8
L00_
10
55.6730
20
16.1544
30
0.0000
0
VERTEX
8
L00_
10
55.6335
20
16.8021
30
0.0000
0
VERTEX
8
L00_
10
55.3720
20
17.5260
30
0.0000
0
SEQEND
0
POLYLINE
8
L00_
66
1
70
0
0
VERTEX
8
L00_
10
5.8420
20
2.2860
30
0.0000
0
VERTEX
8
L00_
10
7.4681
20
6.2861
30
0.0000
0
SEQEND
0
POLYLINE
8
L00_
66
1
70
0
0
VERTEX
8
L00_
10
5.8420
20
2.2860
30
0.0000
0
VERTEX
8
L00_
10
10.0698
20
3.1641
30
0.0000
0
SEQEND
0
POLYLINE
8
L00_
66
1
70
0
0
VERTEX
8
L00_
10
4.5411
20
3.8470
30
0.0000
0
VERTEX
8
L00_
10
7.1429
20
0.7250
30
0.0000
0
SEQEND
0
POLYLINE
8
L00_
66
1
70
0
0
VERTEX
8
L00_
10
7.1120
20
11.1760
30
0.0000
0
VERTEX
8
L00_
10
9.1440
20
7.3660
30
0.0000
0
SEQEND
0
POLYLINE
8
L00_
66
1
70
0
0
VERTEX
8
L00_
10
7.1120
20
11.1760
30
0.0000
0
VERTEX
8
L00_
10
5.0800
20
7.3660
30
0.0000
0
SEQEND
0
POLYLINE
8
L00_
66
1
70
0
0
VERTEX
8
L00_
10
9.1440
20
11.1760
30
0.0000
0
VERTEX
8
L00_
10
5.0800
20
11.1760
30
0.0000
0
SEQEND
0
POLYLINE
8
L00_
66
1
70
0
0
VERTEX
8
L00_
10
8.7689
20
4.7251
30
0.0000
0
VERTEX
8
L00_
10
9.3922
20
5.2556
30
0.0000
0
VERTEX
8
L00_
10
9.8629
20
5.6808
30
0.0000
0
VERTEX
8
L00_
10
10.1941
20
6.0113
30
0.0000
0
VERTEX
8
L00_
10
10.3987
20
6.2577
30
0.0000
0
VERTEX
8
L00_
10
10.4899
20
6.4305
30
0.0000
0
VERTEX
8
L00_
10
10.4807
20
6.5402
30
0.0000
0
VERTEX
8
L00_
10
10.3841
20
6.5974
30
0.0000
0
VERTEX
8
L00_
10
10.2131
20
6.6127
30
0.0000
0
VERTEX
8
L00_
10
9.9809
20
6.5966
30
0.0000
0
VERTEX
8
L00_
10
9.7004
20
6.5596
30
0.0000
0
VERTEX
8
L00_
10
9.3847
20
6.5124
30
0.0000
0
VERTEX
8
L00_
10
9.0468
20
6.4655
30
0.0000
0
VERTEX
8
L00_
10
8.6999
20
6.4293
30
0.0000
0
VERTEX
8
L00_
10
8.3569
20
6.4146
30
0.0000
0
VERTEX
8
L00_
10
8.0309
20
6.4318
30
0.0000
0
VERTEX
8
L00_
10
7.7349
20
6.4914
30
0.0000
0
VERTEX
8
L00_
10
7.4819
20
6.6041
30
0.0000
0
VERTEX
8
L00_
10
7.2851
20
6.7804
30
0.0000
0
VERTEX
8
L00_
10
7.1575
20
7.0309
30
0.0000
0
VERTEX
8
L00_
10
7.1120
20
7.3660
30
0.0000
0
SEQEND
0
LINE
8
L00_
10
37.0840
20
13.2080
30
0.0000
11
36.9962
21
13.4970
31
0.0000
0
LINE
8
L00_
10
36.9962
20
13.4970
30
0.0000
11
36.9085
21
13.7837
31
0.0000
0
LINE
8
L00_
10
36.9085
20
13.7837
30
0.0000
11
36.8208
21
14.0659
31
0.0000
0
LINE
8
L00_
10
36.8208
20
14.0659
30
0.0000
11
36.7332
21
14.3415
31
0.0000
0
LINE
8
L00_
10
36.7332
20
14.3415
30
0.0000
11
36.6457
21
14.6080
31
0.0000
0
LINE
8
L00_
10
36.6457
20
14.6080
30
0.0000
11
36.5584
21
14.8634
31
0.0000
0
LINE
8
L00_
10
36.5584
20
14.8634
30
0.0000
11
36.4713
21
15.1052
31
0.0000
0
LINE
8
L00_
10
36.4713
20
15.1052
30
0.0000
11
36.3845
21
15.3314
31
0.0000
0
LINE
8
L00_
10
36.3845
20
15.3314
30
0.0000
11
36.2979
21
15.5397
31
0.0000
0
LINE
8
L00_
10
36.2979
20
15.5397
30
0.0000
11
36.2115
21
15.7277
31
0.0000
0
LINE
8
L00_
10
36.2115
20
15.7277
30
0.0000
11
36.1255
21
15.8934
31
0.0000
0
LINE
8
L00_
10
36.1255
20
15.8934
30
0.0000
11
36.0399
21
16.0344
31
0.0000
0
LINE
8
L00_
10
36.0399
20
16.0344
30
0.0000
11
35.9547
21
16.1484
31
0.0000
0
LINE
8
L00_
10
35.9547
20
16.1484
30
0.0000
11
35.8698
21
16.2334
31
0.0000
0
LINE
8
L00_
10
35.8698
20
16.2334
30
0.0000
11
35.7855
21
16.2869
31
0.0000
0
LINE
8
L00_
10
35.7855
20
16.2869
30
0.0000
11
35.7016
21
16.3068
31
0.0000
0
LINE
8
L00_
10
35.7016
20
16.3068
30
0.0000
11
35.6182
21
16.2908
31
0.0000
0
LINE
8
L00_
10
35.6182
20
16.2908
30
0.0000
11
35.5354
21
16.2367
31
0.0000
0
LINE
8
L00_
10
35.5354
20
16.2367
30
0.0000
11
35.4532
21
16.1422
31
0.0000
0
LINE
8
L00_
10
35.4532
20
16.1422
30
0.0000
11
35.3716
21
16.0052
31
0.0000
0
LINE
8
L00_
10
35.3716
20
16.0052
30
0.0000
11
35.2906
21
15.8232
31
0.0000
0
LINE
8
L00_
10
35.2906
20
15.8232
30
0.0000
11
35.2104
21
15.5942
31
0.0000
0
LINE
8
L00_
10
35.2104
20
15.5942
30
0.0000
11
35.1308
21
15.3159
31
0.0000
0
LINE
8
L00_
10
35.1308
20
15.3159
30
0.0000
11
35.0520
21
14.9860
31
0.0000
0
LINE
8
L00_
10
35.0520
20
14.9860
30
0.0000
11
34.9742
21
14.6036
31
0.0000
0
LINE
8
L00_
10
34.9742
20
14.6036
30
0.0000
11
34.8984
21
14.1728
31
0.0000
0
LINE
8
L00_
10
34.8984
20
14.1728
30
0.0000
11
34.8260
21
13.6992
31
0.0000
0
LINE
8
L00_
10
34.8260
20
13.6992
30
0.0000
11
34.7581
21
13.1882
31
0.0000
0
LINE
8
L00_
10
34.7581
20
13.1882
30
0.0000
11
34.6961
21
12.6452
31
0.0000
0
LINE
8
L00_
10
34.6961
20
12.6452
30
0.0000
11
34.6412
21
12.0759
31
0.0000
0
LINE
8
L00_
10
34.6412
20
12.0759
30
0.0000
11
34.5948
21
11.4856
31
0.0000
0
LINE
8
L00_
10
34.5948
20
11.4856
30
0.0000
11
34.5580
21
10.8799
31
0.0000
0
LINE
8
L00_
10
34.5580
20
10.8799
30
0.0000
11
34.5322
21
10.2642
31
0.0000
0
LINE
8
L00_
10
34.5322
20
10.2642
30
0.0000
11
34.5185
21
9.6440
31
0.0000
0
LINE
8
L00_
10
34.5185
20
9.6440
30
0.0000
11
34.5184
21
9.0247
31
0.0000
0
LINE
8
L00_
10
34.5184
20
9.0247
30
0.0000
11
34.5330
21
8.4119
31
0.0000
0
LINE
8
L00_
10
34.5330
20
8.4119
30
0.0000
11
34.5637
21
7.8111
31
0.0000
0
LINE
8
L00_
10
34.5637
20
7.8111
30
0.0000
11
34.6116
21
7.2276
31
0.0000
0
LINE
8
L00_
10
34.6116
20
7.2276
30
0.0000
11
34.6781
21
6.6670
31
0.0000
0
LINE
8
L00_
10
34.6781
20
6.6670
30
0.0000
11
34.7645
21
6.1348
31
0.0000
0
LINE
8
L00_
10
34.7645
20
6.1348
30
0.0000
11
34.8719
21
5.6365
31
0.0000
0
LINE
8
L00_
10
34.8719
20
5.6365
30
0.0000
11
35.0018
21
5.1775
31
0.0000
0
LINE
8
L00_
10
35.0018
20
5.1775
30
0.0000
11
35.1553
21
4.7632
31
0.0000
0
LINE
8
L00_
10
35.1553
20
4.7632
30
0.0000
11
35.3337
21
4.3993
31
0.0000
0
LINE
8
L00_
10
35.3337
20
4.3993
30
0.0000
11
35.5383
21
4.0911
31
0.0000
0
LINE
8
L00_
10
35.5383
20
4.0911
30
0.0000
11
35.7704
21
3.8442
31
0.0000
0
LINE
8
L00_
10
35.7704
20
3.8442
30
0.0000
11
36.0312
21
3.6640
31
0.0000
0
LINE
8
L00_
10
36.0312
20
3.6640
30
0.0000
11
36.3220
21
3.5560
31
0.0000
0
LINE
8
L00_
10
36.3220
20
3.5560
30
0.0000
11
36.6432
21
3.5238
31
0.0000
0
LINE
8
L00_
10
36.6432
20
3.5238
30
0.0000
11
36.9920
21
3.5636
31
0.0000
0
LINE
8
L00_
10
36.9920
20
3.5636
30
0.0000
11
37.3644
21
3.6698
31
0.0000
0
LINE
8
L00_
10
37.3644
20
3.6698
30
0.0000
11
37.7567
21
3.8366
31
0.0000
0
LINE
8
L00_
10
37.7567
20
3.8366
30
0.0000
11
38.1651
21
4.0584
31
0.0000
0
LINE
8
L00_
10
38.1651
20
4.0584
30
0.0000
11
38.5859
21
4.3295
31
0.0000
0
LINE
8
L00_
10
38.5859
20
4.3295
30
0.0000
11
39.0151
21
4.6443
31
0.0000
0
LINE
8
L00_
10
39.0151
20
4.6443
30
0.0000
11
39.4491
21
4.9970
31
0.0000
0
LINE
8
L00_
10
39.4491
20
4.9970
30
0.0000
11
39.8840
21
5.3821
31
0.0000
0
LINE
8
L00_
10
39.8840
20
5.3821
30
0.0000
11
40.3161
21
5.7937
31
0.0000
0
LINE
8
L00_
10
40.3161
20
5.7937
30
0.0000
11
40.7416
21
6.2263
31
0.0000
0
LINE
8
L00_
10
40.7416
20
6.2263
30
0.0000
11
41.1565
21
6.6742
31
0.0000
0
LINE
8
L00_
10
41.1565
20
6.6742
30
0.0000
11
41.5573
21
7.1317
31
0.0000
0
LINE
8
L00_
10
41.5573
20
7.1317
30
0.0000
11
41.9401
21
7.5932
31
0.0000
0
LINE
8
L00_
10
41.9401
20
7.5932
30
0.0000
11
42.3010
21
8.0529
31
0.0000
0
LINE
8
L00_
10
42.3010
20
8.0529
30
0.0000
11
42.6363
21
8.5051
31
0.0000
0
LINE
8
L00_
10
42.6363
20
8.5051
30
0.0000
11
42.9422
21
8.9443
31
0.0000
0
LINE
8
L00_
10
42.9422
20
8.9443
30
0.0000
11
43.2150
21
9.3648
31
0.0000
0
LINE
8
L00_
10
43.2150
20
9.3648
30
0.0000
11
43.4507
21
9.7608
31
0.0000
0
LINE
8
L00_
10
43.4507
20
9.7608
30
0.0000
11
43.6457
21
10.1267
31
0.0000
0
LINE
8
L00_
10
43.6457
20
10.1267
30
0.0000
11
43.7961
21
10.4569
31
0.0000
0
LINE
8
L00_
10
43.7961
20
10.4569
30
0.0000
11
43.8981
21
10.7456
31
0.0000
0
LINE
8
L00_
10
43.8981
20
10.7456
30
0.0000
11
43.9480
21
10.9872
31
0.0000
0
LINE
8
L00_
10
43.9480
20
10.9872
30
0.0000
11
43.9420
21
11.1760
31
0.0000
0
LINE
8
L00_
10
43.9420
20
11.1760
30
0.0000
11
43.8777
21
11.3079
31
0.0000
0
LINE
8
L00_
10
43.8777
20
11.3079
30
0.0000
11
43.7587
21
11.3847
31
0.0000
0
LINE
8
L00_
10
43.7587
20
11.3847
30
0.0000
11
43.5902
21
11.4099
31
0.0000
0
LINE
8
L00_
10
43.5902
20
11.4099
30
0.0000
11
43.3772
21
11.3870
31
0.0000
0
LINE
8
L00_
10
43.3772
20
11.3870
30
0.0000
11
43.1247
21
11.3193
31
0.0000
0
LINE
8
L00_
10
43.1247
20
11.3193
30
0.0000
11
42.8379
21
11.2103
31
0.0000
0
LINE
8
L00_
10
42.8379
20
11.2103
30
0.0000
11
42.5219
21
11.0634
31
0.0000
0
LINE
8
L00_
10
42.5219
20
11.0634
30
0.0000
11
42.1816
21
10.8821
31
0.0000
0
LINE
8
L00_
10
42.1816
20
10.8821
30
0.0000
11
41.8222
21
10.6697
31
0.0000
0
LINE
8
L00_
10
41.8222
20
10.6697
30
0.0000
11
41.4489
21
10.4298
31
0.0000
0
LINE
8
L00_
10
41.4489
20
10.4298
30
0.0000
11
41.0665
21
10.1658
31
0.0000
0
LINE
8
L00_
10
41.0665
20
10.1658
30
0.0000
11
40.6803
21
9.8810
31
0.0000
0
LINE
8
L00_
10
40.6803
20
9.8810
30
0.0000
11
40.2953
21
9.5789
31
0.0000
0
LINE
8
L00_
10
40.2953
20
9.5789
30
0.0000
11
39.9166
21
9.2629
31
0.0000
0
LINE
8
L00_
10
39.9166
20
9.2629
30
0.0000
11
39.5492
21
8.9366
31
0.0000
0
LINE
8
L00_
10
39.5492
20
8.9366
30
0.0000
11
39.1983
21
8.6032
31
0.0000
0
LINE
8
L00_
10
39.1983
20
8.6032
30
0.0000
11
38.8688
21
8.2663
31
0.0000
0
LINE
8
L00_
10
38.8688
20
8.2663
30
0.0000
11
38.5660
21
7.9292
31
0.0000
0
LINE
8
L00_
10
38.5660
20
7.9292
30
0.0000
11
38.2949
21
7.5954
31
0.0000
0
LINE
8
L00_
10
38.2949
20
7.5954
30
0.0000
11
38.0605
21
7.2683
31
0.0000
0
LINE
8
L00_
10
38.0605
20
7.2683
30
0.0000
11
37.8679
21
6.9514
31
0.0000
0
LINE
8
L00_
10
37.8679
20
6.9514
30
0.0000
11
37.7223
21
6.6481
31
0.0000
0
LINE
8
L00_
10
37.7223
20
6.6481
30
0.0000
11
37.6286
21
6.3618
31
0.0000
0
LINE
8
L00_
10
37.6286
20
6.3618
30
0.0000
11
37.5920
21
6.0960
31
0.0000
0
LINE
8
L00_
10
37.5920
20
6.0960
30
0.0000
11
37.6160
21
5.8533
31
0.0000
0
LINE
8
L00_
10
37.6160
20
5.8533
30
0.0000
11
37.6977
21
5.6336
31
0.0000
0
LINE
8
L00_
10
37.6977
20
5.6336
30
0.0000
11
37.8327
21
5.4361
31
0.0000
0
LINE
8
L00_
10
37.8327
20
5.4361
30
0.0000
11
38.0168
21
5.2597
31
0.0000
0
LINE
8
L00_
10
38.0168
20
5.2597
30
0.0000
11
38.2454
21
5.1037
31
0.0000
0
LINE
8
L00_
10
38.2454
20
5.1037
30
0.0000
11
38.5141
21
4.9671
31
0.0000
0
LINE
8
L00_
10
38.5141
20
4.9671
30
0.0000
11
38.8187
21
4.8491
31
0.0000
0
LINE
8
L00_
10
38.8187
20
4.8491
30
0.0000
11
39.1546
21
4.7488
31
0.0000
0
LINE
8
L00_
10
39.1546
20
4.7488
30
0.0000
11
39.5175
21
4.6653
31
0.0000
0
LINE
8
L00_
10
39.5175
20
4.6653
30
0.0000
11
39.9030
21
4.5977
31
0.0000
0
LINE
8
L00_
10
39.9030
20
4.5977
30
0.0000
11
40.3067
21
4.5451
31
0.0000
0
LINE
8
L00_
10
40.3067
20
4.5451
30
0.0000
11
40.7243
21
4.5067
31
0.0000
0
LINE
8
L00_
10
40.7243
20
4.5067
30
0.0000
11
41.1512
21
4.4815
31
0.0000
0
LINE
8
L00_
10
41.1512
20
4.4815
30
0.0000
11
41.5831
21
4.4687
31
0.0000
0
LINE
8
L00_
10
41.5831
20
4.4687
30
0.0000
11
42.0157
21
4.4673
31
0.0000
0
LINE
8
L00_
10
42.0157
20
4.4673
30
0.0000
11
42.4445
21
4.4766
31
0.0000
0
LINE
8
L00_
10
42.4445
20
4.4766
30
0.0000
11
42.8652
21
4.4956
31
0.0000
0
LINE
8
L00_
10
42.8652
20
4.4956
30
0.0000
11
43.2733
21
4.5234
31
0.0000
0
LINE
8
L00_
10
43.2733
20
4.5234
30
0.0000
11
43.6644
21
4.5591
31
0.0000
0
LINE
8
L00_
10
43.6644
20
4.5591
30
0.0000
11
44.0342
21
4.6019
31
0.0000
0
LINE
8
L00_
10
44.0342
20
4.6019
30
0.0000
11
44.3782
21
4.6509
31
0.0000
0
LINE
8
L00_
10
44.3782
20
4.6509
30
0.0000
11
44.6922
21
4.7052
31
0.0000
0
LINE
8
L00_
10
44.6922
20
4.7052
30
0.0000
11
44.9715
21
4.7638
31
0.0000
0
LINE
8
L00_
10
44.9715
20
4.7638
30
0.0000
11
45.2120
21
4.8260
31
0.0000
0
LINE
8
L00_
10
45.2120
20
4.8260
30
0.0000
11
45.4102
21
4.8909
31
0.0000
0
LINE
8
L00_
10
45.4102
20
4.8909
30
0.0000
11
45.5668
21
4.9584
31
0.0000
0
LINE
8
L00_
10
45.5668
20
4.9584
30
0.0000
11
45.6838
21
5.0282
31
0.0000
0
LINE
8
L00_
10
45.6838
20
5.0282
30
0.0000
11
45.7629
21
5.1004
31
0.0000
0
LINE
8
L00_
10
45.7629
20
5.1004
30
0.0000
11
45.8058
21
5.1748
31
0.0000
0
LINE
8
L00_
10
45.8058
20
5.1748
30
0.0000
11
45.8145
21
5.2512
31
0.0000
0
LINE
8
L00_
10
45.8145
20
5.2512
30
0.0000
11
45.7907
21
5.3296
31
0.0000
0
LINE
8
L00_
10
45.7907
20
5.3296
30
0.0000
11
45.7362
21
5.4099
31
0.0000
0
LINE
8
L00_
10
45.7362
20
5.4099
30
0.0000
11
45.6528
21
5.4919
31
0.0000
0
LINE
8
L00_
10
45.6528
20
5.4919
30
0.0000
11
45.5423
21
5.5755
31
0.0000
0
LINE
8
L00_
10
45.5423
20
5.5755
30
0.0000
11
45.4066
21
5.6607
31
0.0000
0
LINE
8
L00_
10
45.4066
20
5.6607
30
0.0000
11
45.2474
21
5.7474
31
0.0000
0
LINE
8
L00_
10
45.2474
20
5.7474
30
0.0000
11
45.0666
21
5.8353
31
0.0000
0
LINE
8
L00_
10
45.0666
20
5.8353
30
0.0000
11
44.8659
21
5.9244
31
0.0000
0
LINE
8
L00_
10
44.8659
20
5.9244
30
0.0000
11
44.6471
21
6.0147
31
0.0000
0
LINE
8
L00_
10
44.6471
20
6.0147
30
0.0000
11
44.4121
21
6.1059
31
0.0000
0
LINE
8
L00_
10
44.4121
20
6.1059
30
0.0000
11
44.1627
21
6.1980
31
0.0000
0
LINE
8
L00_
10
44.1627
20
6.1980
30
0.0000
11
43.9006
21
6.2909
31
0.0000
0
LINE
8
L00_
10
43.9006
20
6.2909
30
0.0000
11
43.6277
21
6.3844
31
0.0000
0
LINE
8
L00_
10
43.6277
20
6.3844
30
0.0000
11
43.3458
21
6.4784
31
0.0000
0
LINE
8
L00_
10
43.3458
20
6.4784
30
0.0000
11
43.0567
21
6.5729
31
0.0000
0
LINE
8
L00_
10
43.0567
20
6.5729
30
0.0000
11
42.7621
21
6.6678
31
0.0000
0
LINE
8
L00_
10
42.7621
20
6.6678
30
0.0000
11
42.4640
21
6.7628
31
0.0000
0
LINE
8
L00_
10
42.4640
20
6.7628
30
0.0000
11
42.1640
21
6.8580
31
0.0000
0
POLYLINE
8
L00_
66
1
70
0
0
VERTEX
8
L00_
10
37.5920
20
11.1760
30
0.0000
0
VERTEX
8
L00_
10
36.1027
20
12.8916
30
0.0000
0
SEQEND
0
POLYLINE
8
L00_
66
1
70
0
0
VERTEX
8
L00_
10
37.5920
20
11.1760
30
0.0000
0
VERTEX
8
L00_
10
38.0709
20
13.3968
30
0.0000
0
SEQEND
0
POLYLINE
8
L00_
66
1
70
0
0
VERTEX
8
L00_
10
40.1320
20
7.3660
30
0.0000
0
VERTEX
8
L00_
10
42.3537
20
7.8408
30
0.0000
0
SEQEND
0
POLYLINE
8
L00_
66
1
70
0
0
VERTEX
8
L00_
10
40.1320
20
7.3660
30
0.0000
0
VERTEX
8
L00_
10
41.8448
20
5.8735
30
0.0000
0
SEQEND
0
POLYLINE
8
L00_
66
1
70
0
0
VERTEX
8
L00_
10
10.9220
20
2.2860
30
0.0000
0
VERTEX
8
L00_
10
11.9628
20
3.1648
30
0.0000
0
VERTEX
8
L00_
10
12.8092
20
3.9065
30
0.0000
0
VERTEX
8
L00_
10
13.4766
20
4.5263
30
0.0000
0
VERTEX
8
L00_
10
13.9802
20
5.0394
30
0.0000
0
VERTEX
8
L00_
10
14.3351
20
5.4610
30
0.0000
0
VERTEX
8
L00_
10
14.5567
20
5.8064
30
0.0000
0
VERTEX
8
L00_
10
14.6602
20
6.0909
30
0.0000
0
VERTEX
8
L00_
10
14.6609
20
6.3297
30
0.0000
0
VERTEX
8
L00_
10
14.5739
20
6.5380
30
0.0000
0
VERTEX
8
L00_
10
14.4145
20
6.7310
30
0.0000
0
VERTEX
8
L00_
10
14.1980
20
6.9240
30
0.0000
0
VERTEX
8
L00_
10
13.9395
20
7.1323
30
0.0000
0
VERTEX
8
L00_
10
13.6544
20
7.3711
30
0.0000
0
VERTEX
8
L00_
10
13.3579
20
7.6556
30
0.0000
0
VERTEX
8
L00_
10
13.0651
20
8.0010
30
0.0000
0
VERTEX
8
L00_
10
12.7914
20
8.4226
30
0.0000
0
VERTEX
8
L00_
10
12.5520
20
8.9357
30
0.0000
0
VERTEX
8
L00_
10
12.3622
20
9.5555
30
0.0000
0
VERTEX
8
L00_
10
12.2371
20
10.2972
30
0.0000
0
VERTEX
8
L00_
10
12.1920
20
11.1760
30
0.0000
0
SEQEND
0
SOLID
8
L00_
10
74.6760
20
73.4060
30
0.0000
11
75.3111
21
74.0659
31
0.0000
12
75.5294
22
73.0736
32
0.0000
13
75.5294
23
73.0736
33
0.0000
0
POLYLINE
8
L00_
6
FCJDASH1
66
1
70
0
0
VERTEX
8
L00_
10
72.3900
20
69.0880
30
0.0000
0
VERTEX
8
L00_
10
72.9442
20
67.3512
30
0.0000
0
VERTEX
8
L00_
10
73.6000
20
66.0750
30
0.0000
0
VERTEX
8
L00_
10
74.3336
20
65.2169
30
0.0000
0
VERTEX
8
L00_
10
75.1209
20
64.7347
30
0.0000
0
VERTEX
8
L00_
10
75.9378
20
64.5860
30
0.0000
0
VERTEX
8
L00_
10
76.7604
20
64.7284
30
0.0000
0
VERTEX
8
L00_
10
77.5646
20
65.1196
30
0.0000
0
VERTEX
8
L00_
10
78.3264
20
65.7172
30
0.0000
0
VERTEX
8
L00_
10
79.0218
20
66.4789
30
0.0000
0
VERTEX
8
L00_
10
79.6268
20
67.3622
30
0.0000
0
VERTEX
8
L00_
10
80.1173
20
68.3249
30
0.0000
0
VERTEX
8
L00_
10
80.4695
20
69.3245
30
0.0000
0
VERTEX
8
L00_
10
80.6591
20
70.3188
30
0.0000
0
VERTEX
8
L00_
10
80.6623
20
71.2653
30
0.0000
0
VERTEX
8
L00_
10
80.4549
20
72.1217
30
0.0000
0
VERTEX
8
L00_
10
80.0131
20
72.8457
30
0.0000
0
VERTEX
8
L00_
10
79.3127
20
73.3948
30
0.0000
0
VERTEX
8
L00_
10
78.3298
20
73.7268
30
0.0000
0
VERTEX
8
L00_
10
77.0403
20
73.7992
30
0.0000
0
VERTEX
8
L00_
10
75.4202
20
73.5697
30
0.0000
0
SEQEND
0
SOLID
8
L00_
10
85.3440
20
57.1500
30
0.0000
11
85.0257
21
56.2913
31
0.0000
12
84.4289
22
57.1135
32
0.0000
13
84.4289
23
57.1135
33
0.0000
0
LINE
8
L00_
6
FCJDASH1
10
69.5960
20
45.7200
30
0.0000
11
84.7273
21
56.7024
31
0.0000
0
SOLID
8
L01_
10
27.4320
20
54.3560
30
0.0000
11
29.9720
21
54.3560
31
0.0000
12
27.4320
22
51.8160
32
0.0000
13
29.9720
23
51.8160
33
0.0000
0
LINE
8
L02_
6
FCJDASH1
10
75.9460
20
61.7220
30
0.0000
11
76.2566
21
61.6918
31
0.0000
0
LINE
8
L02_
6
FCJDASH1
10
76.2566
20
61.6918
30
0.0000
11
76.5667
21
61.6614
31
0.0000
0
LINE
8
L02_
6
FCJDASH1
10
76.5667
20
61.6614
30
0.0000
11
76.8759
21
61.6305
31
0.0000
0
LINE
8
L02_
6
FCJDASH1
10
76.8759
20
61.6305
30
0.0000
11
77.1836
21
61.5989
31
0.0000
0
LINE
8
L02_
6
FCJDASH1
10
77.1836
20
61.5989
30
0.0000
11
77.4894
21
61.5663
31
0.0000
0
LINE
8
L02_
6
FCJDASH1
10
77.4894
20
61.5663
30
0.0000
11
77.7928
21
61.5326
31
0.0000
0
LINE
8
L02_
6
FCJDASH1
10
77.7928
20
61.5326
30
0.0000
11
78.0933
21
61.4974
31
0.0000
0
LINE
8
L02_
6
FCJDASH1
10
78.0933
20
61.4974
30
0.0000
11
78.3905
21
61.4606
31
0.0000
0
LINE
8
L02_
6
FCJDASH1
10
78.3905
20
61.4606
30
0.0000
11
78.6838
21
61.4219
31
0.0000
0
LINE
8
L02_
6
FCJDASH1
10
78.6838
20
61.4219
30
0.0000
11
78.9728
21
61.3810
31
0.0000
0
LINE
8
L02_
6
FCJDASH1
10
78.9728
20
61.3810
30
0.0000
11
79.2570
21
61.3378
31
0.0000
0
LINE
8
L02_
6
FCJDASH1
10
79.2570
20
61.3378
30
0.0000
11
79.5359
21
61.2920
31
0.0000
0
LINE
8
L02_
6
FCJDASH1
10
79.5359
20
61.2920
30
0.0000
11
79.8090
21
61.2433
31
0.0000
0
LINE
8
L02_
6
FCJDASH1
10
79.8090
20
61.2433
30
0.0000
11
80.0759
21
61.1915
31
0.0000
0
LINE
8
L02_
6
FCJDASH1
10
80.0759
20
61.1915
30
0.0000
11
80.3361
21
61.1364
31
0.0000
0
LINE
8
L02_
6
FCJDASH1
10
80.3361
20
61.1364
30
0.0000
11
80.5891
21
61.0778
31
0.0000
0
LINE
8
L02_
6
FCJDASH1
10
80.5891
20
61.0778
30
0.0000
11
80.8344
21
61.0153
31
0.0000
0
LINE
8
L02_
6
FCJDASH1
10
80.8344
20
61.0153
30
0.0000
11
81.0715
21
60.9488
31
0.0000
0
LINE
8
L02_
6
FCJDASH1
10
81.0715
20
60.9488
30
0.0000
11
81.3000
21
60.8781
31
0.0000
0
LINE
8
L02_
6
FCJDASH1
10
81.3000
20
60.8781
30
0.0000
11
81.5194
21
60.8028
31
0.0000
0
LINE
8
L02_
6
FCJDASH1
10
81.5194
20
60.8028
30
0.0000
11
81.7291
21
60.7228
31
0.0000
0
LINE
8
L02_
6
FCJDASH1
10
81.7291
20
60.7228
30
0.0000
11
81.9288
21
60.6379
31
0.0000
0
LINE
8
L02_
6
FCJDASH1
10
81.9288
20
60.6379
30
0.0000
11
82.1179
21
60.5477
31
0.0000
0
LINE
8
L02_
6
FCJDASH1
10
82.1179
20
60.5477
30
0.0000
11
82.2960
21
60.4520
31
0.0000
0
LINE
8
L02_
6
FCJDASH1
10
82.2960
20
60.4520
30
0.0000
11
82.4626
21
60.3508
31
0.0000
0
LINE
8
L02_
6
FCJDASH1
10
82.4626
20
60.3508
30
0.0000
11
82.6172
21
60.2445
31
0.0000
0
LINE
8
L02_
6
FCJDASH1
10
82.6172
20
60.2445
30
0.0000
11
82.7597
21
60.1338
31
0.0000
0
LINE
8
L02_
6
FCJDASH1
10
82.7597
20
60.1338
30
0.0000
11
82.8896
21
60.0194
31
0.0000
0
LINE
8
L02_
6
FCJDASH1
10
82.8896
20
60.0194
30
0.0000
11
83.0065
21
59.9017
31
0.0000
0
LINE
8
L02_
6
FCJDASH1
10
83.0065
20
59.9017
30
0.0000
11
83.1101
21
59.7816
31
0.0000
0
LINE
8
L02_
6
FCJDASH1
10
83.1101
20
59.7816
30
0.0000
11
83.2000
21
59.6595
31
0.0000
0
LINE
8
L02_
6
FCJDASH1
10
83.2000
20
59.6595
30
0.0000
11
83.2760
21
59.5363
31
0.0000
0
LINE
8
L02_
6
FCJDASH1
10
83.2760
20
59.5363
30
0.0000
11
83.3376
21
59.4124
31
0.0000
0
LINE
8
L02_
6
FCJDASH1
10
83.3376
20
59.4124
30
0.0000
11
83.3844
21
59.2885
31
0.0000
0
LINE
8
L02_
6
FCJDASH1
10
83.3844
20
59.2885
30
0.0000
11
83.4162
21
59.1653
31
0.0000
0
LINE
8
L02_
6
FCJDASH1
10
83.4162
20
59.1653
30
0.0000
11
83.4326
21
59.0433
31
0.0000
0
LINE
8
L02_
6
FCJDASH1
10
83.4326
20
59.0433
30
0.0000
11
83.4332
21
58.9233
31
0.0000
0
LINE
8
L02_
6
FCJDASH1
10
83.4332
20
58.9233
30
0.0000
11
83.4176
21
58.8059
31
0.0000
0
LINE
8
L02_
6
FCJDASH1
10
83.4176
20
58.8059
30
0.0000
11
83.3855
21
58.6916
31
0.0000
0
LINE
8
L02_
6
FCJDASH1
10
83.3855
20
58.6916
30
0.0000
11
83.3366
21
58.5812
31
0.0000
0
LINE
8
L02_
6
FCJDASH1
10
83.3366
20
58.5812
30
0.0000
11
83.2705
21
58.4753
31
0.0000
0
LINE
8
L02_
6
FCJDASH1
10
83.2705
20
58.4753
30
0.0000
11
83.1868
21
58.3744
31
0.0000
0
LINE
8
L02_
6
FCJDASH1
10
83.1868
20
58.3744
30
0.0000
11
83.0852
21
58.2793
31
0.0000
0
LINE
8
L02_
6
FCJDASH1
10
83.0852
20
58.2793
30
0.0000
11
82.9653
21
58.1906
31
0.0000
0
LINE
8
L02_
6
FCJDASH1
10
82.9653
20
58.1906
30
0.0000
11
82.8268
21
58.1088
31
0.0000
0
LINE
8
L02_
6
FCJDASH1
10
82.8268
20
58.1088
30
0.0000
11
82.6693
21
58.0347
31
0.0000
0
LINE
8
L02_
6
FCJDASH1
10
82.6693
20
58.0347
30
0.0000
11
82.4925
21
57.9689
31
0.0000
0
LINE
8
L02_
6
FCJDASH1
10
82.4925
20
57.9689
30
0.0000
11
82.2960
21
57.9120
31
0.0000
0
LINE
8
L02_
6
FCJDASH1
10
82.2960
20
57.9120
30
0.0000
11
82.0797
21
57.8644
31
0.0000
0
LINE
8
L02_
6
FCJDASH1
10
82.0797
20
57.8644
30
0.0000
11
81.8448
21
57.8257
31
0.0000
0
LINE
8
L02_
6
FCJDASH1
10
81.8448
20
57.8257
30
0.0000
11
81.5924
21
57.7953
31
0.0000
0
LINE
8
L02_
6
FCJDASH1
10
81.5924
20
57.7953
30
0.0000
11
81.3241
21
57.7725
31
0.0000
0
LINE
8
L02_
6
FCJDASH1
10
81.3241
20
57.7725
30
0.0000
11
81.0411
21
57.7566
31
0.0000
0
LINE
8
L02_
6
FCJDASH1
10
81.0411
20
57.7566
30
0.0000
11
80.7449
21
57.7470
31
0.0000
0
LINE
8
L02_
6
FCJDASH1
10
80.7449
20
57.7470
30
0.0000
11
80.4366
21
57.7430
31
0.0000
0
LINE
8
L02_
6
FCJDASH1
10
80.4366
20
57.7430
30
0.0000
11
80.1178
21
57.7441
31
0.0000
0
LINE
8
L02_
6
FCJDASH1
10
80.1178
20
57.7441
30
0.0000
11
79.7897
21
57.7495
31
0.0000
0
LINE
8
L02_
6
FCJDASH1
10
79.7897
20
57.7495
30
0.0000
11
79.4538
21
57.7587
31
0.0000
0
LINE
8
L02_
6
FCJDASH1
10
79.4538
20
57.7587
30
0.0000
11
79.1112
21
57.7708
31
0.0000
0
LINE
8
L02_
6
FCJDASH1
10
79.1112
20
57.7708
30
0.0000
11
78.7635
21
57.7854
31
0.0000
0
LINE
8
L02_
6
FCJDASH1
10
78.7635
20
57.7854
30
0.0000
11
78.4119
21
57.8018
31
0.0000
0
LINE
8
L02_
6
FCJDASH1
10
78.4119
20
57.8018
30
0.0000
11
78.0578
21
57.8192
31
0.0000
0
LINE
8
L02_
6
FCJDASH1
10
78.0578
20
57.8192
30
0.0000
11
77.7026
21
57.8371
31
0.0000
0
LINE
8
L02_
6
FCJDASH1
10
77.7026
20
57.8371
30
0.0000
11
77.3475
21
57.8549
31
0.0000
0
LINE
8
L02_
6
FCJDASH1
10
77.3475
20
57.8549
30
0.0000
11
76.9940
21
57.8718
31
0.0000
0
LINE
8
L02_
6
FCJDASH1
10
76.9940
20
57.8718
30
0.0000
11
76.6434
21
57.8872
31
0.0000
0
LINE
8
L02_
6
FCJDASH1
10
76.6434
20
57.8872
30
0.0000
11
76.2970
21
57.9004
31
0.0000
0
LINE
8
L02_
6
FCJDASH1
10
76.2970
20
57.9004
30
0.0000
11
75.9562
21
57.9109
31
0.0000
0
LINE
8
L02_
6
FCJDASH1
10
75.9562
20
57.9109
30
0.0000
11
75.6224
21
57.9180
31
0.0000
0
LINE
8
L02_
6
FCJDASH1
10
75.6224
20
57.9180
30
0.0000
11
75.2968
21
57.9209
31
0.0000
0
LINE
8
L02_
6
FCJDASH1
10
75.2968
20
57.9209
30
0.0000
11
74.9809
21
57.9191
31
0.0000
0
LINE
8
L02_
6
FCJDASH1
10
74.9809
20
57.9191
30
0.0000
11
74.6760
21
57.9120
31
0.0000
0
LINE
8
L02_
6
FCJDASH1
10
74.6760
20
57.9120
30
0.0000
11
74.3831
21
57.8991
31
0.0000
0
LINE
8
L02_
6
FCJDASH1
10
74.3831
20
57.8991
30
0.0000
11
74.1023
21
57.8810
31
0.0000
0
LINE
8
L02_
6
FCJDASH1
10
74.1023
20
57.8810
30
0.0000
11
73.8332
21
57.8586
31
0.0000
0
LINE
8
L02_
6
FCJDASH1
10
73.8332
20
57.8586
30
0.0000
11
73.5756
21
57.8327
31
0.0000
0
LINE
8
L02_
6
FCJDASH1
10
73.5756
20
57.8327
30
0.0000
11
73.3290
21
57.8042
31
0.0000
0
LINE
8
L02_
6
FCJDASH1
10
73.3290
20
57.8042
30
0.0000
11
73.0933
21
57.7740
31
0.0000
0
LINE
8
L02_
6
FCJDASH1
10
73.0933
20
57.7740
30
0.0000
11
72.8682
21
57.7430
31
0.0000
0
LINE
8
L02_
6
FCJDASH1
10
72.8682
20
57.7430
30
0.0000
11
72.6532
21
57.7119
31
0.0000
0
LINE
8
L02_
6
FCJDASH1
10
72.6532
20
57.7119
30
0.0000
11
72.4482
21
57.6816
31
0.0000
0
LINE
8
L02_
6
FCJDASH1
10
72.4482
20
57.6816
30
0.0000
11
72.2528
21
57.6531
31
0.0000
0
LINE
8
L02_
6
FCJDASH1
10
72.2528
20
57.6531
30
0.0000
11
72.0667
21
57.6270
31
0.0000
0
LINE
8
L02_
6
FCJDASH1
10
72.0667
20
57.6270
30
0.0000
11
71.8896
21
57.6045
31
0.0000
0
LINE
8
L02_
6
FCJDASH1
10
71.8896
20
57.6045
30
0.0000
11
71.7213
21
57.5861
31
0.0000
0
LINE
8
L02_
6
FCJDASH1
10
71.7213
20
57.5861
30
0.0000
11
71.5613
21
57.5729
31
0.0000
0
LINE
8
L02_
6
FCJDASH1
10
71.5613
20
57.5729
30
0.0000
11
71.4095
21
57.5657
31
0.0000
0
LINE
8
L02_
6
FCJDASH1
10
71.4095
20
57.5657
30
0.0000
11
71.2655
21
57.5654
31
0.0000
0
LINE
8
L02_
6
FCJDASH1
10
71.2655
20
57.5654
30
0.0000
11
71.1289
21
57.5727
31
0.0000
0
LINE
8
L02_
6
FCJDASH1
10
71.1289
20
57.5727
30
0.0000
11
70.9996
21
57.5886
31
0.0000
0
LINE
8
L02_
6
FCJDASH1
10
70.9996
20
57.5886
30
0.0000
11
70.8772
21
57.6140
31
0.0000
0
LINE
8
L02_
6
FCJDASH1
10
70.8772
20
57.6140
30
0.0000
11
70.7614
21
57.6496
31
0.0000
0
LINE
8
L02_
6
FCJDASH1
10
70.7614
20
57.6496
30
0.0000
11
70.6518
21
57.6963
31
0.0000
0
LINE
8
L02_
6
FCJDASH1
10
70.6518
20
57.6963
30
0.0000
11
70.5483
21
57.7551
31
0.0000
0
LINE
8
L02_
6
FCJDASH1
10
70.5483
20
57.7551
30
0.0000
11
70.4505
21
57.8267
31
0.0000
0
LINE
8
L02_
6
FCJDASH1
10
70.4505
20
57.8267
30
0.0000
11
70.3580
21
57.9120
31
0.0000
0
LINE
8
L02_
6
FCJDASH1
10
70.3580
20
57.9120
30
0.0000
11
70.2707
21
58.0116
31
0.0000
0
LINE
8
L02_
6
FCJDASH1
10
70.2707
20
58.0116
30
0.0000
11
70.1887
21
58.1246
31
0.0000
0
LINE
8
L02_
6
FCJDASH1
10
70.1887
20
58.1246
30
0.0000
11
70.1122
21
58.2499
31
0.0000
0
LINE
8
L02_
6
FCJDASH1
10
70.1122
20
58.2499
30
0.0000
11
70.0413
21
58.3864
31
0.0000
0
LINE
8
L02_
6
FCJDASH1
10
70.0413
20
58.3864
30
0.0000
11
69.9763
21
58.5329
31
0.0000
0
LINE
8
L02_
6
FCJDASH1
10
69.9763
20
58.5329
30
0.0000
11
69.9173
21
58.6884
31
0.0000
0
LINE
8
L02_
6
FCJDASH1
10
69.9173
20
58.6884
30
0.0000
11
69.8645
21
58.8516
31
0.0000
0
LINE
8
L02_
6
FCJDASH1
10
69.8645
20
58.8516
30
0.0000
11
69.8182
21
59.0215
31
0.0000
0
LINE
8
L02_
6
FCJDASH1
10
69.8182
20
59.0215
30
0.0000
11
69.7784
21
59.1969
31
0.0000
0
LINE
8
L02_
6
FCJDASH1
10
69.7784
20
59.1969
30
0.0000
11
69.7455
21
59.3767
31
0.0000
0
LINE
8
L02_
6
FCJDASH1
10
69.7455
20
59.3767
30
0.0000
11
69.7195
21
59.5598
31
0.0000
0
LINE
8
L02_
6
FCJDASH1
10
69.7195
20
59.5598
30
0.0000
11
69.7007
21
59.7450
31
0.0000
0
LINE
8
L02_
6
FCJDASH1
10
69.7007
20
59.7450
30
0.0000
11
69.6893
21
59.9312
31
0.0000
0
LINE
8
L02_
6
FCJDASH1
10
69.6893
20
59.9312
30
0.0000
11
69.6854
21
60.1173
31
0.0000
0
LINE
8
L02_
6
FCJDASH1
10
69.6854
20
60.1173
30
0.0000
11
69.6893
21
60.3021
31
0.0000
0
LINE
8
L02_
6
FCJDASH1
10
69.6893
20
60.3021
30
0.0000
11
69.7011
21
60.4845
31
0.0000
0
LINE
8
L02_
6
FCJDASH1
10
69.7011
20
60.4845
30
0.0000
11
69.7210
21
60.6634
31
0.0000
0
LINE
8
L02_
6
FCJDASH1
10
69.7210
20
60.6634
30
0.0000
11
69.7493
21
60.8377
31
0.0000
0
LINE
8
L02_
6
FCJDASH1
10
69.7493
20
60.8377
30
0.0000
11
69.7860
21
61.0061
31
0.0000
0
LINE
8
L02_
6
FCJDASH1
10
69.7860
20
61.0061
30
0.0000
11
69.8315
21
61.1677
31
0.0000
0
LINE
8
L02_
6
FCJDASH1
10
69.8315
20
61.1677
30
0.0000
11
69.8858
21
61.3211
31
0.0000
0
LINE
8
L02_
6
FCJDASH1
10
69.8858
20
61.3211
30
0.0000
11
69.9492
21
61.4654
31
0.0000
0
LINE
8
L02_
6
FCJDASH1
10
69.9492
20
61.4654
30
0.0000
11
70.0219
21
61.5994
31
0.0000
0
LINE
8
L02_
6
FCJDASH1
10
70.0219
20
61.5994
30
0.0000
11
70.1040
21
61.7220
31
0.0000
0
LINE
8
L02_
6
FCJDASH1
10
70.1040
20
61.7220
30
0.0000
11
70.1957
21
61.8323
31
0.0000
0
LINE
8
L02_
6
FCJDASH1
10
70.1957
20
61.8323
30
0.0000
11
70.2966
21
61.9305
31
0.0000
0
LINE
8
L02_
6
FCJDASH1
10
70.2966
20
61.9305
30
0.0000
11
70.4063
21
62.0172
31
0.0000
0
LINE
8
L02_
6
FCJDASH1
10
70.4063
20
62.0172
30
0.0000
11
70.5245
21
62.0928
31
0.0000
0
LINE
8
L02_
6
FCJDASH1
10
70.5245
20
62.0928
30
0.0000
11
70.6507
21
62.1580
31
0.0000
0
LINE
8
L02_
6
FCJDASH1
10
70.6507
20
62.1580
30
0.0000
11
70.7845
21
62.2133
31
0.0000
0
LINE
8
L02_
6
FCJDASH1
10
70.7845
20
62.2133
30
0.0000
11
70.9256
21
62.2591
31
0.0000
0
LINE
8
L02_
6
FCJDASH1
10
70.9256
20
62.2591
30
0.0000
11
71.0735
21
62.2960
31
0.0000
0
LINE
8
L02_
6
FCJDASH1
10
71.0735
20
62.2960
30
0.0000
11
71.2278
21
62.3246
31
0.0000
0
LINE
8
L02_
6
FCJDASH1
10
71.2278
20
62.3246
30
0.0000
11
71.3882
21
62.3452
31
0.0000
0
LINE
8
L02_
6
FCJDASH1
10
71.3882
20
62.3452
30
0.0000
11
71.5542
21
62.3586
31
0.0000
0
LINE
8
L02_
6
FCJDASH1
10
71.5542
20
62.3586
30
0.0000
11
71.7254
21
62.3651
31
0.0000
0
LINE
8
L02_
6
FCJDASH1
10
71.7254
20
62.3651
30
0.0000
11
71.9014
21
62.3654
31
0.0000
0
LINE
8
L02_
6
FCJDASH1
10
71.9014
20
62.3654
30
0.0000
11
72.0819
21
62.3599
31
0.0000
0
LINE
8
L02_
6
FCJDASH1
10
72.0819
20
62.3599
30
0.0000
11
72.2663
21
62.3491
31
0.0000
0
LINE
8
L02_
6
FCJDASH1
10
72.2663
20
62.3491
30
0.0000
11
72.4544
21
62.3336
31
0.0000
0
LINE
8
L02_
6
FCJDASH1
10
72.4544
20
62.3336
30
0.0000
11
72.6457
21
62.3140
31
0.0000
0
LINE
8
L02_
6
FCJDASH1
10
72.6457
20
62.3140
30
0.0000
11
72.8398
21
62.2906
31
0.0000
0
LINE
8
L02_
6
FCJDASH1
10
72.8398
20
62.2906
30
0.0000
11
73.0363
21
62.2642
31
0.0000
0
LINE
8
L02_
6
FCJDASH1
10
73.0363
20
62.2642
30
0.0000
11
73.2348
21
62.2351
31
0.0000
0
LINE
8
L02_
6
FCJDASH1
10
73.2348
20
62.2351
30
0.0000
11
73.4350
21
62.2039
31
0.0000
0
LINE
8
L02_
6
FCJDASH1
10
73.4350
20
62.2039
30
0.0000
11
73.6363
21
62.1711
31
0.0000
0
LINE
8
L02_
6
FCJDASH1
10
73.6363
20
62.1711
30
0.0000
11
73.8385
21
62.1373
31
0.0000
0
LINE
8
L02_
6
FCJDASH1
10
73.8385
20
62.1373
30
0.0000
11
74.0410
21
62.1030
31
0.0000
0
SOLID
8
L02_
10
74.6760
20
61.7220
30
0.0000
11
73.7676
21
61.6054
31
0.0000
12
74.2190
22
62.5156
32
0.0000
13
74.2190
23
62.5156
33
0.0000
0
POLYLINE
8
L02_
66
1
70
0
0
VERTEX
8
L02_
10
46.4820
20
11.1760
30
0.0000
0
VERTEX
8
L02_
10
49.4250
20
11.5123
30
0.0000
0
SEQEND
0
POLYLINE
8
L02_
66
1
70
0
0
VERTEX
8
L02_
10
46.4820
20
11.1760
30
0.0000
0
VERTEX
8
L02_
10
48.1637
20
8.7375
30
0.0000
0
SEQEND
0
POLYLINE
8
L02_
66
1
70
0
0
VERTEX
8
L02_
10
60.4520
20
4.8260
30
0.0000
0
VERTEX
8
L02_
10
57.5090
20
4.4897
30
0.0000
0
SEQEND
0
POLYLINE
8
L02_
66
1
70
0
0
VERTEX
8
L02_
10
60.4520
20
4.8260
30
0.0000
0
VERTEX
8
L02_
10
58.7703
20
7.2645
30
0.0000
0
SEQEND
0
LINE
8
L02_
10
48.7943
20
10.1249
30
0.0000
11
58.1397
21
5.8771
31
0.0000
0
LINE
8
L02_
10
19.8120
20
11.1760
30
0.0000
11
19.6975
21
11.5723
31
0.0000
0
LINE
8
L02_
10
19.6975
20
11.5723
30
0.0000
11
19.5831
21
11.9660
31
0.0000
0
LINE
8
L02_
10
19.5831
20
11.9660
30
0.0000
11
19.4689
21
12.3549
31
0.0000
0
LINE
8
L02_
10
19.4689
20
12.3549
30
0.0000
11
19.3549
21
12.7363
31
0.0000
0
LINE
8
L02_
10
19.3549
20
12.7363
30
0.0000
11
19.2413
21
13.1077
31
0.0000
0
LINE
8
L02_
10
19.2413
20
13.1077
30
0.0000
11
19.1282
21
13.4668
31
0.0000
0
LINE
8
L02_
10
19.1282
20
13.4668
30
0.0000
11
19.0156
21
13.8110
31
0.0000
0
LINE
8
L02_
10
19.0156
20
13.8110
30
0.0000
11
18.9036
21
14.1379
31
0.0000
0
LINE
8
L02_
10
18.9036
20
14.1379
30
0.0000
11
18.7923
21
14.4449
31
0.0000
0
LINE
8
L02_
10
18.7923
20
14.4449
30
0.0000
11
18.6819
21
14.7297
31
0.0000
0
LINE
8
L02_
10
18.6819
20
14.7297
30
0.0000
11
18.5724
21
14.9896
31
0.0000
0
LINE
8
L02_
10
18.5724
20
14.9896
30
0.0000
11
18.4638
21
15.2223
31
0.0000
0
LINE
8
L02_
10
18.4638
20
15.2223
30
0.0000
11
18.3564
21
15.4252
31
0.0000
0
LINE
8
L02_
10
18.3564
20
15.4252
30
0.0000
11
18.2501
21
15.5960
31
0.0000
0
LINE
8
L02_
10
18.2501
20
15.5960
30
0.0000
11
18.1451
21
15.7320
31
0.0000
0
LINE
8
L02_
10
18.1451
20
15.7320
30
0.0000
11
18.0415
21
15.8309
31
0.0000
0
LINE
8
L02_
10
18.0415
20
15.8309
30
0.0000
11
17.9393
21
15.8901
31
0.0000
0
LINE
8
L02_
10
17.9393
20
15.8901
30
0.0000
11
17.8386
21
15.9071
31
0.0000
0
LINE
8
L02_
10
17.8386
20
15.9071
30
0.0000
11
17.7396
21
15.8796
31
0.0000
0
LINE
8
L02_
10
17.7396
20
15.8796
30
0.0000
11
17.6423
21
15.8050
31
0.0000
0
LINE
8
L02_
10
17.6423
20
15.8050
30
0.0000
11
17.5468
21
15.6808
31
0.0000
0
LINE
8
L02_
10
17.5468
20
15.6808
30
0.0000
11
17.4532
21
15.5045
31
0.0000
0
LINE
8
L02_
10
17.4532
20
15.5045
30
0.0000
11
17.3615
21
15.2738
31
0.0000
0
LINE
8
L02_
10
17.3615
20
15.2738
30
0.0000
11
17.2720
21
14.9860
31
0.0000
0
LINE
8
L02_
10
17.2720
20
14.9860
30
0.0000
11
17.1848
21
14.6401
31
0.0000
0
LINE
8
L02_
10
17.1848
20
14.6401
30
0.0000
11
17.1010
21
14.2406
31
0.0000
0
LINE
8
L02_
10
17.1010
20
14.2406
30
0.0000
11
17.0218
21
13.7931
31
0.0000
0
LINE
8
L02_
10
17.0218
20
13.7931
30
0.0000
11
16.9483
21
13.3034
31
0.0000
0
LINE
8
L02_
10
16.9483
20
13.3034
30
0.0000
11
16.8818
21
12.7774
31
0.0000
0
LINE
8
L02_
10
16.8818
20
12.7774
30
0.0000
11
16.8235
21
12.2208
31
0.0000
0
LINE
8
L02_
10
16.8235
20
12.2208
30
0.0000
11
16.7746
21
11.6393
31
0.0000
0
LINE
8
L02_
10
16.7746
20
11.6393
30
0.0000
11
16.7363
21
11.0389
31
0.0000
0
LINE
8
L02_
10
16.7363
20
11.0389
30
0.0000
11
16.7097
21
10.4251
31
0.0000
0
LINE
8
L02_
10
16.7097
20
10.4251
30
0.0000
11
16.6961
21
9.8039
31
0.0000
0
LINE
8
L02_
10
16.6961
20
9.8039
30
0.0000
11
16.6967
21
9.1810
31
0.0000
0
LINE
8
L02_
10
16.6967
20
9.1810
30
0.0000
11
16.7127
21
8.5621
31
0.0000
0
LINE
8
L02_
10
16.7127
20
8.5621
30
0.0000
11
16.7453
21
7.9531
31
0.0000
0
LINE
8
L02_
10
16.7453
20
7.9531
30
0.0000
11
16.7957
21
7.3597
31
0.0000
0
LINE
8
L02_
10
16.7957
20
7.3597
30
0.0000
11
16.8650
21
6.7877
31
0.0000
0
LINE
8
L02_
10
16.8650
20
6.7877
30
0.0000
11
16.9546
21
6.2429
31
0.0000
0
LINE
8
L02_
10
16.9546
20
6.2429
30
0.0000
11
17.0655
21
5.7310
31
0.0000
0
LINE
8
L02_
10
17.0655
20
5.7310
30
0.0000
11
17.1990
21
5.2579
31
0.0000
0
LINE
8
L02_
10
17.1990
20
5.2579
30
0.0000
11
17.3564
21
4.8293
31
0.0000
0
LINE
8
L02_
10
17.3564
20
4.8293
30
0.0000
11
17.5387
21
4.4509
31
0.0000
0
LINE
8
L02_
10
17.5387
20
4.4509
30
0.0000
11
17.7472
21
4.1287
31
0.0000
0
LINE
8
L02_
10
17.7472
20
4.1287
30
0.0000
11
17.9831
21
3.8682
31
0.0000
0
LINE
8
L02_
10
17.9831
20
3.8682
30
0.0000
11
18.2477
21
3.6754
31
0.0000
0
LINE
8
L02_
10
18.2477
20
3.6754
30
0.0000
11
18.5420
21
3.5560
31
0.0000
0
LINE
8
L02_
10
18.5420
20
3.5560
30
0.0000
11
18.8665
21
3.5138
31
0.0000
0
LINE
8
L02_
10
18.8665
20
3.5138
30
0.0000
11
19.2182
21
3.5451
31
0.0000
0
LINE
8
L02_
10
19.2182
20
3.5451
30
0.0000
11
19.5933
21
3.6440
31
0.0000
0
LINE
8
L02_
10
19.5933
20
3.6440
30
0.0000
11
19.9881
21
3.8049
31
0.0000
0
LINE
8
L02_
10
19.9881
20
3.8049
30
0.0000
11
20.3987
21
4.0219
31
0.0000
0
LINE
8
L02_
10
20.3987
20
4.0219
30
0.0000
11
20.8213
21
4.2894
31
0.0000
0
LINE
8
L02_
10
20.8213
20
4.2894
30
0.0000
11
21.2521
21
4.6015
31
0.0000
0
LINE
8
L02_
10
21.2521
20
4.6015
30
0.0000
11
21.6875
21
4.9526
31
0.0000
0
LINE
8
L02_
10
21.6875
20
4.9526
30
0.0000
11
22.1234
21
5.3369
31
0.0000
0
LINE
8
L02_
10
22.1234
20
5.3369
30
0.0000
11
22.5562
21
5.7487
31
0.0000
0
LINE
8
L02_
10
22.5562
20
5.7487
30
0.0000
11
22.9821
21
6.1821
31
0.0000
0
LINE
8
L02_
10
22.9821
20
6.1821
30
0.0000
11
23.3973
21
6.6315
31
0.0000
0
LINE
8
L02_
10
23.3973
20
6.6315
30
0.0000
11
23.7980
21
7.0911
31
0.0000
0
LINE
8
L02_
10
23.7980
20
7.0911
30
0.0000
11
24.1803
21
7.5551
31
0.0000
0
LINE
8
L02_
10
24.1803
20
7.5551
30
0.0000
11
24.5405
21
8.0178
31
0.0000
0
LINE
8
L02_
10
24.5405
20
8.0178
30
0.0000
11
24.8749
21
8.4735
31
0.0000
0
LINE
8
L02_
10
24.8749
20
8.4735
30
0.0000
11
25.1795
21
8.9165
31
0.0000
0
LINE
8
L02_
10
25.1795
20
8.9165
30
0.0000
11
25.4507
21
9.3408
31
0.0000
0
LINE
8
L02_
10
25.4507
20
9.3408
30
0.0000
11
25.6846
21
9.7409
31
0.0000
0
LINE
8
L02_
10
25.6846
20
9.7409
30
0.0000
11
25.8774
21
10.1110
31
0.0000
0
LINE
8
L02_
10
25.8774
20
10.1110
30
0.0000
11
26.0253
21
10.4453
31
0.0000
0
LINE
8
L02_
10
26.0253
20
10.4453
30
0.0000
11
26.1246
21
10.7380
31
0.0000
0
LINE
8
L02_
10
26.1246
20
10.7380
30
0.0000
11
26.1714
21
10.9835
31
0.0000
0
LINE
8
L02_
10
26.1714
20
10.9835
30
0.0000
11
26.1620
21
11.1760
31
0.0000
0
LINE
8
L02_
10
26.1620
20
11.1760
30
0.0000
11
26.0940
21
11.3112
31
0.0000
0
LINE
8
L02_
10
26.0940
20
11.3112
30
0.0000
11
25.9712
21
11.3911
31
0.0000
0
LINE
8
L02_
10
25.9712
20
11.3911
30
0.0000
11
25.7986
21
11.4191
31
0.0000
0
LINE
8
L02_
10
25.7986
20
11.4191
30
0.0000
11
25.5814
21
11.3986
31
0.0000
0
LINE
8
L02_
10
25.5814
20
11.3986
30
0.0000
11
25.3248
21
11.3331
31
0.0000
0
LINE
8
L02_
10
25.3248
20
11.3331
30
0.0000
11
25.0340
21
11.2260
31
0.0000
0
LINE
8
L02_
10
25.0340
20
11.2260
30
0.0000
11
24.7140
21
11.0807
31
0.0000
0
LINE
8
L02_
10
24.7140
20
11.0807
30
0.0000
11
24.3700
21
10.9007
31
0.0000
0
LINE
8
L02_
10
24.3700
20
10.9007
30
0.0000
11
24.0072
21
10.6893
31
0.0000
0
LINE
8
L02_
10
24.0072
20
10.6893
30
0.0000
11
23.6308
21
10.4501
31
0.0000
0
LINE
8
L02_
10
23.6308
20
10.4501
30
0.0000
11
23.2459
21
10.1864
31
0.0000
0
LINE
8
L02_
10
23.2459
20
10.1864
30
0.0000
11
22.8576
21
9.9017
31
0.0000
0
LINE
8
L02_
10
22.8576
20
9.9017
30
0.0000
11
22.4711
21
9.5995
31
0.0000
0
LINE
8
L02_
10
22.4711
20
9.5995
30
0.0000
11
22.0915
21
9.2831
31
0.0000
0
LINE
8
L02_
10
22.0915
20
9.2831
30
0.0000
11
21.7241
21
8.9559
31
0.0000
0
LINE
8
L02_
10
21.7241
20
8.9559
30
0.0000
11
21.3739
21
8.6215
31
0.0000
0
LINE
8
L02_
10
21.3739
20
8.6215
30
0.0000
11
21.0461
21
8.2833
31
0.0000
0
LINE
8
L02_
10
21.0461
20
8.2833
30
0.0000
11
20.7459
21
7.9446
31
0.0000
0
LINE
8
L02_
10
20.7459
20
7.9446
30
0.0000
11
20.4784
21
7.6089
31
0.0000
0
LINE
8
L02_
10
20.4784
20
7.6089
30
0.0000
11
20.2488
21
7.2797
31
0.0000
0
LINE
8
L02_
10
20.2488
20
7.2797
30
0.0000
11
20.0621
21
6.9604
31
0.0000
0
LINE
8
L02_
10
20.0621
20
6.9604
30
0.0000
11
19.9237
21
6.6544
31
0.0000
0
LINE
8
L02_
10
19.9237
20
6.6544
30
0.0000
11
19.8386
21
6.3651
31
0.0000
0
LINE
8
L02_
10
19.8386
20
6.3651
30
0.0000
11
19.8120
21
6.0960
31
0.0000
0
LINE
8
L02_
10
19.8120
20
6.0960
30
0.0000
11
19.8474
21
5.8498
31
0.0000
0
LINE
8
L02_
10
19.8474
20
5.8498
30
0.0000
11
19.9417
21
5.6264
31
0.0000
0
LINE
8
L02_
10
19.9417
20
5.6264
30
0.0000
11
20.0903
21
5.4250
31
0.0000
0
LINE
8
L02_
10
20.0903
20
5.4250
30
0.0000
11
20.2884
21
5.2447
31
0.0000
0
LINE
8
L02_
10
20.2884
20
5.2447
30
0.0000
11
20.5314
21
5.0848
31
0.0000
0
LINE
8
L02_
10
20.5314
20
5.0848
30
0.0000
11
20.8146
21
4.9444
31
0.0000
0
LINE
8
L02_
10
20.8146
20
4.9444
30
0.0000
11
21.1332
21
4.8227
31
0.0000
0
LINE
8
L02_
10
21.1332
20
4.8227
30
0.0000
11
21.4827
21
4.7189
31
0.0000
0
LINE
8
L02_
10
21.4827
20
4.7189
30
0.0000
11
21.8582
21
4.6322
31
0.0000
0
LINE
8
L02_
10
21.8582
20
4.6322
30
0.0000
11
22.2551
21
4.5617
31
0.0000
0
LINE
8
L02_
10
22.2551
20
4.5617
30
0.0000
11
22.6688
21
4.5067
31
0.0000
0
LINE
8
L02_
10
22.6688
20
4.5067
30
0.0000
11
23.0945
21
4.4664
31
0.0000
0
LINE
8
L02_
10
23.0945
20
4.4664
30
0.0000
11
23.5275
21
4.4398
31
0.0000
0
LINE
8
L02_
10
23.5275
20
4.4398
30
0.0000
11
23.9631
21
4.4263
31
0.0000
0
LINE
8
L02_
10
23.9631
20
4.4263
30
0.0000
11
24.3967
21
4.4249
31
0.0000
0
LINE
8
L02_
10
24.3967
20
4.4249
30
0.0000
11
24.8235
21
4.4349
31
0.0000
0
LINE
8
L02_
10
24.8235
20
4.4349
30
0.0000
11
25.2389
21
4.4554
31
0.0000
0
LINE
8
L02_
10
25.2389
20
4.4554
30
0.0000
11
25.6381
21
4.4857
31
0.0000
0
LINE
8
L02_
10
25.6381
20
4.4857
30
0.0000
11
26.0165
21
4.5249
31
0.0000
0
LINE
8
L02_
10
26.0165
20
4.5249
30
0.0000
11
26.3694
21
4.5722
31
0.0000
0
LINE
8
L02_
10
26.3694
20
4.5722
30
0.0000
11
26.6921
21
4.6267
31
0.0000
0
LINE
8
L02_
10
26.6921
20
4.6267
30
0.0000
11
26.9799
21
4.6878
31
0.0000
0
LINE
8
L02_
10
26.9799
20
4.6878
30
0.0000
11
27.2281
21
4.7545
31
0.0000
0
LINE
8
L02_
10
27.2281
20
4.7545
30
0.0000
11
27.4320
21
4.8260
31
0.0000
0
LINE
8
L02_
10
27.4320
20
4.8260
30
0.0000
11
27.5880
21
4.9017
31
0.0000
0
LINE
8
L02_
10
27.5880
20
4.9017
30
0.0000
11
27.6971
21
4.9812
31
0.0000
0
LINE
8
L02_
10
27.6971
20
4.9812
30
0.0000
11
27.7613
21
5.0644
31
0.0000
0
LINE
8
L02_
10
27.7613
20
5.0644
30
0.0000
11
27.7827
21
5.1511
31
0.0000
0
LINE
8
L02_
10
27.7827
20
5.1511
30
0.0000
11
27.7632
21
5.2411
31
0.0000
0
LINE
8
L02_
10
27.7632
20
5.2411
30
0.0000
11
27.7049
21
5.3344
31
0.0000
0
LINE
8
L02_
10
27.7049
20
5.3344
30
0.0000
11
27.6099
21
5.4306
31
0.0000
0
LINE
8
L02_
10
27.6099
20
5.4306
30
0.0000
11
27.4802
21
5.5297
31
0.0000
0
LINE
8
L02_
10
27.4802
20
5.5297
30
0.0000
11
27.3179
21
5.6315
31
0.0000
0
LINE
8
L02_
10
27.3179
20
5.6315
30
0.0000
11
27.1249
21
5.7358
31
0.0000
0
LINE
8
L02_
10
27.1249
20
5.7358
30
0.0000
11
26.9034
21
5.8425
31
0.0000
0
LINE
8
L02_
10
26.9034
20
5.8425
30
0.0000
11
26.6553
21
5.9513
31
0.0000
0
LINE
8
L02_
10
26.6553
20
5.9513
30
0.0000
11
26.3828
21
6.0621
31
0.0000
0
LINE
8
L02_
10
26.3828
20
6.0621
30
0.0000
11
26.0878
21
6.1748
31
0.0000
0
LINE
8
L02_
10
26.0878
20
6.1748
30
0.0000
11
25.7724
21
6.2891
31
0.0000
0
LINE
8
L02_
10
25.7724
20
6.2891
30
0.0000
11
25.4386
21
6.4050
31
0.0000
0
LINE
8
L02_
10
25.4386
20
6.4050
30
0.0000
11
25.0885
21
6.5222
31
0.0000
0
LINE
8
L02_
10
25.0885
20
6.5222
30
0.0000
11
24.7241
21
6.6406
31
0.0000
0
LINE
8
L02_
10
24.7241
20
6.6406
30
0.0000
11
24.3475
21
6.7599
31
0.0000
0
LINE
8
L02_
10
24.3475
20
6.7599
30
0.0000
11
23.9606
21
6.8801
31
0.0000
0
LINE
8
L02_
10
23.9606
20
6.8801
30
0.0000
11
23.5656
21
7.0010
31
0.0000
0
LINE
8
L02_
10
23.5656
20
7.0010
30
0.0000
11
23.1645
21
7.1224
31
0.0000
0
LINE
8
L02_
10
23.1645
20
7.1224
30
0.0000
11
22.7593
21
7.2441
31
0.0000
0
LINE
8
L02_
10
22.7593
20
7.2441
30
0.0000
11
22.3520
21
7.3660
31
0.0000
0
SOLID
8
L02_
10
28.7020
20
53.0860
30
0.0000
11
31.2420
21
53.0860
31
0.0000
12
28.7020
22
50.5460
32
0.0000
13
31.2420
23
50.5460
33
0.0000
0
SOLID
8
L03_
10
29.9720
20
51.8160
30
0.0000
11
32.5120
21
51.8160
31
0.0000
12
29.9720
22
49.2760
32
0.0000
13
32.5120
23
49.2760
33
0.0000
0
SOLID
8
L04_
10
31.2420
20
50.5460
30
0.0000
11
33.7820
21
50.5460
31
0.0000
12
31.2420
22
48.0060
32
0.0000
13
33.7820
23
48.0060
33
0.0000
0
SOLID
8
L05_
10
32.5120
20
49.2760
30
0.0000
11
35.0520
21
49.2760
31
0.0000
12
32.5120
22
46.7360
32
0.0000
13
35.0520
23
46.7360
33
0.0000
0
LINE
8
L06_
10
36.3220
20
11.1760
30
0.0000
11
38.8620
21
11.1760
31
0.0000
0
SOLID
8
L06_
10
33.7820
20
50.5460
30
0.0000
11
36.3220
21
50.5460
31
0.0000
12
33.7820
22
48.0060
32
0.0000
13
36.3220
23
48.0060
33
0.0000
0
LINE
8
L06_
10
40.1320
20
8.6360
30
0.0000
11
40.1320
21
6.0960
31
0.0000
0
LINE
8
L06_
10
21.0820
20
7.3660
30
0.0000
11
23.6220
21
7.3660
31
0.0000
0
LINE
8
L06_
10
22.3520
20
8.6360
30
0.0000
11
22.3520
21
6.0960
31
0.0000
0
LINE
8
L06_
10
19.8120
20
12.4460
30
0.0000
11
19.8120
21
9.9060
31
0.0000
0
LINE
8
L06_
10
18.5420
20
11.1760
30
0.0000
11
21.0820
21
11.1760
31
0.0000
0
LINE
8
L06_
10
37.5920
20
12.4460
30
0.0000
11
37.5920
21
9.9060
31
0.0000
0
LINE
8
L06_
10
38.8620
20
7.3660
30
0.0000
11
41.4020
21
7.3660
31
0.0000
0
SOLID
8
L07_
10
35.0520
20
51.8160
30
0.0000
11
37.5920
21
51.8160
31
0.0000
12
35.0520
22
49.2760
32
0.0000
13
37.5920
23
49.2760
33
0.0000
0
SOLID
8
L08_
10
36.3220
20
53.0860
30
0.0000
11
38.8620
21
53.0860
31
0.0000
12
36.3220
22
50.5460
32
0.0000
13
38.8620
23
50.5460
33
0.0000
0
SOLID
8
L09_
10
37.5920
20
54.3560
30
0.0000
11
40.1320
21
54.3560
31
0.0000
12
37.5920
22
51.8160
32
0.0000
13
40.1320
23
51.8160
33
0.0000
0
SOLID
8
L10_
10
38.8620
20
55.6260
30
0.0000
11
41.4020
21
55.6260
31
0.0000
12
38.8620
22
53.0860
32
0.0000
13
41.4020
23
53.0860
33
0.0000
0
SOLID
8
L11_
10
40.1320
20
54.3560
30
0.0000
11
42.6720
21
54.3560
31
0.0000
12
40.1320
22
51.8160
32
0.0000
13
42.6720
23
51.8160
33
0.0000
0
SOLID
8
L12_
10
41.4020
20
53.0860
30
0.0000
11
43.9420
21
53.0860
31
0.0000
12
41.4020
22
50.5460
32
0.0000
13
43.9420
23
50.5460
33
0.0000
0
SOLID
8
L13_
10
42.6720
20
51.8160
30
0.0000
11
45.2120
21
51.8160
31
0.0000
12
42.6720
22
49.2760
32
0.0000
13
45.2120
23
49.2760
33
0.0000
0
SOLID
8
L14_
10
43.9420
20
50.5460
30
0.0000
11
46.4820
21
50.5460
31
0.0000
12
43.9420
22
48.0060
32
0.0000
13
46.4820
23
48.0060
33
0.0000
0
SOLID
8
L15_
10
45.2120
20
49.2760
30
0.0000
11
47.7520
21
49.2760
31
0.0000
12
45.2120
22
46.7360
32
0.0000
13
47.7520
23
46.7360
33
0.0000
0
CIRCLE
8
L00_
10
4.5720
20
42.9260
30
0.0000
40
0.2540
0
CIRCLE
8
L00_
10
8.3820
20
42.9260
30
0.0000
40
0.2540
0
CIRCLE
8
L00_
10
12.1920
20
42.9260
30
0.0000
40
0.2540
0
ENDSEC
0
EOF
